<?xml version="1.0" encoding="UTF-8"?><svg id="Chin_4" xmlns="http://www.w3.org/2000/svg" viewBox="0 0 800 800"><defs><style>.cls-1{fill:#1a1a1a;}</style></defs><path class="cls-1" d="M401.9,662.15c73.23,0,121.08-67.79,133.48-87.56,2.83-4.52,5.79-8.98,8.67-13.47,32.86-51.32,26-89.94,26-89.94l-3.54-53.18-12.76-1.11s-13.4,77.05-72.66,96.58c0,0-30.14-45.93-81.07-28.13-50.96-17.8-81.11,28.13-81.11,28.13-59.26-19.53-71.62-96.58-71.62-96.58l-13.8,1.11-3.54,53.18s-7.21,40.57,28.54,93.81c1.57,2.34,3.15,4.69,4.68,7.06,9.99,15.53,61.92,90.1,138.72,90.1Zm13.89-105.26v-11.99c0-4.17-3.38-7.54-7.54-7.54h-12.81c-4.17,0-7.54,3.38-7.54,7.54v11.99c-27.27,0-59.69-33.64-59.69-33.64,0,0,19.01-23.88,36.77-18.46,14.63,4.5,30.03-5.06,35.04-7.53,5.09,2.51,20.45,11.99,35.01,7.53,17.76-5.42,37.77,18.46,37.77,18.46,0,0-29.74,33.64-57.01,33.64Z"/></svg>