<?xml version="1.0" encoding="utf-8"?>
<!-- Generator: Adobe Illustrator 27.0.1, SVG Export Plug-In . SVG Version: 6.00 Build 0)  -->
<svg version="1.1" id="Eyes_2" xmlns="http://www.w3.org/2000/svg" xmlns:xlink="http://www.w3.org/1999/xlink" x="0px" y="0px"
	 viewBox="0 0 800 800" style="enable-background:new 0 0 800 800;" xml:space="preserve">
<style type="text/css">
	.st0{fill:#14110F;}
</style>
<path class="st0" d="M572.8,344c-0.2-1.1-1.2-2-2.4-1.9c-20.3,1.3-27.7-6.5-81.5-9c-41.6-1.9-60.6,6.4-67.4,10.7
	c-2.5,1.5-5.3,2.4-8.2,2.5l-13.2,0.1h0l-13.2-0.1c-2.9,0-5.8-0.9-8.2-2.5c-6.9-4.3-25.8-12.6-67.4-10.7c-53.8,2.4-61.2,10.3-81.5,9
	c-1.2-0.1-2.2,0.7-2.4,1.9c-0.7,3.9-2,12.3,0.4,14.9c3.1,3.4,8.8,4,11.1,13.7c2.3,9.7,2.3,68.5,66.5,68.5c0,0,48.2,7.4,69.4-39.5
	c0,0,11.7-19.8,11.9-39.4c0,0,1.4-3.2,13.5-3.2s13.5,3.2,13.5,3.2c0.2,19.6,11.9,39.4,11.9,39.4c21.2,46.9,69.4,39.5,69.4,39.5
	c64.2,0,64.2-58.8,66.5-68.5c2.3-9.7,8.1-10.2,11.1-13.7C574.7,356.3,573.5,347.9,572.8,344L572.8,344z M310.5,434.3
	c-77.4,0-62.1-76.7-62.1-76.7s5.9-18.1,62.7-18.1s61.5,16.5,61.5,16.5S387.9,434.3,310.5,434.3L310.5,434.3z M489.5,434.3
	c-77.4,0-62.1-78.4-62.1-78.4s4.7-16.5,61.5-16.5s62.7,18.1,62.7,18.1S566.9,434.3,489.5,434.3L489.5,434.3z"/>
</svg>
