<?xml version="1.0" encoding="UTF-8"?><svg id="Ear_4" xmlns="http://www.w3.org/2000/svg" viewBox="0 0 800 800"><defs><style>.cls-1{fill:#f2f2f2;}</style></defs><path class="cls-1" d="M571.43,426.17h12.44l3.36,25.67c.13,1.23,1,2.25,2.19,2.56,1.32,.35,3.27,.56,5.73-.01,1.39-.32,2.38-1.55,2.36-2.98-.23-12.69,1.15-43.54-8.52-57.57-4.93-7.15-19.67-3.53-19.67-3.53,0,0,1.27,28.69,2.11,35.86Z"/><path class="cls-1" d="M229,426.17h-12.44s-3.79,25.67-3.79,25.67c-.13,1.23-1,2.25-2.19,2.56-1.32,.35-3.27,.56-5.73-.01-1.39-.32-2.38-1.55-2.36-2.98,.23-12.69-.72-43.54,8.95-57.57,4.93-7.15,19.67-3.53,19.67-3.53,0,0-1.27,28.69-2.11,35.86Z"/></svg>