<svg width="62" height="63" viewBox="0 0 62 63" fill="none" xmlns="http://www.w3.org/2000/svg">
<g clip-path="url(#clip0_1146_17361)">
<rect x="12.8766" y="0.559841" width="37.1194" height="37.1194" rx="18.5597" fill="white" stroke="black" stroke-width="1.00323"/>
<mask id="path-2-inside-1_1146_17361" fill="white">
<path fill-rule="evenodd" clip-rule="evenodd" d="M40.1697 22.1154C40.5446 21.7653 40.8726 21.1383 40.9533 20.0277C41.1691 17.0546 38.8305 17.4632 38.8305 17.4632C38.8305 17.4632 39.2126 10.7391 34.3182 8.84749C33.517 8.53758 32.5748 8.35718 31.4659 8.35718C23.584 8.35718 24.1013 17.4632 24.1013 17.4632C24.1013 17.4632 22.2768 17.1564 22.0015 19.1485C21.9952 19.1954 21.9898 19.244 21.9848 19.2936C21.9736 19.4079 21.9672 19.5298 21.9668 19.6593C21.9668 19.6991 21.9672 19.7397 21.9681 19.7808C21.9695 19.8603 21.9727 19.9429 21.9785 20.0277C22.0529 21.145 22.3827 21.7729 22.7608 22.1225C22.8292 22.1855 22.8991 22.2395 22.9694 22.2859C23.1348 22.3945 23.3019 22.4596 23.4551 22.4976C23.534 22.5173 23.6092 22.5298 23.6786 22.5373C23.9274 22.5637 24.1013 22.5262 24.1013 22.5262L24.464 22.6077C25.3129 25.0183 27.3989 29.3258 31.4655 29.3258C35.532 29.3258 37.618 25.0185 38.467 22.6079L38.8305 22.5262C38.8305 22.5262 38.8918 22.5391 38.9932 22.5445C39.063 22.5481 39.1518 22.5476 39.2532 22.5365C39.3226 22.5289 39.3974 22.5159 39.4762 22.4958C39.6294 22.4574 39.7966 22.3909 39.962 22.2806C40.0318 22.2341 40.1017 22.1797 40.1697 22.1154Z"/>
</mask>
<path fill-rule="evenodd" clip-rule="evenodd" d="M40.1697 22.1154C40.5446 21.7653 40.8726 21.1383 40.9533 20.0277C41.1691 17.0546 38.8305 17.4632 38.8305 17.4632C38.8305 17.4632 39.2126 10.7391 34.3182 8.84749C33.517 8.53758 32.5748 8.35718 31.4659 8.35718C23.584 8.35718 24.1013 17.4632 24.1013 17.4632C24.1013 17.4632 22.2768 17.1564 22.0015 19.1485C21.9952 19.1954 21.9898 19.244 21.9848 19.2936C21.9736 19.4079 21.9672 19.5298 21.9668 19.6593C21.9668 19.6991 21.9672 19.7397 21.9681 19.7808C21.9695 19.8603 21.9727 19.9429 21.9785 20.0277C22.0529 21.145 22.3827 21.7729 22.7608 22.1225C22.8292 22.1855 22.8991 22.2395 22.9694 22.2859C23.1348 22.3945 23.3019 22.4596 23.4551 22.4976C23.534 22.5173 23.6092 22.5298 23.6786 22.5373C23.9274 22.5637 24.1013 22.5262 24.1013 22.5262L24.464 22.6077C25.3129 25.0183 27.3989 29.3258 31.4655 29.3258C35.532 29.3258 37.618 25.0185 38.467 22.6079L38.8305 22.5262C38.8305 22.5262 38.8918 22.5391 38.9932 22.5445C39.063 22.5481 39.1518 22.5476 39.2532 22.5365C39.3226 22.5289 39.3974 22.5159 39.4762 22.4958C39.6294 22.4574 39.7966 22.3909 39.962 22.2806C40.0318 22.2341 40.1017 22.1797 40.1697 22.1154Z" fill="#EBEBEB"/>
<path d="M40.9533 20.0277L41.4536 20.0641V20.0641L40.9533 20.0277ZM40.1697 22.1154L39.8273 21.7487L39.8252 21.7508L40.1697 22.1154ZM38.8305 17.4632L38.3297 17.4348L38.2938 18.0662L38.9169 17.9573L38.8305 17.4632ZM34.3182 8.84749L34.1372 9.31532L34.1374 9.31538L34.3182 8.84749ZM24.1013 17.4632L24.0181 17.9579L24.6377 18.0621L24.6021 17.4348L24.1013 17.4632ZM22.0015 19.1485L21.5046 19.0798L21.5044 19.0816L22.0015 19.1485ZM21.9848 19.2936L21.4857 19.2437L21.4856 19.2444L21.9848 19.2936ZM21.9668 19.6593L21.4652 19.6576V19.6593H21.9668ZM21.9681 19.7808L22.4697 19.7723L22.4696 19.7698L21.9681 19.7808ZM21.9785 20.0277L22.479 19.9944L22.4789 19.9932L21.9785 20.0277ZM22.7608 22.1225L22.4202 22.4908L22.4213 22.4918L22.7608 22.1225ZM22.9694 22.2859L22.6929 22.7045L22.6942 22.7053L22.9694 22.2859ZM23.4551 22.4976L23.5764 22.0109L23.5758 22.0107L23.4551 22.4976ZM23.6786 22.5373L23.6241 23.036L23.6258 23.0362L23.6786 22.5373ZM24.1013 22.5262L24.2113 22.0368L24.1035 22.0126L23.9955 22.0358L24.1013 22.5262ZM24.464 22.6077L24.9371 22.4411L24.8449 22.1791L24.5739 22.1183L24.464 22.6077ZM38.467 22.6079L38.357 22.1185L38.0861 22.1793L37.9939 22.4412L38.467 22.6079ZM38.8305 22.5262L38.9342 22.0354L38.8272 22.0128L38.7205 22.0368L38.8305 22.5262ZM38.9932 22.5445L38.9667 23.0454L38.9676 23.0455L38.9932 22.5445ZM39.2532 22.5365L39.1986 22.0378L39.1983 22.0379L39.2532 22.5365ZM39.4762 22.4958L39.3543 22.0093L39.3524 22.0097L39.4762 22.4958ZM39.962 22.2806L39.6842 21.8629L39.6836 21.8633L39.962 22.2806ZM40.453 19.9914C40.3783 21.02 40.082 21.511 39.8273 21.7487L40.5121 22.482C41.0072 22.0196 41.367 21.2566 41.4536 20.0641L40.453 19.9914ZM38.8305 17.4632C38.9169 17.9573 38.9166 17.9574 38.9163 17.9574C38.9162 17.9574 38.9159 17.9575 38.9158 17.9575C38.9155 17.9576 38.9152 17.9576 38.9149 17.9577C38.9144 17.9578 38.914 17.9578 38.9138 17.9579C38.9133 17.9579 38.9133 17.9579 38.9138 17.9579C38.9148 17.9577 38.9179 17.9572 38.9227 17.9566C38.9325 17.9553 38.9496 17.9533 38.9728 17.9513C39.0195 17.9473 39.0893 17.9439 39.1736 17.9471C39.3458 17.9536 39.5575 17.987 39.7546 18.0822C39.9434 18.1734 40.129 18.3255 40.2635 18.5961C40.4017 18.8738 40.5025 19.31 40.453 19.9914L41.4536 20.0641C41.5121 19.2589 41.4015 18.6312 41.1618 18.1494C40.9186 17.6604 40.56 17.3572 40.1911 17.1789C39.8305 17.0046 39.471 16.9544 39.2115 16.9446C39.0799 16.9396 38.9687 16.9448 38.8884 16.9516C38.8481 16.955 38.8151 16.9589 38.7907 16.9621C38.7785 16.9637 38.7685 16.9652 38.7607 16.9664C38.7568 16.967 38.7534 16.9675 38.7507 16.968C38.7493 16.9682 38.7481 16.9684 38.747 16.9686C38.7464 16.9687 38.7459 16.9688 38.7455 16.9689C38.7452 16.9689 38.7449 16.969 38.7448 16.969C38.7445 16.969 38.7442 16.9691 38.8305 17.4632ZM34.1374 9.31538C36.3706 10.1785 37.4286 12.1498 37.9254 13.9951C38.1724 14.9126 38.2739 15.7772 38.3131 16.4138C38.3326 16.7314 38.3366 16.9903 38.3358 17.1682C38.3354 17.2571 38.3337 17.3257 38.3323 17.3711C38.3315 17.3937 38.3308 17.4106 38.3304 17.4214C38.3301 17.4267 38.3299 17.4306 38.3298 17.4328C38.3298 17.4339 38.3297 17.4347 38.3297 17.435C38.3297 17.4351 38.3297 17.4352 38.3297 17.4352C38.3297 17.4352 38.3297 17.435 38.3297 17.435C38.3297 17.4349 38.3297 17.4348 38.8305 17.4632C39.3313 17.4917 39.3313 17.4915 39.3314 17.4912C39.3314 17.4911 39.3314 17.4909 39.3314 17.4906C39.3314 17.4902 39.3314 17.4896 39.3315 17.489C39.3315 17.4877 39.3316 17.486 39.3317 17.4838C39.332 17.4796 39.3322 17.4738 39.3326 17.4664C39.3332 17.4515 39.3341 17.4304 39.335 17.4034C39.3367 17.3494 39.3385 17.2716 39.339 17.173C39.3399 16.9758 39.3355 16.6945 39.3144 16.3522C39.2723 15.6689 39.1634 14.7343 38.8941 13.7343C38.3584 11.7446 37.1602 9.4081 34.499 8.3796L34.1374 9.31538ZM31.4659 8.85879C32.5196 8.85879 33.3997 9.03004 34.1372 9.31532L34.4992 8.37966C33.6344 8.04513 32.63 7.85556 31.4659 7.85556V8.85879ZM24.1013 17.4632C24.6021 17.4348 24.6021 17.4349 24.6021 17.4351C24.6021 17.4351 24.6021 17.4352 24.6021 17.4352C24.6021 17.4352 24.6021 17.4351 24.6021 17.4348C24.6021 17.4343 24.602 17.4332 24.6019 17.4316C24.6018 17.4284 24.6015 17.423 24.6012 17.4156C24.6006 17.4008 24.5997 17.3777 24.5988 17.3469C24.5971 17.2854 24.5955 17.1931 24.5961 17.0745C24.5973 16.8371 24.6074 16.4953 24.6433 16.0841C24.7155 15.2589 24.8906 14.1688 25.2974 13.0867C25.7042 12.0048 26.3345 10.9521 27.3047 10.1706C28.2675 9.39509 29.5994 8.85879 31.4659 8.85879V7.85556C29.3915 7.85556 27.8323 8.45752 26.6754 9.38934C25.5258 10.3153 24.8075 11.5391 24.3584 12.7337C23.9093 13.9281 23.7211 15.1145 23.6439 15.9967C23.6052 16.4392 23.5942 16.8088 23.5929 17.0694C23.5922 17.1998 23.594 17.3031 23.596 17.375C23.597 17.4109 23.5981 17.4389 23.5989 17.4586C23.5993 17.4684 23.5997 17.4761 23.6 17.4816C23.6001 17.4844 23.6002 17.4866 23.6003 17.4883C23.6003 17.4891 23.6004 17.4898 23.6004 17.4904C23.6004 17.4907 23.6004 17.491 23.6005 17.4911C23.6005 17.4914 23.6005 17.4917 24.1013 17.4632ZM22.4984 19.2172C22.5563 18.7978 22.69 18.535 22.8309 18.3661C22.9725 18.1964 23.1445 18.094 23.3209 18.0321C23.5005 17.969 23.68 17.9498 23.8187 17.948C23.8868 17.947 23.9419 17.9503 23.9778 17.9535C23.9957 17.9551 24.0085 17.9567 24.0155 17.9576C24.019 17.9581 24.0211 17.9584 24.0216 17.9584C24.0218 17.9585 24.0216 17.9585 24.0211 17.9584C24.0208 17.9583 24.0204 17.9583 24.0199 17.9582C24.0197 17.9581 24.0194 17.9581 24.0191 17.958C24.0189 17.958 24.0187 17.958 24.0186 17.958C24.0184 17.9579 24.0181 17.9579 24.1013 17.4632C24.1845 16.9685 24.1842 16.9685 24.1839 16.9684C24.1838 16.9684 24.1835 16.9684 24.1833 16.9684C24.1829 16.9683 24.1825 16.9682 24.182 16.9681C24.1811 16.968 24.18 16.9678 24.1789 16.9676C24.1766 16.9673 24.1738 16.9668 24.1705 16.9663C24.1641 16.9654 24.1559 16.9642 24.1459 16.9629C24.1261 16.9603 24.0995 16.9572 24.0669 16.9543C24.002 16.9485 23.9123 16.9434 23.8051 16.9448C23.5932 16.9477 23.2993 16.9763 22.9884 17.0856C22.6742 17.1959 22.3385 17.3903 22.0606 17.7234C21.782 18.0573 21.5843 18.5032 21.5046 19.0798L22.4984 19.2172ZM22.4839 19.3435C22.4886 19.2972 22.4933 19.2547 22.4986 19.2154L21.5044 19.0816C21.497 19.1361 21.491 19.1908 21.4857 19.2437L22.4839 19.3435ZM22.4684 19.6611C22.4688 19.5468 22.4744 19.4407 22.484 19.3428L21.4856 19.2444C21.4727 19.3752 21.4657 19.5129 21.4652 19.6576L22.4684 19.6611ZM22.4696 19.7698C22.4688 19.7323 22.4684 19.6953 22.4684 19.6593H21.4652C21.4652 19.7028 21.4657 19.7472 21.4667 19.7918L22.4696 19.7698ZM22.4789 19.9932C22.4738 19.9183 22.4709 19.8444 22.4697 19.7723L21.4666 19.7893C21.4681 19.8761 21.4715 19.9675 21.4781 20.0623L22.4789 19.9932ZM23.1013 21.7542C22.8457 21.5178 22.5478 21.0281 22.479 19.9944L21.478 20.061C21.5579 21.2619 21.9197 22.0279 22.4202 22.4908L23.1013 21.7542ZM23.2459 21.8674C23.1975 21.8355 23.1488 21.7979 23.1002 21.7532L22.4213 22.4918C22.5097 22.5731 22.6007 22.6435 22.6929 22.7045L23.2459 21.8674ZM23.5758 22.0107C23.4702 21.9846 23.3567 21.9401 23.2446 21.8666L22.6942 22.7053C22.9128 22.8488 23.1336 22.9347 23.3345 22.9845L23.5758 22.0107ZM23.7332 22.0387C23.6839 22.0333 23.6311 22.0245 23.5764 22.0109L23.3339 22.9843C23.4368 23.01 23.5345 23.0262 23.6241 23.036L23.7332 22.0387ZM24.1013 22.5262C23.9955 22.0358 23.9956 22.0358 23.9958 22.0358C23.9958 22.0358 23.9959 22.0358 23.996 22.0358C23.9961 22.0357 23.9962 22.0357 23.9964 22.0357C23.9966 22.0356 23.9969 22.0356 23.9971 22.0355C23.9976 22.0354 23.998 22.0353 23.9984 22.0352C23.9993 22.0351 23.9999 22.0349 24.0004 22.0348C24.0014 22.0346 24.0018 22.0345 24.0017 22.0346C24.0013 22.0346 23.9987 22.0351 23.994 22.0358C23.9845 22.0373 23.9668 22.0397 23.9424 22.0417C23.8932 22.0457 23.8194 22.0478 23.7315 22.0385L23.6258 23.0362C23.7866 23.0532 23.9241 23.0497 24.024 23.0416C24.0742 23.0375 24.1156 23.0322 24.1465 23.0274C24.1619 23.025 24.1748 23.0228 24.185 23.0209C24.1901 23.02 24.1945 23.0191 24.1981 23.0184C24.2 23.018 24.2016 23.0177 24.2031 23.0174C24.2039 23.0172 24.2046 23.017 24.2052 23.0169C24.2055 23.0168 24.2059 23.0168 24.2062 23.0167C24.2063 23.0167 24.2065 23.0166 24.2066 23.0166C24.2067 23.0166 24.2068 23.0166 24.2068 23.0166C24.2069 23.0165 24.207 23.0165 24.1013 22.5262ZM24.5739 22.1183L24.2113 22.0368L23.9913 23.0156L24.354 23.0971L24.5739 22.1183ZM31.4655 28.8242C29.6324 28.8242 28.2233 27.8598 27.1452 26.5517C26.0629 25.2386 25.3529 23.6216 24.9371 22.4411L23.9908 22.7743C24.424 24.0044 25.1815 25.7465 26.3711 27.1898C27.5648 28.6381 29.2321 29.8275 31.4655 29.8275V28.8242ZM37.9939 22.4412C37.5781 23.6218 36.868 25.2387 35.7857 26.5518C34.7076 27.8598 33.2986 28.8242 31.4655 28.8242V29.8275C33.6989 29.8275 35.3661 28.6382 36.5599 27.1899C37.7494 25.7467 38.5069 24.0046 38.9401 22.7745L37.9939 22.4412ZM38.7205 22.0368L38.357 22.1185L38.577 23.0973L38.9405 23.0156L38.7205 22.0368ZM39.0197 22.0436C38.9848 22.0417 38.9585 22.0387 38.9432 22.0365C38.9355 22.0355 38.9308 22.0346 38.9291 22.0344C38.9283 22.0342 38.9283 22.0342 38.9292 22.0344C38.9296 22.0345 38.9302 22.0346 38.931 22.0347C38.9315 22.0348 38.9319 22.0349 38.9325 22.035C38.9327 22.0351 38.933 22.0352 38.9333 22.0352C38.9335 22.0352 38.9336 22.0353 38.9338 22.0353C38.9338 22.0353 38.9339 22.0353 38.934 22.0354C38.934 22.0354 38.9341 22.0354 38.9341 22.0354C38.9342 22.0354 38.9342 22.0354 38.8305 22.5262C38.7268 23.017 38.7269 23.017 38.7269 23.017C38.727 23.017 38.727 23.017 38.7271 23.017C38.7271 23.017 38.7272 23.017 38.7273 23.0171C38.7275 23.0171 38.7276 23.0171 38.7278 23.0172C38.7282 23.0172 38.7285 23.0173 38.7289 23.0174C38.7297 23.0176 38.7305 23.0177 38.7314 23.0179C38.7332 23.0183 38.7353 23.0187 38.7376 23.0191C38.7421 23.02 38.7477 23.0211 38.7542 23.0222C38.7673 23.0245 38.7841 23.0273 38.8045 23.0301C38.8451 23.0358 38.9002 23.0419 38.9667 23.0454L39.0197 22.0436ZM39.1983 22.0379C39.1268 22.0457 39.0652 22.0459 39.0188 22.0435L38.9676 23.0455C39.0608 23.0502 39.1768 23.0495 39.3081 23.0351L39.1983 22.0379ZM39.3524 22.0097C39.2971 22.0238 39.2455 22.0327 39.1986 22.0378L39.3077 23.0351C39.3997 23.025 39.4977 23.008 39.6001 22.9819L39.3524 22.0097ZM39.6836 21.8633C39.5713 21.9382 39.4582 21.9832 39.3543 22.0093L39.5982 22.9824C39.8007 22.9316 40.022 22.8435 40.2403 22.6979L39.6836 21.8633ZM39.8252 21.7508C39.779 21.7944 39.7317 21.8313 39.6842 21.8629L40.2397 22.6983C40.3319 22.637 40.4243 22.5649 40.5142 22.4799L39.8252 21.7508Z" fill="black" mask="url(#path-2-inside-1_1146_17361)"/>
</g>
<path d="M1.91483 59.213H5.1185C6.92313 59.213 7.99297 58.3254 7.99297 56.8323V56.8206C7.99297 55.6978 7.25231 54.8748 6.02963 54.7338V54.7103C6.90549 54.5868 7.56386 53.7345 7.56386 52.8586V52.8468C7.56386 51.5771 6.58219 50.7307 5.13025 50.7307H1.91483V59.213ZM4.88924 51.6653C5.91206 51.6653 6.49401 52.1238 6.49401 52.9585V52.9703C6.49401 53.8873 5.81213 54.3869 4.56006 54.3869H2.97292V51.6653H4.88924ZM4.85985 55.2981C6.21186 55.2981 6.90549 55.7977 6.90549 56.7794V56.7912C6.90549 57.767 6.22949 58.2784 4.95978 58.2784H2.97292V55.2981H4.85985ZM10.8204 59.3306C11.6375 59.3306 12.3723 58.8897 12.7309 58.2196H12.7544V59.213H13.7772V54.9865C13.7772 53.7638 12.8719 52.982 11.4259 52.982C9.98571 52.982 9.10985 53.7932 9.02167 54.7984L9.01579 54.8631H10.0033L10.0151 54.8102C10.1327 54.2635 10.6264 53.8873 11.4141 53.8873C12.2665 53.8873 12.7544 54.3399 12.7544 55.0865V55.5979L11.0027 55.6978C9.59774 55.7801 8.78654 56.4326 8.78654 57.473V57.4848C8.78654 58.5958 9.60362 59.3306 10.8204 59.3306ZM9.83287 57.4848V57.473C9.83287 56.9028 10.3031 56.5384 11.1202 56.4914L12.7544 56.3914V56.8911C12.7544 57.7787 12.0137 58.443 11.0497 58.443C10.3149 58.443 9.83287 58.0726 9.83287 57.4848ZM17.6098 59.3306C18.9912 59.3306 19.9964 58.4312 20.161 57.2673L20.1669 57.2262H19.1617L19.1499 57.2732C18.9795 57.9551 18.4446 58.4253 17.6098 58.4253C16.5517 58.4253 15.8228 57.5847 15.8228 56.1622V56.1563C15.8228 54.769 16.5341 53.8873 17.5981 53.8873C18.4975 53.8873 18.9912 54.4281 19.1441 55.0394L19.1558 55.0865H20.1551L20.1493 55.0394C20.0199 53.9931 19.1206 52.982 17.5981 52.982C15.8993 52.982 14.7765 54.2165 14.7765 56.1446V56.1504C14.7765 58.0961 15.8757 59.3306 17.6098 59.3306ZM21.1897 59.213H22.2125V56.9087L22.7827 56.362L25.0517 59.213H26.2391L23.5057 55.739L26.1569 53.0996H24.9165L22.236 55.7977H22.2125V50.7307H21.1897V59.213ZM29.2429 61.388C30.9006 61.388 31.9411 60.4592 31.9411 59.0425V53.0996H30.9183V54.1342H30.8947C30.5185 53.4523 29.8367 52.982 28.9725 52.982C27.4207 52.982 26.3567 54.2165 26.3567 56.1152V56.121C26.3567 58.0315 27.4089 59.2718 28.949 59.2718C29.8249 59.2718 30.5303 58.8368 30.8947 58.1608H30.9183V58.9426C30.9183 59.889 30.3069 60.4827 29.2312 60.4827C28.3965 60.4827 27.8145 60.2123 27.6205 59.7714L27.597 59.7185H26.5683L26.5801 59.7714C26.78 60.6767 27.7322 61.388 29.2429 61.388ZM29.1724 58.3665C28.0849 58.3665 27.403 57.5083 27.403 56.121V56.1152C27.403 54.7573 28.0849 53.8873 29.1724 53.8873C30.207 53.8873 30.9183 54.769 30.9183 56.1152V56.121C30.9183 57.4789 30.2129 58.3665 29.1724 58.3665ZM33.2637 59.213H34.2865V55.4392C34.2865 54.5104 34.8038 53.9578 35.5974 53.9578C35.8443 53.9578 36.0618 53.9872 36.144 54.0166V53.0232C36.0618 53.0114 35.9089 52.982 35.7326 52.982C35.0448 52.982 34.5158 53.4288 34.31 54.1342H34.2865V53.0996H33.2637V59.213ZM39.2184 59.3306C40.9055 59.3306 42.0458 58.1079 42.0458 56.1563V56.1446C42.0458 54.193 40.8996 52.982 39.2125 52.982C37.5254 52.982 36.3851 54.1988 36.3851 56.1446V56.1563C36.3851 58.102 37.5196 59.3306 39.2184 59.3306ZM39.2243 58.4253C38.1427 58.4253 37.4314 57.5965 37.4314 56.1563V56.1446C37.4314 54.7161 38.1485 53.8873 39.2125 53.8873C40.2941 53.8873 40.9995 54.7103 40.9995 56.1446V56.1563C40.9995 57.5906 40.3 58.4253 39.2243 58.4253ZM45.1672 59.3306C46.096 59.3306 46.7191 58.9132 47.0483 58.343H47.0718V59.213H48.0946V53.0996H47.0718V56.6971C47.0718 57.7376 46.4428 58.4253 45.4788 58.4253C44.5382 58.4253 44.0738 57.8786 44.0738 56.8852V53.0996H43.051V57.0674C43.051 58.4606 43.827 59.3306 45.1672 59.3306ZM49.429 59.213H50.4518V55.6155C50.4518 54.5751 51.0808 53.8873 52.0448 53.8873C52.9853 53.8873 53.4497 54.434 53.4497 55.4274V59.213H54.4725V55.2452C54.4725 53.852 53.6966 52.982 52.3563 52.982C51.4276 52.982 50.8045 53.3994 50.4753 53.9696H50.4518V53.0996H49.429V59.213ZM58.0759 59.3306C58.9518 59.3306 59.6336 58.8897 60.0157 58.1784H60.0392V59.213H61.0621V50.7307H60.0392V54.1224H60.0157C59.6336 53.417 58.9224 52.982 58.0583 52.982C56.524 52.982 55.4777 54.2224 55.4777 56.1504V56.1563C55.4777 58.0844 56.5123 59.3306 58.0759 59.3306ZM58.2758 58.4253C57.1942 58.4253 56.524 57.5612 56.524 56.1563V56.1504C56.524 54.7573 57.1942 53.8873 58.2758 53.8873C59.3045 53.8873 60.0451 54.7867 60.0451 56.1504V56.1563C60.0451 57.5259 59.3103 58.4253 58.2758 58.4253Z" fill="#333333"/>
<defs>
<clipPath id="clip0_1146_17361">
<rect width="39.1258" height="38.1226" fill="white" transform="translate(11.873 0.0581055)"/>
</clipPath>
</defs>
</svg>
