<svg width="155" height="129" viewBox="0 0 155 129" fill="none" xmlns="http://www.w3.org/2000/svg">
<ellipse cx="72.5" cy="125" rx="54.5" ry="4" fill="black" fill-opacity="0.14"/>
<g filter="url(#filter0_i_1146_17470)">
<path d="M120.02 0H24.3002C18.4238 0 13.6602 4.76369 13.6602 10.64V97.85C13.6602 103.726 18.4238 108.49 24.3002 108.49H120.02C125.896 108.49 130.66 103.726 130.66 97.85V10.64C130.66 4.76369 125.896 0 120.02 0Z" fill="#F7F7F7"/>
</g>
<path d="M13.7197 10.64C13.7197 7.8181 14.8407 5.11177 16.8361 3.11638C18.8315 1.121 21.5378 0 24.3597 0L120.09 0C121.487 -6.18066e-07 122.87 0.275283 124.16 0.810116C125.45 1.34495 126.623 2.12884 127.61 3.11699C128.597 4.10514 129.38 5.27816 129.913 6.569C130.447 7.85985 130.721 9.24321 130.72 10.64V35.45H13.7197V10.64Z" fill="#A1E0CA"/>
<path d="M47.5797 62.47C49.1597 62.47 50.4497 59.9 50.4497 56.73C50.4497 53.56 49.1597 51 47.5797 51C45.9997 51 44.7197 53.57 44.7197 56.73C44.7197 59.89 45.9997 62.47 47.5797 62.47Z" fill="#333333"/>
<path d="M98.31 62.47C99.89 62.47 101.17 59.9 101.17 56.73C101.17 53.56 99.89 51 98.31 51C96.73 51 95.5 53.57 95.5 56.73C95.5 59.89 96.73 62.47 98.31 62.47Z" fill="#333333"/>
<path d="M72.1196 86.23H70.8696C62.7596 85.4 57.6096 76.86 60.5596 75.49C61.9396 74.63 66.1996 74.11 70.7296 74H72.2596C76.7796 74.1 80.9896 74.63 82.4196 75.49C85.4396 76.87 80.2796 85.41 72.1196 86.23Z" fill="#333333"/>
<path d="M69.2598 81C66.897 80.7878 64.5158 81.0565 62.2598 81.79C64.5206 84.2463 67.5849 85.8139 70.8998 86.21H72.1498C73.5787 86.0604 74.9737 85.6787 76.2798 85.08C76.0498 83.78 74.3298 81.19 69.2598 81Z" fill="#D7D7D7"/>
<path d="M14 59.9C14 59.9 2 67.9 2 68.9C2 69.9 12 75.9 12 76.9C12 77.9 6 83.9 6 83.9" stroke="#333333" stroke-width="3" stroke-linecap="round" stroke-linejoin="round"/>
<path d="M153 41.9L131 60.71" stroke="#333333" stroke-width="3" stroke-linecap="round" stroke-linejoin="round"/>
<path d="M33 123.9H48L53 108.9" stroke="#333333" stroke-width="3" stroke-linecap="round" stroke-linejoin="round"/>
<path d="M111 123.9H96L91 108.9" stroke="#333333" stroke-width="3" stroke-linecap="round" stroke-linejoin="round"/>
<defs>
<filter id="filter0_i_1146_17470" x="13.6602" y="0" width="117" height="108.49" filterUnits="userSpaceOnUse" color-interpolation-filters="sRGB">
<feFlood flood-opacity="0" result="BackgroundImageFix"/>
<feBlend mode="normal" in="SourceGraphic" in2="BackgroundImageFix" result="shape"/>
<feColorMatrix in="SourceAlpha" type="matrix" values="0 0 0 0 0 0 0 0 0 0 0 0 0 0 0 0 0 0 127 0" result="hardAlpha"/>
<feOffset/>
<feGaussianBlur stdDeviation="2.5"/>
<feComposite in2="hardAlpha" operator="arithmetic" k2="-1" k3="1"/>
<feColorMatrix type="matrix" values="0 0 0 0 0 0 0 0 0 0 0 0 0 0 0 0 0 0 0.1 0"/>
<feBlend mode="normal" in2="shape" result="effect1_innerShadow_1146_17470"/>
</filter>
</defs>
</svg>
