<svg width="125" height="118" viewBox="0 0 125 118" fill="none" xmlns="http://www.w3.org/2000/svg">
<path d="M114.6 91.5797C115.224 96.7551 91.9225 103.822 62.5548 107.363C27.8764 110.745 8.77368 108.749 8.24967 104.404C7.62556 99.229 30.9269 92.1625 60.2947 88.6211C89.6624 85.0797 113.976 86.4043 114.6 91.5797Z" fill="black" fill-opacity="0.14"/>
<g filter="url(#filter0_i_1330_21247)">
<path d="M101.269 2.70755L12.9308 12.8809C7.50768 13.5054 3.18466 18.8547 3.27507 24.8288C3.27507 24.8288 0.125818 44.1275 0.92299 59.6539C1.72016 75.1803 7.2846 96.6295 7.2846 96.6295C7.37501 102.604 11.8446 106.94 17.2677 106.316L105.606 96.1423C111.029 95.5178 115.352 90.1685 115.261 84.1945C115.261 84.1945 110.084 66.0186 109.156 53.5836C108.228 41.1486 111.252 12.3937 111.252 12.3937C111.161 6.41965 106.692 2.083 101.269 2.70755Z" fill="#F7F7F7"/>
</g>
<path d="M3.53822 24.2992C4.61925 19.2005 5.10936 18.0248 6.91799 15.6408C8.72662 13.2569 11.6698 11.7529 14.2741 11.4529L101.198 3.47282C102.487 3.32437 103.768 3.477 104.968 3.922C106.168 4.367 107.262 5.09563 108.19 6.06626C109.117 7.03688 109.859 8.23046 110.373 9.57876C110.886 10.9271 111.162 12.4037 111.184 13.9241L109.643 34.4127L1.23974 46.0498C1.23974 46.0498 2.4572 29.3978 3.53822 24.2992Z" fill="#A1E0CA"/>
<path d="M44.156 74.3203C45.6141 74.167 46.7651 71.6574 46.7163 68.7161C46.6676 65.7749 45.4377 63.5248 43.9795 63.678C42.5214 63.8313 41.3796 66.34 41.4282 69.2719C41.4769 72.2039 42.6978 74.4735 44.156 74.3203Z" fill="#333333"/>
<path d="M91.4358 68.3022C92.8939 68.1489 94.0357 65.6402 93.9869 62.699C93.9381 59.7578 92.7174 57.5067 91.2593 57.6599C89.8012 57.8132 88.7056 60.317 88.7542 63.249C88.8028 66.1809 89.9776 68.4554 91.4358 68.3022Z" fill="#333333"/>
<path d="M37.7037 102.856L61.3997 115.847L66.3654 100.8" stroke="#333333" stroke-width="2.78388" stroke-linecap="round"/>
<path d="M90.9514 95.9973L118.498 103.409L123 89.7534" stroke="#333333" stroke-width="2.78388" stroke-linecap="round"/>
<path d="M55.5244 76.5589C55.5244 76.5589 57.0843 79.0873 62.1502 79.7081C67.2161 80.3289 70.2615 78.3648 70.2615 78.3648" stroke="#333333" stroke-width="2.78388" stroke-linecap="round"/>
<path d="M67.8634 69.6938C68.0843 68.9509 68.7436 68.4234 69.5169 68.371L87.7765 67.1331C88.7584 67.0665 89.6215 67.778 89.7436 68.7546L89.9434 70.3529C89.9742 70.5994 89.9552 70.8495 89.8876 71.0885L83.3843 94.0666C83.1718 94.8175 82.5123 95.3552 81.734 95.4122L64.0072 96.7093L62.3193 96.7093C61.078 96.7093 60.1866 95.5143 60.5404 94.3245L67.8634 69.6938Z" fill="#434343"/>
<path d="M68.7262 71.0951C68.9449 70.3474 69.6073 69.8158 70.3846 69.7643L88.2431 68.5795C89.5177 68.4949 90.4947 69.6933 90.1551 70.9248L83.7031 94.3176C83.4932 95.0787 82.8247 95.6237 82.0368 95.676L63.78 96.8872C62.4932 96.9726 61.5138 95.752 61.8758 94.5143L68.7262 71.0951Z" fill="#868686"/>
<path d="M49.2276 86.629C49.2276 86.629 34.0103 92.3778 31.5964 91.7328C29.1824 91.0878 17.213 78.0975 17.213 78.0975" stroke="#333333" stroke-width="2.78388" stroke-linecap="round" stroke-linejoin="round"/>
<path d="M84 86C84 86 98.6041 82.6096 100.847 81.5095C103.091 80.4093 107.115 63.3529 107.115 63.3529" stroke="#333333" stroke-width="2.78388" stroke-linecap="round" stroke-linejoin="round"/>
<defs>
<filter id="filter0_i_1330_21247" x="0.793701" y="0.791782" width="116.325" height="105.584" filterUnits="userSpaceOnUse" color-interpolation-filters="sRGB">
<feFlood flood-opacity="0" result="BackgroundImageFix"/>
<feBlend mode="normal" in="SourceGraphic" in2="BackgroundImageFix" result="shape"/>
<feColorMatrix in="SourceAlpha" type="matrix" values="0 0 0 0 0 0 0 0 0 0 0 0 0 0 0 0 0 0 127 0" result="hardAlpha"/>
<feOffset dx="1.85592" dy="-1.85592"/>
<feGaussianBlur stdDeviation="2.3199"/>
<feComposite in2="hardAlpha" operator="arithmetic" k2="-1" k3="1"/>
<feColorMatrix type="matrix" values="0 0 0 0 0 0 0 0 0 0 0 0 0 0 0 0 0 0 0.1 0"/>
<feBlend mode="normal" in2="shape" result="effect1_innerShadow_1330_21247"/>
</filter>
</defs>
</svg>
