<svg width="125" height="118" viewBox="0 0 125 118" fill="none" xmlns="http://www.w3.org/2000/svg">
<path d="M114.6 91.5797C115.224 96.7551 91.9225 103.822 62.5548 107.363C27.8764 110.745 8.77368 108.749 8.24967 104.404C7.62556 99.229 30.9269 92.1625 60.2947 88.6211C89.6624 85.0797 113.976 86.4043 114.6 91.5797Z" fill="#D9D9D9"/>
<g filter="url(#filter0_i_1330_21247)">
<path d="M101.269 2.70755L12.9308 12.8809C7.50768 13.5054 3.18466 18.8547 3.27507 24.8288C3.27507 24.8288 0.125818 44.1275 0.92299 59.6539C1.72016 75.1803 7.2846 96.6295 7.2846 96.6295C7.37501 102.604 11.8446 106.94 17.2677 106.316L105.606 96.1423C111.029 95.5178 115.352 90.1685 115.261 84.1945C115.261 84.1945 110.084 66.0186 109.156 53.5836C108.228 41.1486 111.252 12.3937 111.252 12.3937C111.161 6.41965 106.692 2.083 101.269 2.70755Z" fill="#F7F7F7"/>
</g>
<path d="M3.53822 24.2992C4.61925 19.2005 5.10936 18.0248 6.91799 15.6408C8.72662 13.2569 11.6698 11.7529 14.2741 11.4529L101.198 3.47282C102.487 3.32437 103.768 3.477 104.968 3.922C106.168 4.367 107.262 5.09563 108.19 6.06626C109.117 7.03688 109.859 8.23046 110.373 9.57876C110.886 10.9271 111.162 12.4037 111.184 13.9241L109.643 34.4127L1.23974 46.0498C1.23974 46.0498 2.4572 29.3978 3.53822 24.2992Z" fill="#A1E0CA"/>
<path d="M44.156 74.3203C45.6141 74.167 46.7651 71.6574 46.7163 68.7161C46.6676 65.7749 45.4377 63.5248 43.9795 63.678C42.5214 63.8313 41.3796 66.34 41.4282 69.2719C41.4769 72.2039 42.6978 74.4735 44.156 74.3203Z" fill="#333333"/>
<path d="M91.4358 68.3022C92.8939 68.1489 94.0357 65.6402 93.9869 62.699C93.9381 59.7578 92.7174 57.5067 91.2593 57.6599C89.8012 57.8132 88.7056 60.317 88.7542 63.249C88.8028 66.1809 89.9776 68.4554 91.4358 68.3022Z" fill="#333333"/>
<path d="M37.7037 102.856L61.3997 115.847L66.3654 100.8" stroke="#333333" stroke-width="2.78388" stroke-linecap="round"/>
<path d="M90.9514 95.9973L118.498 103.409L123 89.7534" stroke="#333333" stroke-width="2.78388" stroke-linecap="round"/>
<path d="M55.5244 76.5589C55.5244 76.5589 57.0843 79.0873 62.1502 79.7081C67.2161 80.3289 70.2615 78.3648 70.2615 78.3648" stroke="#333333" stroke-width="2.78388" stroke-linecap="round"/>
<path d="M71.1791 69.8052C71.4 69.0623 72.0593 68.5349 72.8326 68.4825L91.0922 67.2446C92.0741 67.178 92.9372 67.8895 93.0593 68.866L93.2591 70.4644C93.2899 70.7108 93.2709 70.961 93.2033 71.2L86.7 94.1781C86.4875 94.9289 85.8279 95.4667 85.0497 95.5236L67.3228 96.8208L65.635 96.8208C64.3937 96.8208 63.5023 95.6258 63.856 94.4359L71.1791 69.8052Z" fill="#434343"/>
<path d="M72.0419 71.2065C72.2606 70.4588 72.923 69.9273 73.7003 69.8757L91.5587 68.6909C92.8334 68.6063 93.8104 69.8048 93.4707 71.0362L87.0188 94.429C86.8089 95.1902 86.1403 95.7352 85.3525 95.7874L67.0956 96.9987C65.8089 97.084 64.8295 95.8635 65.1915 94.6258L72.0419 71.2065Z" fill="#868686"/>
<path d="M49.2276 86.629C49.2276 86.629 34.0103 92.3778 31.5964 91.7328C29.1824 91.0878 17.213 78.0975 17.213 78.0975" stroke="#333333" stroke-width="2.78388" stroke-linecap="round" stroke-linejoin="round"/>
<path d="M87.2745 85.6853C87.2745 85.6853 99.8785 82.6096 102.122 81.5095C104.365 80.4094 108.389 63.3529 108.389 63.3529" stroke="#333333" stroke-width="2.78388" stroke-linecap="round" stroke-linejoin="round"/>
<defs>
<filter id="filter0_i_1330_21247" x="0.793701" y="0.791782" width="116.325" height="105.584" filterUnits="userSpaceOnUse" color-interpolation-filters="sRGB">
<feFlood flood-opacity="0" result="BackgroundImageFix"/>
<feBlend mode="normal" in="SourceGraphic" in2="BackgroundImageFix" result="shape"/>
<feColorMatrix in="SourceAlpha" type="matrix" values="0 0 0 0 0 0 0 0 0 0 0 0 0 0 0 0 0 0 127 0" result="hardAlpha"/>
<feOffset dx="1.85592" dy="-1.85592"/>
<feGaussianBlur stdDeviation="2.3199"/>
<feComposite in2="hardAlpha" operator="arithmetic" k2="-1" k3="1"/>
<feColorMatrix type="matrix" values="0 0 0 0 0 0 0 0 0 0 0 0 0 0 0 0 0 0 0.1 0"/>
<feBlend mode="normal" in2="shape" result="effect1_innerShadow_1330_21247"/>
</filter>
</defs>
</svg>
