<?xml version="1.0" encoding="utf-8"?>
<!-- Generator: Adobe Illustrator 27.0.1, SVG Export Plug-In . SVG Version: 6.00 Build 0)  -->
<svg version="1.1" id="Eyes_5" xmlns="http://www.w3.org/2000/svg" xmlns:xlink="http://www.w3.org/1999/xlink" x="0px" y="0px"
	 viewBox="0 0 800 800" style="enable-background:new 0 0 800 800;" xml:space="preserve">
<style type="text/css">
	.st0{fill:#09090B;}
</style>
<path class="st0" d="M553,341.7c-9.4-3.3-28-19.9-67.3-19.9s-69.5,27.1-69.5,27.1c-5.9-2.2-16.3-1.8-16.3-1.8s-10.4-0.5-16.3,1.8
	c0,0-30.3-27.1-69.5-27.1s-57.9,16.6-67.3,19.9c-9.4,3.3-19.3,4.3-19.3,4.3v21.2c0,0,13.7-1.4,15.8,6.6c2.1,8,12.1,63.3,69.9,63.3
	s72.1-53.7,72.3-80.3c0,0,7.4-1.9,14.4-1.9s14.4,1.9,14.4,1.9c0.2,26.6,14.5,80.3,72.3,80.3s67.8-55.3,69.9-63.3
	c2.1-8,15.8-6.6,15.8-6.6V346C572.3,346,562.4,345,553,341.7L553,341.7z M313.3,431.4c-26.4,0-41.2-10.1-49.6-22.4
	c-20.9-30.8-2.4-73.3,34.4-79.5c4.1-0.7,8.6-1.1,13.5-1.1c50.5,0,60,29.3,60.8,39.8C373.2,379.3,370.1,431.4,313.3,431.4
	L313.3,431.4z M536.3,409c-8.4,12.3-23.3,22.4-49.6,22.4c-56.8,0-59.9-52.1-59.1-63.2c0.8-10.5,10.4-39.8,60.8-39.8
	c4.9,0,9.4,0.4,13.5,1.1C538.7,335.7,557.2,378.2,536.3,409L536.3,409z"/>
</svg>
