<?xml version="1.0" encoding="UTF-8"?><svg id="Male_hair_3" xmlns="http://www.w3.org/2000/svg" viewBox="0 0 800 800"><path d="M667.13,405.49c-1.23-1.66-2.65-3.42-4.36-5.32-1.47-1.63-2.67-3.17-3.74-4.65-2.55-4.63-4.18-9.48-5.16-13.16-.05-18.49,28.31-21.43,4.62-51.63-69.15-88.15,35.14-22.42-63.18-155.19-95.78-129.3-155.59-101.78-193.56-82.81-37.97-18.97-97.83-46.49-193.56,82.81-98.32,132.77,14.65,70.23-63.18,155.19-33.96,37.07,18.18,27.09-4.29,69.44-15.34,28.91,.66,28.63,6.75,43.57,0,.01-6.48,44.94-39.49,31.21,0,0,10.99,31.81,33.98,11.66,5.27,13.66,19.97,14.46,10.21,41.77-11.84,33.15,27.3,25.91,3.61,48.04-23.69,22.13-11.5,41.2-11.5,41.2,18.67-34.31,40.21-11.4,44.5,.78,4.34,12.23-21.5,16.79-21.5,16.79,0,0,53.08,38.92,84.67,12.23,31.59-26.74,10.77-121.27,10.77-121.27-.96-2.71-2.18-7.19-3.51-12.55-7.88-31.9-11.69-64.76-11.63-97.76,.02-15.5,.17-35.74,.52-61.95,.87-64.74,22.58-116.19,33.79-138.52,4.59-9.15,11.32-16.87,19.62-22.26,44.75-29.1,88.5-9.29,100.23-.56,11.91-8.87,56.81-29.43,102.32,1.96,7.44,5.13,13.3,12.43,17.49,20.77,11.2,22.29,32.97,73.78,33.84,138.61,.35,26.21,.49,46.46,.52,61.95,.05,33-3.75,65.86-11.63,97.76-1.32,5.36-2.55,9.84-3.51,12.55,0,0-20.81,94.53,10.77,121.27,31.59,26.69,84.67-12.23,84.67-12.23,0,0-25.84-4.56-21.55-16.79,4.34-12.18,25.84-35.08,44.5-.78,0,0,12.24-19.07-11.46-41.2-23.69-22.13,16.95-16.17,3.56-48.04-15.53-36.96,25.15-27.47,7.21-64.11-11.43-23.28,2.07-33.02,8.31-42.87,14.28,1.69,25.23-13.91,25.23-13.91-11,4.58-19.04,2.62-24.89-2Z"/></svg>