<?xml version="1.0" encoding="UTF-8"?><svg id="Female_hair_7" xmlns="http://www.w3.org/2000/svg" viewBox="0 0 800 800"><path d="M738.36,415.59c10.41,17.35-41.14,14.37-16.85,36.69,24.29,22.32-10.41,23.29,3.47,47.58s-20.82,3.96-17.35,34.42c3.47,30.45-31.23-2.2-34.21,28.53-2.97,30.73-36.18,3.47-32.22,31.84,3.97,28.37-26.76-2.59-39.16,12.77-12.39,15.37-15.36-21.81-31.22-2.27-15.87,19.54-26.28,3.76-34.7-5.66-1.11-1.24-3.6-2.32-7.08-3.26-.14,.2-.27,.42-.39,.64-7.94,14.38-26.28-7.93-38.17-.99-5.69,3.32-29.42-.18-52.62-4.73-13.82,5.03-25.4-2.75-29.76-6.36-1.54-.35-3.03-.69-4.44-1.03-14.86,3.66-89.33,21.53-100.03,15.29-11.89-6.94-30.23,15.37-38.16,.99-1.49-2.69-3.63-4.11-6.16-4.76-.55,.33-.99,.68-1.31,1.04-8.43,9.42-18.84,25.2-34.7,5.66-15.87-19.54-18.84,17.64-31.23,2.28-12.4-15.37-43.13,15.6-39.16-12.78,3.96-28.37-29.25-1.1-32.22-31.84-2.98-30.73-37.68,1.92-34.21-28.53,3.47-30.46-31.23-10.13-17.35-34.42,13.88-24.29-20.82-25.25,3.47-47.57,24.29-22.32-27.26-19.35-16.85-36.7s-26.27-26.27-9.42-41.64c16.86-15.37-5.45-19.83,2.98-22.8,8.42-2.97-10.91-25.78,7.93-34.7,18.83-8.92-10.41-31.72,2.97-34.2,13.39-2.48-9.91-30.24,8.43-39.16,18.34-8.93-14.87-24.29,7.43-36.19,22.31-11.9,18.34-6.44,12.4-27.76-5.95-21.31,10.41-2.48,22.3-9.91,0,0-8.92-18.84,4.96-26.77,13.88-7.93,28.25,10.91,31.23-4.96,2.97-15.86,5.45-25.77,15.86-20.82,10.41,4.96,10.91,1.49,18.84-13.88,7.31-14.15,17.98-11.9,25.82-8.36,1.62-6.35,4.23-11.76,11.39-10.77,.33,.05,.66,.1,.98,.16,1.52-2.11,3.5-3.69,6.42-3.83,5.62-.26,10.37,4.38,14.65,8.23,1.17-1.41,2.38-3.53,3.73-6.55,7.93-17.84,26.76-11.89,36.18-.99,.2,.23,.4,.43,.6,.6,.48-.06,.93-.31,1.35-.79,2.41-2.76,5.07-2.16,7.29-.69,0-.01,.01,0,.01,0,8.74-7.62,18.68-28.31,22.97-26.88,5.95,1.99,7.44,9.92,12.39,8.92,4.96-.99,32.38-23.85,35.2-8.99,.03,.14,.05,.28,.08,.41,4.62-.91,10.61,2.42,16.41,4.67,5.82-2.24,12.12-5.2,17.11-4.6,7.38-9.5,23.98,5,33.21,3.65h.02c.47-.14,.93-.26,1.39-.36,2.21-.83,3.85-2.9,4.61-6.94,2.82-14.85,30.24,8.01,35.2,9,4.95,.99,6.44-6.94,12.39-8.92,5.95-1.99,22.8,38.66,32.22,27.75,9.42-10.9,28.25-16.85,36.19,1,3.1,6.98,5.53,9.11,8.18,8.98,2.84-2.31,5.92-4.19,9.32-4.32,2.31-1.17,5.01-2.23,8.27-2.68,9.3-1.28,10.93,8.22,12.66,16.57,7.1-2.95,16.11-4.29,22.89,6.05,1.79-.19,2.98,.69,3.12,3.65l-.06,1.95c6.63,13.02,7.68,15.78,17.44,11.13,10.41-4.96,12.89,4.96,15.86,20.82,2.98,15.86,17.35-2.97,31.23,4.96,13.88,7.93,4.96,26.77,4.96,26.77,11.9,7.43,28.25-11.41,22.3,9.91-5.94,21.31-9.91,15.86,12.4,27.76,22.3,11.9-10.91,27.26,7.43,36.18,18.34,8.93-4.95,36.69,8.43,39.16,13.38,2.48-15.86,25.29,2.97,34.21,18.84,8.92-.49,31.72,7.94,34.7,8.42,2.97-13.88,7.43,2.97,22.8,16.85,15.37-19.83,24.29-9.42,41.64Z"/></svg>