<?xml version="1.0" encoding="UTF-8"?><svg id="Male_hair_1" xmlns="http://www.w3.org/2000/svg" viewBox="0 0 800 800"><path d="M630.35,230.66s-5.08,28.73-27.09,24.69c0,0,.99,83.91-2.3,116.33-7.13-9.12-16.84-12.45-24.59-13.54,0,0,3.31,27.42-20.65,48.11,0,0-.2-164.97-46.87-190.76-43.44-24.01-61.01,3.03-104.91,4.54s-103.91-19.18-103.91-19.18c0,0-54.56,65.1-56.17,177.66,0,.23-.33,.25-.36,.03-.85-5.55-3.72-14.26-13.21-18.84-2.39-1.15-4.68-1.56-6.84-1.43-1.18,.08-2.32,.31-3.41,.66-4.57,1.07-9.52,2.99-14.1,6.38,2.16-16.95,5.77-55.51-2.33-77.87-10.6-29.26-17.66-134.52,58.53-122.92,0,0-23.82-101.93,76.15-103.44,99.96-1.52,186.23,123.1,261.92,122.09,0,0,2.75,13.72-13.6,13.14,0,0,4.54,5.55,29.77,9.59,0,0,4.55,15.64-12.61,16.15,0,0,4.49,6.42,26.58,8.61Z"/></svg>