<?xml version="1.0" encoding="UTF-8"?><svg id="Female_hair_6_" xmlns="http://www.w3.org/2000/svg" viewBox="0 0 800 800"><path d="M325.11,774.58c-3.04,0-6-1.55-7.68-4.34-.56-.93-13.85-23.28-26.46-62.8-11.56-36.26-24.69-94.55-21.57-166.33,.21-4.94,4.42-8.77,9.33-8.55,4.94,.21,8.77,4.39,8.55,9.33-5.75,132.2,44.98,218.29,45.49,219.14,2.55,4.24,1.17,9.74-3.06,12.28-1.44,.87-3.03,1.28-4.6,1.28Z"/><path d="M478.12,769.96c-1.78,0-3.58-.53-5.15-1.64-4.04-2.85-5.01-8.42-2.17-12.46h0c.17-.24,16.89-24.39,31.69-69.51,13.65-41.63,28.42-110.15,21.22-200.18-.39-4.93,3.28-9.24,8.21-9.64,4.95-.4,9.24,3.28,9.64,8.21,7.48,93.45-8.02,164.72-22.34,208.05-15.64,47.35-33.04,72.33-33.78,73.37-1.74,2.47-4.51,3.79-7.32,3.79Z"/><path d="M503.54,779.52c-1.63,0-3.28-.44-4.76-1.38-4.18-2.63-5.44-8.15-2.82-12.33,.2-.31,15.9-25.8,29.6-75.1,12.67-45.59,26.17-121.45,18.55-223.96-.37-4.93,3.33-9.22,8.26-9.59,4.93-.37,9.22,3.33,9.59,8.26,7.85,105.6-6.23,183.93-19.42,231.04-14.44,51.54-30.74,77.78-31.42,78.87-1.7,2.7-4.61,4.19-7.59,4.19Z"/><path d="M301.71,784.46c-3.28,0-6.44-1.81-8.01-4.94-.61-1.23-15.21-30.59-28.52-80.87-12.24-46.23-25.59-119.61-19.67-206.65,.34-4.93,4.61-8.67,9.54-8.32,4.93,.33,8.66,4.61,8.32,9.54-11.01,161.84,45.75,277.13,46.32,278.28,2.22,4.42,.43,9.8-3.99,12.02-1.29,.65-2.66,.95-4.01,.95Z"/></svg>