<?xml version="1.0" encoding="UTF-8"?><svg id="Head_Ear_5" xmlns="http://www.w3.org/2000/svg" viewBox="0 0 800 800"><defs><style>.cls-1{fill:#f4d3b8;}</style></defs><path class="cls-1" d="M610.55,415.53c-1.79,24.87-9.07,38.91-17.39,46.75-1.51,1.44-3.06,2.66-4.61,3.7-3.67,2.47-7.38,3.96-10.78,4.82-1.75,.45-3.41,.74-4.95,.91-2.25,.25-4.22,.26-5.77,.18-2.25-.12-3.61-.41-3.61-.41l-163.44,37.06-163.44-37.06s-3.86,.84-9.38,.25c-1.54-.17-3.21-.45-4.96-.89-3.4-.85-7.11-2.31-10.78-4.74-1.56-1.04-3.11-2.25-4.63-3.66h0c-8.39-7.83-15.71-21.89-17.36-46.91-.13-1.9-.2-3.75-.23-5.53-.02-.92-.03-1.83-.03-2.72,.01-2.9,.15-5.63,.4-8.19,.11-1.11,.23-2.2,.37-3.25,6.11-44.61,46.6-37.74,46.6-37.74,0,0-11.48-203.92,163.44-203.92,24.61,0,45.52,4.04,63.3,10.98,108.62,42.36,100.14,192.94,100.14,192.94,0,0,51.9-9.15,47.11,57.43Z"/></svg>