<?xml version="1.0" encoding="utf-8"?>
<!-- Generator: Adobe Illustrator 27.0.1, SVG Export Plug-In . SVG Version: 6.00 Build 0)  -->
<svg version="1.1" id="Eyes_3" xmlns="http://www.w3.org/2000/svg" xmlns:xlink="http://www.w3.org/1999/xlink" x="0px" y="0px"
	 viewBox="0 0 800 800" style="enable-background:new 0 0 800 800;" xml:space="preserve">
<style type="text/css">
	.st0{fill:#14110F;}
</style>
<path class="st0" d="M424.2,342.5c-7.8,1.5-16.4,2.3-21.1,2.6c-2,0.2-4.1,0.2-6.1,0c-4.7-0.4-13.4-1.2-21.1-2.6
	c-11.3-2.2-83.6-16.9-146.2,2.9v12c0,0,9.6-1.2,11.6,7.7s9.9,58.4,16.3,60.5c6.4,2.1,57.6,14,102,3.4c0,0,11.3-7.5,27.7-64.6
	c0,0,3-6.9,12.8-7h0.2c9.8,0.1,12.8,7,12.8,7c16.4,57.1,27.7,64.6,27.7,64.6c44.4,10.6,95.6-1.3,102-3.4
	c6.4-2.1,14.3-51.6,16.3-60.5s11.6-7.7,11.6-7.7v-12C507.7,325.7,435.5,340.4,424.2,342.5L424.2,342.5z M380.6,360.1
	c-2.3,13.8-13.7,45.1-19,58c-1.6,3.9-4.9,6.8-9,7.9c-27,7-76.9,1.7-87.3-4.7c-11.3-7-16.6-60-13.7-68.6c2.9-8.7,30.3-13,59.5-12.3
	C340.2,341.1,383.5,342.5,380.6,360.1L380.6,360.1z M534.8,421.3c-10.4,6.4-60.4,11.7-87.3,4.7c-4.1-1.1-7.4-4-9-7.9
	c-5.3-12.9-16.8-44.2-19-58c-2.9-17.6,40.5-19,69.6-19.8s56.6,3.6,59.5,12.3C551.4,361.3,546.1,414.3,534.8,421.3L534.8,421.3z"/>
</svg>
