<svg width="33" height="58" viewBox="0 0 33 58" fill="none" xmlns="http://www.w3.org/2000/svg">
<g clip-path="url(#clip0_1108_18225)">
<mask id="path-1-inside-1_1108_18225" fill="white">
<path fill-rule="evenodd" clip-rule="evenodd" d="M31.351 23.6804C31.9697 23.1027 32.5111 22.068 32.6442 20.2351C33.0004 15.3284 29.1409 16.0028 29.1409 16.0028C29.1409 16.0028 29.7715 4.90557 21.694 1.7838C20.3718 1.27234 18.8168 0.974609 16.9867 0.974609C3.97877 0.974609 4.83248 16.0028 4.83248 16.0028C4.83248 16.0028 1.82145 15.4965 1.36708 18.7841C1.35666 18.8614 1.34774 18.9418 1.33956 19.0236C1.32097 19.2122 1.31056 19.4134 1.30981 19.6271C1.30981 19.6927 1.31056 19.7598 1.31205 19.8276C1.31428 19.9588 1.31948 20.0951 1.32915 20.2351C1.45185 22.079 1.9962 23.1152 2.62012 23.6922C2.73316 23.7962 2.84843 23.8853 2.96443 23.962C3.23735 24.1411 3.51325 24.2486 3.76609 24.3113C3.89623 24.3437 4.02042 24.3643 4.13494 24.3769C4.54543 24.4204 4.83248 24.3585 4.83248 24.3585L5.43175 24.4931C6.83302 28.4716 10.2756 35.5797 16.9865 35.5797C23.6974 35.5797 27.14 28.4717 28.5413 24.4932L29.1409 24.3585C29.1409 24.3585 29.242 24.3798 29.4093 24.3887C29.5246 24.3946 29.6711 24.3938 29.8384 24.3754C29.953 24.3629 30.0764 24.3415 30.2065 24.3083C30.4594 24.245 30.7353 24.1352 31.0082 23.9531C31.1235 23.8765 31.2387 23.7866 31.351 23.6804Z"/>
</mask>
<path fill-rule="evenodd" clip-rule="evenodd" d="M31.351 23.6804C31.9697 23.1027 32.5111 22.068 32.6442 20.2351C33.0004 15.3284 29.1409 16.0028 29.1409 16.0028C29.1409 16.0028 29.7715 4.90557 21.694 1.7838C20.3718 1.27234 18.8168 0.974609 16.9867 0.974609C3.97877 0.974609 4.83248 16.0028 4.83248 16.0028C4.83248 16.0028 1.82145 15.4965 1.36708 18.7841C1.35666 18.8614 1.34774 18.9418 1.33956 19.0236C1.32097 19.2122 1.31056 19.4134 1.30981 19.6271C1.30981 19.6927 1.31056 19.7598 1.31205 19.8276C1.31428 19.9588 1.31948 20.0951 1.32915 20.2351C1.45185 22.079 1.9962 23.1152 2.62012 23.6922C2.73316 23.7962 2.84843 23.8853 2.96443 23.962C3.23735 24.1411 3.51325 24.2486 3.76609 24.3113C3.89623 24.3437 4.02042 24.3643 4.13494 24.3769C4.54543 24.4204 4.83248 24.3585 4.83248 24.3585L5.43175 24.4931C6.83302 28.4716 10.2756 35.5797 16.9865 35.5797C23.6974 35.5797 27.14 28.4717 28.5413 24.4932L29.1409 24.3585C29.1409 24.3585 29.242 24.3798 29.4093 24.3887C29.5246 24.3946 29.6711 24.3938 29.8384 24.3754C29.953 24.3629 30.0764 24.3415 30.2065 24.3083C30.4594 24.245 30.7353 24.1352 31.0082 23.9531C31.1235 23.8765 31.2387 23.7866 31.351 23.6804Z" fill="white"/>
<path d="M32.6442 20.2351L33.5556 20.3013L33.5556 20.3013L32.6442 20.2351ZM31.351 23.6804L30.7274 23.0126L30.7234 23.0163L31.351 23.6804ZM29.1409 16.0028L28.2286 15.9509L28.1632 17.1012L29.2982 16.9029L29.1409 16.0028ZM21.694 1.7838L21.3643 2.63601L21.3646 2.63611L21.694 1.7838ZM4.83248 16.0028L4.68096 16.9039L5.80967 17.0937L5.74476 15.9509L4.83248 16.0028ZM1.36708 18.7841L0.461924 18.659L0.461486 18.6622L1.36708 18.7841ZM1.33956 19.0236L0.430344 18.9327L0.430215 18.934L1.33956 19.0236ZM1.30981 19.6271L0.396065 19.624V19.6271H1.30981ZM1.31205 19.8276L2.22567 19.8121L2.22557 19.8076L1.31205 19.8276ZM1.32915 20.2351L2.24088 20.1745L2.24073 20.1722L1.32915 20.2351ZM2.62012 23.6922L1.9997 24.3631L2.00172 24.3649L2.62012 23.6922ZM2.96443 23.962L2.46074 24.7244L2.46314 24.7259L2.96443 23.962ZM3.76609 24.3113L3.98701 23.4246L3.98583 23.4244L3.76609 24.3113ZM4.13494 24.3769L4.03556 25.2852L4.03869 25.2855L4.13494 24.3769ZM4.83248 24.3585L5.03281 23.4669L4.83652 23.4228L4.63985 23.4652L4.83248 24.3585ZM5.43175 24.4931L6.2936 24.1896L6.12557 23.7125L5.63208 23.6016L5.43175 24.4931ZM28.5413 24.4932L28.3409 23.6017L27.8475 23.7126L27.6794 24.1896L28.5413 24.4932ZM29.1409 24.3585L29.3298 23.4644L29.1349 23.4233L28.9406 23.4669L29.1409 24.3585ZM29.4093 24.3887L29.3611 25.3011L29.3627 25.3012L29.4093 24.3887ZM29.8384 24.3754L29.7391 23.4671L29.7384 23.4671L29.8384 24.3754ZM30.2065 24.3083L29.9844 23.422L29.9809 23.4229L30.2065 24.3083ZM31.0082 23.9531L30.5022 23.1922L30.5012 23.1929L31.0082 23.9531ZM31.7329 20.169C31.6106 21.8525 31.127 22.6394 30.7274 23.0126L31.9747 24.3483C32.8125 23.5659 33.4116 22.2835 33.5556 20.3013L31.7329 20.169ZM29.1409 16.0028C29.2982 16.9029 29.2976 16.903 29.2971 16.9031C29.297 16.9031 29.2965 16.9032 29.2962 16.9032C29.2956 16.9033 29.295 16.9034 29.2945 16.9035C29.2935 16.9037 29.2928 16.9038 29.2922 16.9039C29.2911 16.9041 29.2909 16.9041 29.2914 16.904C29.2926 16.9038 29.297 16.9032 29.3044 16.9022C29.3193 16.9002 29.3461 16.897 29.3829 16.8939C29.4571 16.8876 29.5688 16.8821 29.7039 16.8872C29.9806 16.8976 30.3174 16.9513 30.6286 17.1017C30.9247 17.2448 31.2161 17.4828 31.429 17.9107C31.6482 18.3515 31.8137 19.0551 31.7329 20.169L33.5556 20.3013C33.6528 18.9619 33.4695 17.9097 33.0652 17.0969C32.6546 16.2712 32.0479 15.7578 31.4237 15.4562C30.8146 15.1619 30.2087 15.0774 29.7729 15.061C29.5517 15.0526 29.3646 15.0614 29.2291 15.0729C29.1611 15.0786 29.1054 15.0851 29.0639 15.0906C29.0432 15.0933 29.0259 15.0959 29.0125 15.0979C29.0058 15.099 29 15.0999 28.9952 15.1007C28.9927 15.1011 28.9906 15.1015 28.9887 15.1018C28.9877 15.1019 28.9868 15.1021 28.986 15.1022C28.9855 15.1023 28.985 15.1024 28.9847 15.1025C28.9842 15.1026 28.9836 15.1027 29.1409 16.0028ZM21.3646 2.63611C25.0135 4.04634 26.7475 7.26842 27.5642 10.3015C27.97 11.8087 28.1367 13.2296 28.2012 14.2762C28.2333 14.7982 28.2399 15.2235 28.2385 15.5155C28.2378 15.6614 28.2351 15.7737 28.2327 15.8479C28.2315 15.885 28.2304 15.9125 28.2296 15.9299C28.2292 15.9385 28.2289 15.9447 28.2288 15.9482C28.2287 15.95 28.2286 15.9511 28.2286 15.9516C28.2286 15.9518 28.2286 15.9518 28.2286 15.9517C28.2286 15.9517 28.2286 15.9515 28.2286 15.9515C28.2286 15.9512 28.2286 15.9509 29.1409 16.0028C30.0532 16.0546 30.0532 16.0542 30.0532 16.0538C30.0532 16.0536 30.0533 16.0532 30.0533 16.0528C30.0533 16.052 30.0534 16.051 30.0534 16.0499C30.0535 16.0477 30.0537 16.0448 30.0539 16.0412C30.0542 16.034 30.0547 16.0242 30.0553 16.0118C30.0564 15.987 30.0578 15.9518 30.0593 15.9068C30.0622 15.8169 30.0652 15.6878 30.066 15.5242C30.0675 15.1971 30.0602 14.731 30.0252 14.1639C29.9555 13.0323 29.7751 11.4838 29.3288 9.82638C28.4414 6.53043 26.452 2.64303 22.0234 0.931485L21.3646 2.63611ZM16.9867 1.88836C18.7163 1.88836 20.1581 2.16941 21.3643 2.63601L22.0236 0.931582C20.5855 0.375279 18.9174 0.06086 16.9867 0.06086V1.88836ZM4.83248 16.0028C5.74476 15.9509 5.74478 15.9513 5.74479 15.9515C5.74479 15.9516 5.74481 15.9518 5.74481 15.9518C5.74481 15.9519 5.7448 15.9517 5.74478 15.9513C5.74474 15.9505 5.74465 15.9489 5.74452 15.9463C5.74427 15.9412 5.74386 15.9326 5.74334 15.9205C5.74231 15.8965 5.74087 15.8588 5.73946 15.8085C5.73665 15.7077 5.73396 15.5563 5.73494 15.3616C5.7369 14.9718 5.7535 14.4101 5.81261 13.7342C5.93129 12.3772 6.21909 10.5865 6.88691 8.81026C7.55462 7.03433 8.58725 5.31166 10.1731 4.03438C11.7455 2.76782 13.9241 1.88836 16.9867 1.88836V0.06086C13.5453 0.06086 10.9526 1.05992 9.0267 2.61113C7.1141 4.15163 5.92117 6.18601 5.17632 8.16712C4.43158 10.1479 4.11981 12.1143 3.99206 13.575C3.92796 14.308 3.90964 14.9204 3.90747 15.3524C3.90638 15.5686 3.90934 15.7401 3.91268 15.8595C3.91435 15.9192 3.91611 15.966 3.91752 15.9988C3.91822 16.0152 3.91883 16.0281 3.9193 16.0374C3.91953 16.0421 3.91973 16.0459 3.91988 16.0488C3.91996 16.0502 3.92002 16.0514 3.92008 16.0524C3.9201 16.0528 3.92014 16.0534 3.92015 16.0536C3.92018 16.0541 3.9202 16.0546 4.83248 16.0028ZM2.27222 18.9092C2.36602 18.2305 2.58106 17.8125 2.8018 17.548C3.02385 17.2819 3.29377 17.1208 3.573 17.0227C3.85817 16.9225 4.1446 16.8917 4.36723 16.8887C4.47639 16.8872 4.56426 16.8925 4.62103 16.8976C4.64925 16.9001 4.66926 16.9025 4.67979 16.9039C4.68503 16.9046 4.68787 16.905 4.68813 16.905C4.68826 16.905 4.68774 16.905 4.68656 16.9048C4.68596 16.9047 4.6852 16.9046 4.68427 16.9044C4.68381 16.9043 4.6833 16.9043 4.68275 16.9042C4.68247 16.9041 4.68203 16.904 4.68189 16.904C4.68143 16.9039 4.68096 16.9039 4.83248 16.0028C4.984 15.1017 4.98351 15.1016 4.98301 15.1015C4.98282 15.1015 4.98231 15.1014 4.98194 15.1013C4.98121 15.1012 4.98042 15.1011 4.97959 15.1009C4.97793 15.1007 4.97608 15.1004 4.97404 15.1C4.96995 15.0994 4.96511 15.0986 4.95953 15.0978C4.94837 15.0961 4.93424 15.0941 4.91732 15.0919C4.88352 15.0875 4.8384 15.0822 4.78339 15.0773C4.67372 15.0675 4.52281 15.0589 4.34258 15.0614C3.98644 15.0662 3.49172 15.1143 2.96733 15.2985C2.43701 15.4847 1.86898 15.8135 1.39866 16.3771C0.927044 16.9423 0.595318 17.6938 0.46193 18.659L2.27222 18.9092ZM2.24877 19.1145C2.25636 19.0387 2.26412 18.9694 2.27267 18.9059L0.461486 18.6622C0.449212 18.7534 0.439125 18.8449 0.430345 18.9327L2.24877 19.1145ZM2.22356 19.6303C2.22421 19.4442 2.23326 19.2719 2.2489 19.1132L0.430215 18.934C0.408675 19.1525 0.39691 19.3826 0.396071 19.624L2.22356 19.6303ZM2.22557 19.8076C2.22423 19.7463 2.22356 19.6859 2.22356 19.6271H0.396065C0.396065 19.6996 0.396886 19.7733 0.398516 19.8476L2.22557 19.8076ZM2.24073 20.1722C2.23231 20.0503 2.22767 19.9299 2.22566 19.8121L0.398428 19.8431C0.400886 19.9876 0.406653 20.14 0.41757 20.2981L2.24073 20.1722ZM3.24055 23.0214C2.83963 22.6506 2.35345 21.8661 2.24088 20.1745L0.417416 20.2958C0.550253 22.292 1.15277 23.5798 1.9997 24.3631L3.24055 23.0214ZM3.46813 23.1996C3.39207 23.1493 3.31524 23.0901 3.23853 23.0195L2.00172 24.3649C2.15108 24.5022 2.30478 24.6213 2.46074 24.7244L3.46813 23.1996ZM3.98583 23.4244C3.81983 23.3832 3.64167 23.3135 3.46573 23.198L2.46314 24.7259C2.83304 24.9686 3.20667 25.1141 3.54635 25.1982L3.98583 23.4244ZM4.23431 23.4685C4.15646 23.46 4.07319 23.4461 3.98701 23.4246L3.54516 25.1979C3.71926 25.2413 3.88437 25.2687 4.03556 25.2852L4.23431 23.4685ZM4.83248 24.3585C4.63985 23.4652 4.64004 23.4652 4.64023 23.4652C4.64029 23.4651 4.64048 23.4651 4.64061 23.4651C4.64085 23.465 4.6411 23.465 4.64134 23.4649C4.64181 23.4648 4.64228 23.4647 4.64272 23.4646C4.64362 23.4644 4.64445 23.4643 4.64522 23.4641C4.64675 23.4638 4.64803 23.4635 4.64907 23.4633C4.65114 23.4629 4.65223 23.4627 4.65238 23.4627C4.65266 23.4626 4.64922 23.4633 4.64234 23.4643C4.62851 23.4664 4.60141 23.4701 4.56334 23.4732C4.48637 23.4795 4.37002 23.4829 4.23118 23.4682L4.03869 25.2855C4.31035 25.3143 4.54277 25.3085 4.71195 25.2947C4.79695 25.2878 4.86727 25.2787 4.92009 25.2706C4.94654 25.2665 4.96873 25.2627 4.98631 25.2594C4.99511 25.2578 5.00277 25.2563 5.00924 25.255C5.01248 25.2543 5.01543 25.2537 5.01807 25.2532C5.0194 25.2529 5.02064 25.2526 5.02182 25.2524C5.0224 25.2522 5.02297 25.2521 5.02352 25.252C5.0238 25.252 5.02407 25.2519 5.02433 25.2518C5.02446 25.2518 5.02466 25.2518 5.02472 25.2518C5.02492 25.2517 5.02511 25.2517 4.83248 24.3585ZM5.63208 23.6016L5.03281 23.4669L4.63215 25.25L5.23141 25.3846L5.63208 23.6016ZM16.9865 34.666C13.9957 34.666 11.6925 33.0937 9.92312 30.9472C8.14613 28.7914 6.97834 26.1337 6.2936 24.1896L4.56989 24.7967C5.28643 26.8311 6.54057 29.7167 8.51293 32.1096C10.4929 34.5117 13.2665 36.4935 16.9865 36.4935V34.666ZM27.6794 24.1896C26.9947 26.1338 25.8269 28.7914 24.0499 30.9472C22.2806 33.0938 19.9774 34.666 16.9865 34.666V36.4935C20.7066 36.4935 23.4801 34.5117 25.4601 32.1096C27.4324 29.7168 28.6866 26.8312 29.4031 24.7968L27.6794 24.1896ZM28.9406 23.4669L28.3409 23.6017L28.7416 25.3847L29.3412 25.25L28.9406 23.4669ZM29.4576 23.4762C29.4028 23.4733 29.3618 23.4685 29.3387 23.4653C29.3272 23.4637 29.3203 23.4625 29.3186 23.4622C29.3178 23.462 29.3182 23.4621 29.3201 23.4625C29.321 23.4626 29.3223 23.4629 29.3239 23.4632C29.3247 23.4634 29.3256 23.4636 29.3266 23.4638C29.3271 23.4639 29.3276 23.464 29.3281 23.4641C29.3284 23.4641 29.3287 23.4642 29.329 23.4643C29.3291 23.4643 29.3292 23.4643 29.3294 23.4644C29.3295 23.4644 29.3296 23.4644 29.3296 23.4644C29.3297 23.4644 29.3298 23.4644 29.1409 24.3585C28.952 25.2525 28.9521 25.2525 28.9522 25.2525C28.9522 25.2525 28.9523 25.2525 28.9524 25.2526C28.9526 25.2526 28.9527 25.2526 28.9529 25.2526C28.9532 25.2527 28.9535 25.2528 28.9538 25.2528C28.9544 25.253 28.9551 25.2531 28.9558 25.2533C28.9572 25.2535 28.9587 25.2539 28.9603 25.2542C28.9634 25.2548 28.967 25.2555 28.971 25.2563C28.9791 25.2579 28.9887 25.2597 29 25.2617C29.0225 25.2657 29.0514 25.2704 29.0861 25.2752C29.1553 25.2849 29.2486 25.2952 29.3611 25.3011L29.4576 23.4762ZM29.7384 23.4671C29.6256 23.4796 29.5286 23.4798 29.456 23.4761L29.3627 25.3012C29.5206 25.3093 29.7166 25.3081 29.9384 25.2837L29.7384 23.4671ZM29.9809 23.4229C29.8937 23.4451 29.8125 23.459 29.7391 23.4671L29.9378 25.2837C30.0934 25.2667 30.2591 25.2379 30.4322 25.1938L29.9809 23.4229ZM30.5012 23.1929C30.3248 23.3106 30.1474 23.3811 29.9844 23.422L30.4287 25.1947C30.7713 25.1088 31.1458 24.9597 31.5152 24.7133L30.5012 23.1929ZM30.7234 23.0163C30.651 23.0848 30.5768 23.1427 30.5022 23.1922L31.5141 24.714C31.6701 24.6103 31.8265 24.4883 31.9786 24.3445L30.7234 23.0163Z" fill="black" mask="url(#path-1-inside-1_1108_18225)"/>
<path d="M17.1114 28.2699C14.3141 28.2699 12.246 27.1429 12.1178 27.0706C11.9834 26.9961 11.9237 26.8012 11.9851 26.6358C12.0457 26.4704 12.2041 26.397 12.3386 26.4715C12.384 26.4967 16.9717 28.9906 21.6377 26.4704C21.773 26.3981 21.9306 26.4726 21.9894 26.6391C22.049 26.8055 21.9876 26.9994 21.8523 27.0717C20.1892 27.9698 18.5537 28.2699 17.1114 28.2699Z" fill="black"/>
</g>
<path d="M2.76672 54.7178H3.66619V48.7481H3.69831L6.16651 54.7178H6.98031L9.44851 48.7481H9.48063V54.7178H10.3801V46.992H9.26647L6.58947 53.5024H6.55735L3.88035 46.992H2.76672V54.7178ZM14.0422 54.8249C15.5788 54.8249 16.6175 53.7112 16.6175 51.9337V51.923C16.6175 50.1455 15.5735 49.0425 14.0369 49.0425C12.5003 49.0425 11.4616 50.1508 11.4616 51.923V51.9337C11.4616 53.7059 12.4949 54.8249 14.0422 54.8249ZM14.0476 54.0003C13.0625 54.0003 12.4146 53.2454 12.4146 51.9337V51.923C12.4146 50.622 13.0678 49.8671 14.0369 49.8671C15.022 49.8671 15.6645 50.6166 15.6645 51.923V51.9337C15.6645 53.2401 15.0274 54.0003 14.0476 54.0003ZM19.4605 54.8249C20.3064 54.8249 20.8739 54.4447 21.1738 53.9254H21.1952V54.7178H22.1268V49.1496H21.1952V52.4263C21.1952 53.3739 20.6223 54.0003 19.7442 54.0003C18.8876 54.0003 18.4646 53.5024 18.4646 52.5976V49.1496H17.533V52.7636C17.533 54.0325 18.2398 54.8249 19.4605 54.8249ZM25.1518 54.8249C25.3338 54.8249 25.5319 54.8034 25.6497 54.7874V54.0325C25.5694 54.0378 25.4623 54.0539 25.3499 54.0539C24.852 54.0539 24.5896 53.8879 24.5896 53.2936V49.9206H25.6497V49.1496H24.5896V47.6451H23.6259V49.1496H22.8121V49.9206H23.6259V53.299C23.6259 54.3644 24.1292 54.8249 25.1518 54.8249ZM26.6991 54.7178H27.6307V51.4679C27.6307 50.5202 28.2036 49.8671 29.0656 49.8671C29.9329 49.8671 30.4469 50.4613 30.4469 51.4679V54.7178H31.3785V51.3073C31.3785 49.9581 30.57 49.0425 29.3868 49.0425C28.5569 49.0425 27.9519 49.412 27.6521 50.0384H27.6307V46.992H26.6991V54.7178Z" fill="#333333"/>
<defs>
<clipPath id="clip0_1108_18225">
<rect width="31.9812" height="34.7225" fill="white" transform="translate(0.99646 0.85791)"/>
</clipPath>
</defs>
</svg>
