<?xml version="1.0" encoding="UTF-8"?><svg id="Female_hair_13" xmlns="http://www.w3.org/2000/svg" viewBox="0 0 800 800"><defs><style>.cls-1,.cls-2{stroke:#000;stroke-miterlimit:10;}.cls-2{stroke-width:1.1px;}</style></defs><path class="cls-1" d="M609.88,331.31c10.31,24.44-10.37,38.63-10.37,38.63-14.02-15.73-41.45-10.36-41.45-10.36,0,0,10.6-18.26-2.36-23.86-12.96-5.59-9.72-35.63-9.72-35.63,0,0-37.99-.29-27.09-38.28,0,0-31.22,3.24-26.5-35.63,0,0-29.45,.59-26.21-24.15,0,0-28.57,6.18-29.45-24.74,0,0-29.44,7-34.66-17.87-5.4,24.57-38.08,15.52-38.08,15.52-.88,30.92-29.44,24.73-29.44,24.73,3.24,24.74-26.21,24.15-26.21,24.15,4.71,38.87-26.51,35.63-26.51,35.63,10.9,37.99-27.09,38.29-27.09,38.29,0,0,3.24,30.03-9.72,35.63-10.01,3.53-8.46,24.73-8.46,24.73,0,0-27.2-4.62-40.38,18.29,0,0-19.7-15.71-6-42.87,0,0-27.11-26.07-1.71-43.07,0,0-15.24-26.28,9.93-40.42,0,0-7.28-29.37,20.77-36.66,0,0-4.19-40.13,27.62-40.57,0,0,10.82-32.47,38.65-23.63,0,0,14.14-28.33,47.88-18.06,13.48-27.05,44.37-11.61,44.37-11.61,14.57-11.7,26.5,2.65,26.5,2.65,5.3-11.48,24.59-1.69,24.59-1.69,25.32-18.26,43.58,6.77,43.58,6.77,24.15-16.49,41.52,12.67,41.52,12.67,34.16-4.42,39.76,21.49,39.76,21.49,27.38,1.48,29.45,36.22,29.45,36.22,24.14,9.13,15.9,43,15.9,43,27.68,12.66,12.37,48.88,12.37,48.88,15.01,18.55-1.48,41.82-1.48,41.82Z"/><g><path class="cls-2" d="M317.62,158.8s26.17-24.08,3.38-43.61c0,0,12.02-12.8,5.7-31.01-6.32-18.21-28.2-10.96-28.2-10.96,0,0,4.32-23.66-13.31-32.91-17.63-9.25-31.39,4.67-31.39,4.67,0,0-3.32-22.14-23.98-27.14-20.66-5-29.27,19.21-29.27,19.21,0,0-13.38-15.99-27.62-10.25-14.25,5.74-7.61,30.49-7.61,30.49,0,0-21.08-4.06-34.55,13.47-13.47,17.53,5.22,32.43,5.22,32.43,0,0-28.98,.03-31.81,31.65s29.49,30.62,29.49,30.62c0,0-22.24,10.8-13.99,32.46,8.25,21.66,32.55,13.02,32.55,13.02,0,0-11.18,27.2,12.96,39.71s42.58-9.09,42.58-9.09c0,0,25.11,12.6,40.68,.16s8.41-28.78,8.41-28.78c0,0,21.63,14.86,38.39,3.51s6.51-29.3,6.51-29.3c0,0,30.23-2.84,15.86-28.36Z"/><path class="cls-2" d="M483.79,163.85s-27.48-22.57-5.83-43.35c0,0-12.72-12.1-7.44-30.64,5.29-18.54,27.54-12.52,27.54-12.52,0,0-5.64-23.38,11.44-33.6,17.08-10.23,31.61,2.9,31.61,2.9,0,0,2.07-22.29,22.42-28.44,20.35-6.15,30.3,17.54,30.3,17.54,0,0,12.46-16.71,27-11.78,14.55,4.93,9.31,30.02,9.31,30.02,0,0,20.82-5.24,35.25,11.51,14.44,16.75-3.39,32.67-3.39,32.67,0,0,28.93-1.59,33.54,29.82,4.61,31.41-27.73,32.23-27.73,32.23,0,0,22.81,9.53,15.79,31.62-7.02,22.09-31.77,14.83-31.77,14.83,0,0,12.69,26.53-10.71,40.37-23.4,13.84-43.02-6.69-43.02-6.69,0,0-24.36,13.99-40.6,2.44-16.24-11.55-10.01-28.27-10.01-28.27,0,0-20.76,16.05-38.13,5.66-17.37-10.39-8.15-28.89-8.15-28.89,0,0-30.35-1.14-17.43-27.43Z"/></g></svg>