<svg width="55" height="58" viewBox="0 0 55 58" fill="none" xmlns="http://www.w3.org/2000/svg">
<g clip-path="url(#clip0_1108_18193)">
<mask id="path-1-inside-1_1108_18193" fill="white">
<path fill-rule="evenodd" clip-rule="evenodd" d="M41.3887 23.6228C42.0075 23.045 42.5488 22.0104 42.6819 20.1775C43.0382 15.2708 39.1786 15.9451 39.1786 15.9451C39.1786 15.9451 39.8092 4.84795 31.7317 1.72618C30.4095 1.21473 28.8545 0.916992 27.0244 0.916992C14.0165 0.916992 14.8702 15.9451 14.8702 15.9451C14.8702 15.9451 11.8592 15.4389 11.4048 18.7264C11.3944 18.8038 11.3855 18.8842 11.3773 18.966C11.3587 19.1546 11.3483 19.3558 11.3475 19.5695C11.3475 19.6351 11.3483 19.7022 11.3498 19.77C11.352 19.9012 11.3572 20.0375 11.3669 20.1775C11.4896 22.0214 12.0339 23.0576 12.6578 23.6346C12.7709 23.7385 12.8861 23.8277 13.0022 23.9044C13.2751 24.0834 13.551 24.191 13.8038 24.2537C13.9339 24.2861 14.0581 24.3067 14.1727 24.3193C14.5832 24.3627 14.8702 24.3008 14.8702 24.3008L15.4697 24.4355C16.8709 28.414 20.3135 35.5224 27.0245 35.5224C33.7356 35.5224 37.1782 28.414 38.5794 24.4355L39.1786 24.3008C39.1786 24.3008 39.2797 24.3222 39.4471 24.3311C39.5623 24.3369 39.7088 24.3362 39.8762 24.3178C39.9907 24.3053 40.1141 24.2839 40.2443 24.2507C40.4971 24.1873 40.773 24.0775 41.0459 23.8955C41.1612 23.8189 41.2764 23.729 41.3887 23.6228Z"/>
</mask>
<path fill-rule="evenodd" clip-rule="evenodd" d="M41.3887 23.6228C42.0075 23.045 42.5488 22.0104 42.6819 20.1775C43.0382 15.2708 39.1786 15.9451 39.1786 15.9451C39.1786 15.9451 39.8092 4.84795 31.7317 1.72618C30.4095 1.21473 28.8545 0.916992 27.0244 0.916992C14.0165 0.916992 14.8702 15.9451 14.8702 15.9451C14.8702 15.9451 11.8592 15.4389 11.4048 18.7264C11.3944 18.8038 11.3855 18.8842 11.3773 18.966C11.3587 19.1546 11.3483 19.3558 11.3475 19.5695C11.3475 19.6351 11.3483 19.7022 11.3498 19.77C11.352 19.9012 11.3572 20.0375 11.3669 20.1775C11.4896 22.0214 12.0339 23.0576 12.6578 23.6346C12.7709 23.7385 12.8861 23.8277 13.0022 23.9044C13.2751 24.0834 13.551 24.191 13.8038 24.2537C13.9339 24.2861 14.0581 24.3067 14.1727 24.3193C14.5832 24.3627 14.8702 24.3008 14.8702 24.3008L15.4697 24.4355C16.8709 28.414 20.3135 35.5224 27.0245 35.5224C33.7356 35.5224 37.1782 28.414 38.5794 24.4355L39.1786 24.3008C39.1786 24.3008 39.2797 24.3222 39.4471 24.3311C39.5623 24.3369 39.7088 24.3362 39.8762 24.3178C39.9907 24.3053 40.1141 24.2839 40.2443 24.2507C40.4971 24.1873 40.773 24.0775 41.0459 23.8955C41.1612 23.8189 41.2764 23.729 41.3887 23.6228Z" fill="white"/>
<path d="M42.6819 20.1775L43.5933 20.2437L43.5933 20.2437L42.6819 20.1775ZM41.3887 23.6228L40.7651 22.955L40.7611 22.9587L41.3887 23.6228ZM39.1786 15.9451L38.2663 15.8933L38.201 17.0435L39.3359 16.8453L39.1786 15.9451ZM31.7317 1.72618L31.4021 2.57839L31.4023 2.57849L31.7317 1.72618ZM14.8702 15.9451L14.7187 16.8462L15.8474 17.036L15.7825 15.8933L14.8702 15.9451ZM11.4048 18.7264L10.4996 18.6013L10.4992 18.6046L11.4048 18.7264ZM11.3773 18.966L10.4681 18.875L10.4679 18.8764L11.3773 18.966ZM11.3475 19.5695L10.4338 19.5664V19.5695H11.3475ZM11.3498 19.77L12.2634 19.7544L12.2633 19.7499L11.3498 19.77ZM11.3669 20.1775L12.2786 20.1169L12.2784 20.1146L11.3669 20.1775ZM12.6578 23.6346L12.0374 24.3055L12.0394 24.3073L12.6578 23.6346ZM13.0022 23.9044L12.4985 24.6667L12.5009 24.6683L13.0022 23.9044ZM13.8038 24.2537L14.0247 23.367L14.0235 23.3667L13.8038 24.2537ZM14.1727 24.3193L14.0733 25.2276L14.0764 25.2279L14.1727 24.3193ZM14.8702 24.3008L15.0705 23.4093L14.8742 23.3652L14.6776 23.4076L14.8702 24.3008ZM15.4697 24.4355L16.3315 24.132L16.1635 23.6549L15.67 23.544L15.4697 24.4355ZM38.5794 24.4355L38.3791 23.544L37.8856 23.6549L37.7176 24.1319L38.5794 24.4355ZM39.1786 24.3008L39.3675 23.4068L39.1726 23.3656L38.9783 23.4093L39.1786 24.3008ZM39.4471 24.3311L39.3988 25.2435L39.4004 25.2436L39.4471 24.3311ZM39.8762 24.3178L39.7768 23.4095L39.7761 23.4095L39.8762 24.3178ZM40.2443 24.2507L40.0221 23.3644L40.0186 23.3653L40.2443 24.2507ZM41.0459 23.8955L40.54 23.1346L40.5389 23.1353L41.0459 23.8955ZM41.7706 20.1113C41.6483 21.7949 41.1647 22.5818 40.7651 22.955L42.0124 24.2907C42.8502 23.5083 43.4493 22.2259 43.5933 20.2437L41.7706 20.1113ZM39.1786 15.9451C39.3359 16.8453 39.3354 16.8454 39.3348 16.8454C39.3347 16.8455 39.3342 16.8456 39.3339 16.8456C39.3333 16.8457 39.3327 16.8458 39.3323 16.8459C39.3313 16.8461 39.3305 16.8462 39.3299 16.8463C39.3288 16.8465 39.3286 16.8465 39.3291 16.8464C39.3303 16.8462 39.3347 16.8456 39.3421 16.8446C39.357 16.8426 39.3838 16.8394 39.4207 16.8363C39.4949 16.83 39.6065 16.8245 39.7416 16.8296C40.0184 16.84 40.3551 16.8937 40.6663 17.044C40.9625 17.1872 41.2539 17.4252 41.4667 17.8531C41.6859 18.2939 41.8515 18.9974 41.7706 20.1114L43.5933 20.2437C43.6905 18.9043 43.5072 17.852 43.103 17.0393C42.6923 16.2136 42.0856 15.7002 41.4614 15.3986C40.8523 15.1042 40.2464 15.0198 39.8106 15.0034C39.5894 14.995 39.4023 15.0038 39.2668 15.0152C39.1988 15.021 39.1431 15.0275 39.1016 15.033C39.0809 15.0357 39.0637 15.0382 39.0502 15.0403C39.0435 15.0414 39.0377 15.0423 39.0329 15.0431C39.0305 15.0435 39.0283 15.0438 39.0264 15.0442C39.0254 15.0443 39.0245 15.0445 39.0237 15.0446C39.0233 15.0447 39.0227 15.0448 39.0225 15.0448C39.0219 15.0449 39.0213 15.045 39.1786 15.9451ZM31.4023 2.57849C35.0513 3.98872 36.7853 7.21081 37.6019 10.2439C38.0077 11.751 38.1744 13.1719 38.2389 14.2186C38.2711 14.7406 38.2776 15.1659 38.2762 15.4579C38.2755 15.6038 38.2728 15.7161 38.2704 15.7903C38.2693 15.8274 38.2681 15.8549 38.2673 15.8722C38.267 15.8809 38.2667 15.8871 38.2665 15.8906C38.2664 15.8924 38.2663 15.8935 38.2663 15.8939C38.2663 15.8942 38.2663 15.8942 38.2663 15.8941C38.2663 15.8941 38.2663 15.8939 38.2663 15.8938C38.2663 15.8936 38.2663 15.8933 39.1786 15.9451C40.0909 15.997 40.0909 15.9966 40.0909 15.9962C40.0909 15.996 40.091 15.9955 40.091 15.9952C40.091 15.9944 40.0911 15.9934 40.0911 15.9923C40.0913 15.9901 40.0914 15.9872 40.0916 15.9836C40.092 15.9764 40.0924 15.9666 40.093 15.9542C40.0941 15.9294 40.0955 15.8942 40.097 15.8492C40.0999 15.7593 40.1029 15.6302 40.1037 15.4665C40.1052 15.1395 40.0979 14.6734 40.063 14.1063C39.9932 12.9746 39.8128 11.4261 39.3666 9.76877C38.4791 6.47281 36.4897 2.58541 32.0611 0.873868L31.4023 2.57849ZM27.0244 1.83074C28.754 1.83074 30.1958 2.11179 31.4021 2.57839L32.0614 0.873965C30.6232 0.317661 28.9551 0.00324285 27.0244 0.00324285V1.83074ZM14.8702 15.9451C15.7825 15.8933 15.7825 15.8937 15.7825 15.8939C15.7825 15.8939 15.7825 15.8942 15.7825 15.8942C15.7825 15.8942 15.7825 15.8941 15.7825 15.8937C15.7825 15.8929 15.7824 15.8912 15.7822 15.8887C15.782 15.8836 15.7816 15.875 15.7811 15.8629C15.78 15.8389 15.7786 15.8012 15.7772 15.7508C15.7744 15.6501 15.7717 15.4987 15.7727 15.304C15.7746 14.9142 15.7912 14.3525 15.8503 13.6766C15.969 12.3196 16.2568 10.5289 16.9246 8.75264C17.5923 6.97671 18.625 5.25405 20.2108 3.97677C21.7833 2.7102 23.9618 1.83074 27.0244 1.83074V0.00324285C23.583 0.00324285 20.9903 1.0023 19.0644 2.55352C17.1518 4.09402 15.9589 6.12839 15.214 8.1095C14.4693 10.0903 14.1575 12.0567 14.0298 13.5174C13.9657 14.2504 13.9474 14.8628 13.9452 15.2948C13.9441 15.511 13.9471 15.6825 13.9504 15.8019C13.9521 15.8616 13.9538 15.9083 13.9552 15.9412C13.9559 15.9576 13.9566 15.9705 13.957 15.9798C13.9573 15.9845 13.9574 15.9883 13.9576 15.9911C13.9577 15.9926 13.9577 15.9938 13.9578 15.9947C13.9578 15.9952 13.9579 15.9958 13.9579 15.996C13.9579 15.9965 13.9579 15.997 14.8702 15.9451ZM12.3099 18.8515C12.4037 18.1729 12.6188 17.7549 12.8395 17.4904C13.0616 17.2243 13.3315 17.0631 13.6107 16.9651C13.8959 16.8649 14.1823 16.8341 14.405 16.8311C14.5141 16.8296 14.602 16.8349 14.6588 16.8399C14.687 16.8425 14.707 16.8449 14.7175 16.8463C14.7228 16.8469 14.7256 16.8474 14.7259 16.8474C14.726 16.8474 14.7255 16.8474 14.7243 16.8472C14.7237 16.8471 14.7229 16.8469 14.722 16.8468C14.7215 16.8467 14.721 16.8466 14.7205 16.8465C14.7202 16.8465 14.7197 16.8464 14.7196 16.8464C14.7192 16.8463 14.7187 16.8462 14.8702 15.9451C15.0217 15.044 15.0212 15.044 15.0207 15.0439C15.0205 15.0439 15.02 15.0438 15.0197 15.0437C15.0189 15.0436 15.0181 15.0435 15.0173 15.0433C15.0157 15.043 15.0138 15.0427 15.0118 15.0424C15.0077 15.0418 15.0028 15.041 14.9972 15.0402C14.9861 15.0385 14.972 15.0365 14.955 15.0343C14.9212 15.0298 14.8761 15.0246 14.8211 15.0197C14.7114 15.0099 14.5605 15.0013 14.3803 15.0037C14.0242 15.0085 13.5294 15.0566 13.0051 15.2408C12.4747 15.4271 11.9067 15.7559 11.4364 16.3195C10.9648 16.8847 10.633 17.6362 10.4997 18.6013L12.3099 18.8515ZM12.2865 19.0569C12.2941 18.9811 12.3018 18.9118 12.3104 18.8483L10.4992 18.6046C10.4869 18.6958 10.4768 18.7872 10.4681 18.875L12.2865 19.0569ZM12.2613 19.5727C12.2619 19.3866 12.271 19.2143 12.2866 19.0556L10.4679 18.8764C10.4464 19.0949 10.4346 19.325 10.4338 19.5664L12.2613 19.5727ZM12.2633 19.7499C12.2619 19.6886 12.2613 19.6283 12.2613 19.5695H10.4338C10.4338 19.642 10.4346 19.7157 10.4362 19.79L12.2633 19.7499ZM12.2784 20.1146C12.27 19.9927 12.2654 19.8723 12.2634 19.7544L10.4361 19.7855C10.4386 19.93 10.4444 20.0824 10.4553 20.2405L12.2784 20.1146ZM13.2783 22.9638C12.8773 22.593 12.3912 21.8084 12.2786 20.1169L10.4551 20.2382C10.588 22.2344 11.1905 23.5222 12.0374 24.3055L13.2783 22.9638ZM13.5058 23.142C13.4298 23.0917 13.353 23.0324 13.2762 22.9619L12.0394 24.3073C12.1888 24.4446 12.3425 24.5637 12.4985 24.6667L13.5058 23.142ZM14.0235 23.3667C13.8575 23.3256 13.6794 23.2558 13.5034 23.1404L12.5009 24.6683C12.8708 24.911 13.2444 25.0564 13.5841 25.1406L14.0235 23.3667ZM14.272 23.4109C14.1942 23.4024 14.1109 23.3885 14.0247 23.367L13.5829 25.1403C13.757 25.1837 13.9221 25.2111 14.0733 25.2276L14.272 23.4109ZM14.8702 24.3008C14.6776 23.4076 14.6778 23.4076 14.678 23.4075C14.678 23.4075 14.6782 23.4075 14.6783 23.4075C14.6786 23.4074 14.6788 23.4074 14.6791 23.4073C14.6795 23.4072 14.68 23.4071 14.6804 23.407C14.6813 23.4068 14.6822 23.4066 14.6829 23.4065C14.6845 23.4062 14.6858 23.4059 14.6868 23.4057C14.6889 23.4053 14.69 23.4051 14.6901 23.405C14.6904 23.405 14.6869 23.4056 14.6801 23.4067C14.6662 23.4088 14.6391 23.4125 14.6011 23.4156C14.5241 23.4219 14.4077 23.4253 14.2689 23.4106L14.0764 25.2279C14.3481 25.2567 14.5805 25.2509 14.7497 25.2371C14.8347 25.2301 14.905 25.2211 14.9578 25.213C14.9843 25.2089 15.0064 25.205 15.024 25.2018C15.0328 25.2001 15.0405 25.1987 15.047 25.1973C15.0502 25.1967 15.0531 25.1961 15.0558 25.1955C15.0571 25.1953 15.0584 25.195 15.0595 25.1948C15.0601 25.1946 15.0607 25.1945 15.0612 25.1944C15.0615 25.1943 15.0618 25.1943 15.0621 25.1942C15.0622 25.1942 15.0624 25.1941 15.0624 25.1941C15.0626 25.1941 15.0628 25.194 14.8702 24.3008ZM15.67 23.544L15.0705 23.4093L14.6699 25.1924L15.2694 25.3271L15.67 23.544ZM27.0245 34.6086C24.0336 34.6086 21.7304 33.0363 19.961 30.8897C18.184 28.7338 17.0163 26.0761 16.3315 24.132L14.6078 24.7391C15.3244 26.7735 16.5785 29.6592 18.5508 32.0521C20.5308 34.4542 23.3044 36.4361 27.0245 36.4361V34.6086ZM37.7176 24.1319C37.0328 26.076 35.8651 28.7338 34.0881 30.8897C32.3187 33.0363 30.0155 34.6086 27.0245 34.6086V36.4361C30.7447 36.4361 33.5183 34.4542 35.4983 32.052C37.4706 29.6591 38.7248 26.7734 39.4413 24.739L37.7176 24.1319ZM38.9783 23.4093L38.3791 23.544L38.7797 25.327L39.3789 25.1924L38.9783 23.4093ZM39.4953 23.4186C39.4405 23.4157 39.3996 23.4109 39.3764 23.4077C39.3649 23.406 39.3581 23.4049 39.3563 23.4046C39.3555 23.4044 39.356 23.4045 39.3578 23.4048C39.3587 23.405 39.36 23.4053 39.3616 23.4056C39.3624 23.4058 39.3633 23.4059 39.3643 23.4062C39.3648 23.4063 39.3653 23.4064 39.3658 23.4065C39.3661 23.4065 39.3664 23.4066 39.3667 23.4066C39.3668 23.4067 39.367 23.4067 39.3671 23.4067C39.3672 23.4068 39.3673 23.4068 39.3673 23.4068C39.3674 23.4068 39.3675 23.4068 39.1786 24.3008C38.9897 25.1948 38.9898 25.1949 38.9899 25.1949C38.9899 25.1949 38.9901 25.1949 38.9901 25.1949C38.9903 25.195 38.9904 25.195 38.9906 25.195C38.9909 25.1951 38.9912 25.1952 38.9915 25.1952C38.9922 25.1954 38.9928 25.1955 38.9935 25.1956C38.9949 25.1959 38.9964 25.1962 38.998 25.1966C39.0012 25.1972 39.0048 25.1979 39.0088 25.1987C39.0168 25.2003 39.0265 25.2021 39.0377 25.2041C39.0602 25.208 39.0891 25.2128 39.1238 25.2176C39.193 25.2273 39.2863 25.2376 39.3988 25.2435L39.4953 23.4186ZM39.7761 23.4095C39.6634 23.4219 39.5663 23.4222 39.4937 23.4185L39.4004 25.2436C39.5584 25.2517 39.7543 25.2505 39.9762 25.226L39.7761 23.4095ZM40.0186 23.3653C39.9314 23.3875 39.8502 23.4014 39.7768 23.4095L39.9755 25.2261C40.1311 25.2091 40.2968 25.1803 40.4699 25.1362L40.0186 23.3653ZM40.5389 23.1353C40.3625 23.253 40.1852 23.3235 40.0221 23.3644L40.4664 25.1371C40.809 25.0512 41.1835 24.9021 41.5529 24.6557L40.5389 23.1353ZM40.7611 22.9587C40.6887 23.0272 40.6145 23.0851 40.54 23.1346L41.5519 24.6564C41.7079 24.5527 41.8642 24.4307 42.0164 24.2869L40.7611 22.9587Z" fill="black" mask="url(#path-1-inside-1_1108_18193)"/>
<path d="M0.845311 54.6597H1.80903V51.3134H5.23024V50.4568H1.80903V47.8012H5.53541V46.9338H0.845311V54.6597ZM7.74662 54.7667C8.49082 54.7667 9.16007 54.3652 9.48667 53.7548H9.50808V54.6597H10.4397V50.8101C10.4397 49.6965 9.61516 48.9844 8.29808 48.9844C6.98635 48.9844 6.1886 49.7233 6.10829 50.6388L6.10294 50.6977H7.00241L7.01312 50.6495C7.1202 50.1516 7.56993 49.8089 8.28737 49.8089C9.0637 49.8089 9.50808 50.2212 9.50808 50.9012V51.367L7.91259 51.458C6.63298 51.5329 5.89413 52.1272 5.89413 53.0749V53.0856C5.89413 54.0975 6.63834 54.7667 7.74662 54.7667ZM6.84714 53.0856V53.0749C6.84714 52.5555 7.27546 52.2236 8.01967 52.1808L9.50808 52.0897V52.5448C9.50808 53.3533 8.83348 53.9583 7.95542 53.9583C7.28617 53.9583 6.84714 53.621 6.84714 53.0856ZM13.9305 54.7667C15.1887 54.7667 16.1042 53.9476 16.2541 52.8875L16.2595 52.85H15.3439L15.3332 52.8928C15.178 53.5139 14.6908 53.9422 13.9305 53.9422C12.9668 53.9422 12.3029 53.1766 12.3029 51.8809V51.8756C12.3029 50.612 12.9507 49.8089 13.9198 49.8089C14.7389 49.8089 15.1887 50.3015 15.3279 50.8583L15.3386 50.9012H16.2488L16.2434 50.8583C16.1256 49.9053 15.3065 48.9844 13.9198 48.9844C12.3725 48.9844 11.3499 50.1088 11.3499 51.8649V51.8702C11.3499 53.6424 12.3511 54.7667 13.9305 54.7667ZM19.4076 54.7667C20.623 54.7667 21.5332 54.0386 21.7152 53.1177L21.7259 53.0642H20.8104L20.7943 53.1124C20.6337 53.5889 20.1358 53.9422 19.429 53.9422C18.4386 53.9422 17.8068 53.273 17.7854 52.1272H21.7955V51.7846C21.7955 50.1141 20.8693 48.9844 19.3487 48.9844C17.8282 48.9844 16.8431 50.1677 16.8431 51.8917V51.897C16.8431 53.6478 17.8068 54.7667 19.4076 54.7667ZM19.3434 49.8089C20.1572 49.8089 20.7568 50.3176 20.8479 51.3991H17.8014C17.9032 50.3604 18.5349 49.8089 19.3434 49.8089ZM27.6581 54.7882C29.425 54.7882 30.5118 53.9208 30.5118 52.5502V52.5448C30.5118 51.367 29.8479 50.7245 28.2631 50.3765L27.4065 50.1891C26.3999 49.9696 25.9342 49.5734 25.9342 48.9416V48.9362C25.9342 48.192 26.6088 47.6995 27.6421 47.6941C28.6219 47.6941 29.2804 48.1599 29.3982 48.947L29.4089 49.0219H30.3726L30.3673 48.9416C30.2816 47.6781 29.1787 46.8054 27.6688 46.8054C26.0787 46.8054 24.9544 47.6941 24.949 48.963V48.9684C24.949 50.0981 25.6557 50.778 27.1656 51.11L28.0222 51.2974C29.0823 51.5329 29.5267 51.9131 29.5267 52.593V52.5984C29.5267 53.3961 28.8253 53.8994 27.7117 53.8994C26.5927 53.8994 25.8431 53.4229 25.7307 52.6466L25.72 52.5716H24.7563L24.7616 52.6466C24.858 53.969 25.9877 54.7882 27.6581 54.7882ZM31.5451 54.6597H32.4767V51.4098C32.4767 50.4621 33.0496 49.8089 33.9116 49.8089C34.779 49.8089 35.2929 50.4032 35.2929 51.4098V54.6597H36.2245V51.2492C36.2245 49.9 35.4161 48.9844 34.2329 48.9844C33.403 48.9844 32.798 49.3539 32.4982 49.9803H32.4767V46.9338H31.5451V54.6597ZM39.0354 54.7667C39.7796 54.7667 40.4488 54.3652 40.7754 53.7548H40.7969V54.6597H41.7285V50.8101C41.7285 49.6965 40.9039 48.9844 39.5869 48.9844C38.2751 48.9844 37.4774 49.7233 37.3971 50.6388L37.3917 50.6977H38.2912L38.3019 50.6495C38.409 50.1516 38.8587 49.8089 39.5761 49.8089C40.3525 49.8089 40.7969 50.2212 40.7969 50.9012V51.367L39.2014 51.458C37.9218 51.5329 37.1829 52.1272 37.1829 53.0749V53.0856C37.1829 54.0975 37.9271 54.7667 39.0354 54.7667ZM38.1359 53.0856V53.0749C38.1359 52.5555 38.5642 52.2236 39.3084 52.1808L40.7969 52.0897V52.5448C40.7969 53.3533 40.1223 53.9583 39.2442 53.9583C38.5749 53.9583 38.1359 53.621 38.1359 53.0856ZM42.9117 56.5336H43.8433V53.7281H43.8647C44.2127 54.3706 44.8605 54.7667 45.6476 54.7667C47.045 54.7667 47.998 53.6371 47.998 51.8809V51.8756C47.998 50.1195 47.0557 48.9844 45.6315 48.9844C44.8338 48.9844 44.2127 49.386 43.8647 50.0338H43.8433V49.0915H42.9117V56.5336ZM45.4495 53.9422C44.5125 53.9422 43.8379 53.1231 43.8379 51.8809V51.8756C43.8379 50.6281 44.5072 49.8089 45.4495 49.8089C46.4346 49.8089 47.045 50.596 47.045 51.8756V51.8809C47.045 53.1498 46.4346 53.9422 45.4495 53.9422ZM51.2318 54.7667C52.4472 54.7667 53.3573 54.0386 53.5394 53.1177L53.5501 53.0642H52.6345L52.6185 53.1124C52.4579 53.5889 51.9599 53.9422 51.2532 53.9422C50.2627 53.9422 49.6309 53.273 49.6095 52.1272H53.6197V51.7846C53.6197 50.1141 52.6934 48.9844 51.1729 48.9844C49.6524 48.9844 48.6672 50.1677 48.6672 51.8917V51.897C48.6672 53.6478 49.6309 54.7667 51.2318 54.7667ZM51.1675 49.8089C51.9814 49.8089 52.581 50.3176 52.672 51.3991H49.6256C49.7273 50.3604 50.3591 49.8089 51.1675 49.8089Z" fill="#333333"/>
</g>
<defs>
<clipPath id="clip0_1108_18193">
<rect width="54" height="56.7427" fill="white" transform="translate(0.0263672 0.916992)"/>
</clipPath>
</defs>
</svg>
