<svg width="57" height="58" viewBox="0 0 57 58" fill="none" xmlns="http://www.w3.org/2000/svg">
<g clip-path="url(#clip0_1108_18255)">
<rect x="11.3452" y="1.40414" width="33.8087" height="33.8087" rx="16.9044" fill="white" stroke="black" stroke-width="0.913749"/>
<mask id="path-2-inside-1_1108_18255" fill="white">
<path fill-rule="evenodd" clip-rule="evenodd" d="M36.2039 21.0379C36.5454 20.7191 36.8442 20.148 36.9176 19.1365C37.1142 16.4286 34.9842 16.8007 34.9842 16.8007C34.9842 16.8007 35.3322 10.6763 30.8743 8.95342C30.1446 8.67115 29.2864 8.50684 28.2764 8.50684C21.0975 8.50684 21.5686 16.8007 21.5686 16.8007C21.5686 16.8007 19.9069 16.5213 19.6561 18.3357C19.6504 18.3784 19.6454 18.4227 19.6409 18.4679C19.6307 18.572 19.6249 18.683 19.6245 18.801C19.6245 18.8372 19.6249 18.8742 19.6257 18.9116C19.627 18.984 19.6298 19.0592 19.6352 19.1365C19.7029 20.1541 20.0033 20.726 20.3477 21.0444C20.41 21.1018 20.4737 21.151 20.5377 21.1933C20.6883 21.2921 20.8406 21.3515 20.9801 21.3861C21.0519 21.404 21.1205 21.4154 21.1837 21.4223C21.4102 21.4463 21.5686 21.4121 21.5686 21.4121L21.8991 21.4864C22.6724 23.6821 24.5723 27.605 28.276 27.605C31.9797 27.605 33.8796 23.6823 34.653 21.4865L34.9842 21.4121C34.9842 21.4121 35.04 21.4239 35.1323 21.4288C35.1959 21.432 35.2768 21.4316 35.3691 21.4215C35.4323 21.4146 35.5005 21.4028 35.5723 21.3845C35.7118 21.3495 35.8641 21.2889 36.0147 21.1884C36.0783 21.1461 36.1419 21.0965 36.2039 21.0379Z"/>
</mask>
<path fill-rule="evenodd" clip-rule="evenodd" d="M36.2039 21.0379C36.5454 20.7191 36.8442 20.148 36.9176 19.1365C37.1142 16.4286 34.9842 16.8007 34.9842 16.8007C34.9842 16.8007 35.3322 10.6763 30.8743 8.95342C30.1446 8.67115 29.2864 8.50684 28.2764 8.50684C21.0975 8.50684 21.5686 16.8007 21.5686 16.8007C21.5686 16.8007 19.9069 16.5213 19.6561 18.3357C19.6504 18.3784 19.6454 18.4227 19.6409 18.4679C19.6307 18.572 19.6249 18.683 19.6245 18.801C19.6245 18.8372 19.6249 18.8742 19.6257 18.9116C19.627 18.984 19.6298 19.0592 19.6352 19.1365C19.7029 20.1541 20.0033 20.726 20.3477 21.0444C20.41 21.1018 20.4737 21.151 20.5377 21.1933C20.6883 21.2921 20.8406 21.3515 20.9801 21.3861C21.0519 21.404 21.1205 21.4154 21.1837 21.4223C21.4102 21.4463 21.5686 21.4121 21.5686 21.4121L21.8991 21.4864C22.6724 23.6821 24.5723 27.605 28.276 27.605C31.9797 27.605 33.8796 23.6823 34.653 21.4865L34.9842 21.4121C34.9842 21.4121 35.04 21.4239 35.1323 21.4288C35.1959 21.432 35.2768 21.4316 35.3691 21.4215C35.4323 21.4146 35.5005 21.4028 35.5723 21.3845C35.7118 21.3495 35.8641 21.2889 36.0147 21.1884C36.0783 21.1461 36.1419 21.0965 36.2039 21.0379Z" fill="#EBEBEB"/>
<path d="M36.9176 19.1365L37.3733 19.1696V19.1696L36.9176 19.1365ZM36.2039 21.0379L35.8921 20.704L35.8901 20.7059L36.2039 21.0379ZM34.9842 16.8007L34.528 16.7748L34.4954 17.3499L35.0628 17.2508L34.9842 16.8007ZM30.8743 8.95342L30.7095 9.37952L30.7096 9.37957L30.8743 8.95342ZM21.5686 16.8007L21.4929 17.2513L22.0572 17.3462L22.0248 16.7748L21.5686 16.8007ZM19.6561 18.3357L19.2035 18.2731L19.2033 18.2748L19.6561 18.3357ZM19.6409 18.4679L19.1863 18.4224L19.1863 18.4231L19.6409 18.4679ZM19.6245 18.801L19.1676 18.7994V18.801H19.6245ZM19.6257 18.9116L20.0826 18.9038L20.0825 18.9016L19.6257 18.9116ZM19.6352 19.1365L20.0911 19.1062L20.091 19.105L19.6352 19.1365ZM20.3477 21.0444L20.0374 21.3799L20.0385 21.3808L20.3477 21.0444ZM20.5377 21.1933L20.2858 21.5745L20.287 21.5753L20.5377 21.1933ZM20.9801 21.3861L21.0906 20.9428L21.09 20.9426L20.9801 21.3861ZM21.1837 21.4223L21.134 21.8765L21.1355 21.8766L21.1837 21.4223ZM21.5686 21.4121L21.6688 20.9664L21.5707 20.9443L21.4723 20.9655L21.5686 21.4121ZM21.8991 21.4864L22.33 21.3346L22.246 21.0961L21.9992 21.0406L21.8991 21.4864ZM34.653 21.4865L34.5528 21.0408L34.3061 21.0962L34.222 21.3348L34.653 21.4865ZM34.9842 21.4121L35.0786 20.9651L34.9812 20.9445L34.884 20.9664L34.9842 21.4121ZM35.1323 21.4288L35.1082 21.885L35.109 21.8851L35.1323 21.4288ZM35.3691 21.4215L35.3195 20.9673L35.3191 20.9673L35.3691 21.4215ZM35.5723 21.3845L35.4612 20.9413L35.4595 20.9417L35.5723 21.3845ZM36.0147 21.1884L35.7617 20.808L35.7612 20.8083L36.0147 21.1884ZM36.462 19.1034C36.3939 20.0403 36.124 20.4874 35.8921 20.704L36.5157 21.3719C36.9668 20.9507 37.2944 20.2558 37.3733 19.1696L36.462 19.1034ZM34.9842 16.8007C35.0628 17.2508 35.0625 17.2508 35.0623 17.2509C35.0622 17.2509 35.062 17.2509 35.0618 17.2509C35.0615 17.251 35.0613 17.251 35.061 17.2511C35.0606 17.2512 35.0602 17.2512 35.06 17.2512C35.0595 17.2513 35.0595 17.2513 35.06 17.2512C35.061 17.2511 35.0637 17.2507 35.0682 17.2501C35.0771 17.2489 35.0926 17.247 35.1138 17.2453C35.1563 17.2417 35.2199 17.2385 35.2967 17.2414C35.4535 17.2473 35.6464 17.2778 35.8258 17.3645C35.9978 17.4476 36.1668 17.5861 36.2894 17.8326C36.4152 18.0855 36.507 18.4828 36.462 19.1034L37.3733 19.1696C37.4265 18.4362 37.3258 17.8646 37.1075 17.4257C36.886 16.9803 36.5594 16.7041 36.2234 16.5418C35.895 16.383 35.5675 16.3372 35.3312 16.3283C35.2113 16.3238 35.11 16.3286 35.0369 16.3348C35.0001 16.3379 34.9701 16.3413 34.9479 16.3443C34.9368 16.3458 34.9276 16.3471 34.9205 16.3482C34.917 16.3488 34.914 16.3492 34.9115 16.3497C34.9102 16.3499 34.9091 16.35 34.9081 16.3502C34.9076 16.3503 34.9071 16.3504 34.9067 16.3504C34.9065 16.3505 34.9062 16.3505 34.9061 16.3506C34.9058 16.3506 34.9055 16.3507 34.9842 16.8007ZM30.7096 9.37957C32.7437 10.1657 33.7073 11.9612 34.1598 13.6419C34.3848 14.4776 34.4772 15.2651 34.5129 15.8449C34.5307 16.1342 34.5343 16.37 34.5336 16.532C34.5332 16.613 34.5317 16.6754 34.5304 16.7168C34.5297 16.7374 34.5291 16.7528 34.5286 16.7626C34.5284 16.7675 34.5282 16.771 34.5281 16.773C34.5281 16.774 34.528 16.7747 34.528 16.775C34.528 16.7751 34.528 16.7752 34.528 16.7752C34.528 16.7752 34.528 16.7751 34.528 16.775C34.528 16.7749 34.528 16.7748 34.9842 16.8007C35.4403 16.8266 35.4403 16.8264 35.4403 16.8262C35.4403 16.8261 35.4404 16.8259 35.4404 16.8257C35.4404 16.8253 35.4404 16.8248 35.4405 16.8242C35.4405 16.823 35.4406 16.8214 35.4407 16.8195C35.4409 16.8156 35.4412 16.8103 35.4415 16.8036C35.4421 16.7901 35.4428 16.7709 35.4436 16.7462C35.4452 16.697 35.4469 16.6262 35.4473 16.5363C35.4481 16.3567 35.4441 16.1006 35.4249 15.7888C35.3866 15.1664 35.2873 14.3151 35.0421 13.4044C34.5542 11.5922 33.4629 9.46403 31.039 8.52726L30.7096 9.37957ZM28.2764 8.96371C29.2362 8.96371 30.0377 9.11968 30.7095 9.37952L31.0391 8.52731C30.2514 8.22262 29.3367 8.04996 28.2764 8.04996V8.96371ZM21.5686 16.8007C22.0248 16.7748 22.0248 16.775 22.0248 16.7751C22.0248 16.7751 22.0248 16.7752 22.0248 16.7752C22.0248 16.7752 22.0248 16.7751 22.0248 16.7748C22.0247 16.7744 22.0247 16.7734 22.0246 16.7719C22.0245 16.769 22.0242 16.7641 22.024 16.7574C22.0234 16.7439 22.0226 16.7228 22.0218 16.6948C22.0202 16.6387 22.0187 16.5547 22.0193 16.4466C22.0204 16.2304 22.0296 15.9191 22.0623 15.5446C22.1281 14.793 22.2875 13.8001 22.6581 12.8146C23.0286 11.8291 23.6026 10.8703 24.4863 10.1586C25.3633 9.45218 26.5764 8.96371 28.2764 8.96371V8.04996C26.387 8.04996 24.9668 8.59823 23.9131 9.44694C22.8661 10.2903 22.2118 11.405 21.8028 12.493C21.3938 13.5809 21.2223 14.6615 21.152 15.465C21.1168 15.868 21.1067 16.2047 21.1055 16.442C21.1049 16.5608 21.1066 16.6549 21.1084 16.7203C21.1093 16.753 21.1103 16.7786 21.111 16.7965C21.1114 16.8054 21.1118 16.8124 21.112 16.8175C21.1121 16.82 21.1122 16.822 21.1123 16.8236C21.1124 16.8243 21.1124 16.825 21.1124 16.8255C21.1124 16.8257 21.1125 16.826 21.1125 16.8261C21.1125 16.8264 21.1125 16.8266 21.5686 16.8007ZM20.1087 18.3982C20.1615 18.0162 20.2832 17.7769 20.4115 17.6231C20.5405 17.4685 20.6972 17.3753 20.8578 17.3189C21.0214 17.2614 21.1849 17.2439 21.3112 17.2422C21.3733 17.2414 21.4234 17.2444 21.4561 17.2473C21.4724 17.2488 21.4841 17.2502 21.4905 17.251C21.4937 17.2514 21.4956 17.2517 21.496 17.2518C21.4962 17.2518 21.4961 17.2518 21.4956 17.2517C21.4953 17.2517 21.4949 17.2516 21.4945 17.2515C21.4943 17.2515 21.494 17.2515 21.4938 17.2514C21.4936 17.2514 21.4934 17.2513 21.4933 17.2513C21.4931 17.2513 21.4929 17.2513 21.5686 16.8007C21.6444 16.3502 21.6441 16.3501 21.6439 16.3501C21.6438 16.3501 21.6435 16.35 21.6434 16.35C21.643 16.3499 21.6426 16.3499 21.6422 16.3498C21.6413 16.3496 21.6404 16.3495 21.6393 16.3493C21.6372 16.349 21.6346 16.3486 21.6317 16.3482C21.6258 16.3473 21.6183 16.3462 21.6093 16.345C21.5912 16.3426 21.567 16.3398 21.5373 16.3372C21.4782 16.3319 21.3965 16.3272 21.2989 16.3286C21.1058 16.3312 20.8382 16.3573 20.555 16.4567C20.2688 16.5573 19.9631 16.7343 19.7099 17.0377C19.4562 17.3418 19.2761 17.7479 19.2035 18.2731L20.1087 18.3982ZM20.0955 18.5133C20.0998 18.4712 20.1041 18.4324 20.1089 18.3966L19.2033 18.2748C19.1966 18.3244 19.1911 18.3743 19.1863 18.4224L20.0955 18.5133ZM20.0814 18.8026C20.0817 18.6984 20.0868 18.6018 20.0956 18.5127L19.1863 18.4231C19.1745 18.5421 19.1681 18.6676 19.1676 18.7994L20.0814 18.8026ZM20.0825 18.9016C20.0818 18.8674 20.0814 18.8337 20.0814 18.801H19.1676C19.1676 18.8406 19.1681 18.8809 19.169 18.9216L20.0825 18.9016ZM20.091 19.105C20.0863 19.0368 20.0837 18.9696 20.0826 18.9038L19.1689 18.9194C19.1703 18.9984 19.1734 19.0817 19.1794 19.168L20.091 19.105ZM20.6579 20.709C20.425 20.4937 20.1537 20.0476 20.091 19.1062L19.1793 19.1668C19.2521 20.2606 19.5816 20.9583 20.0374 21.3799L20.6579 20.709ZM20.7895 20.8121C20.7455 20.783 20.7011 20.7487 20.6569 20.7081L20.0385 21.3808C20.119 21.4548 20.2018 21.519 20.2858 21.5745L20.7895 20.8121ZM21.09 20.9426C20.9939 20.9188 20.8905 20.8783 20.7883 20.8113L20.287 21.5753C20.4861 21.7059 20.6873 21.7842 20.8702 21.8296L21.09 20.9426ZM21.2333 20.9681C21.1885 20.9632 21.1404 20.9552 21.0906 20.9428L20.8696 21.8294C20.9634 21.8528 21.0524 21.8675 21.134 21.8765L21.2333 20.9681ZM21.5686 21.4121C21.4723 20.9655 21.4724 20.9655 21.4725 20.9655C21.4725 20.9655 21.4726 20.9654 21.4727 20.9654C21.4728 20.9654 21.4729 20.9654 21.4731 20.9654C21.4733 20.9653 21.4735 20.9653 21.4737 20.9652C21.4742 20.9651 21.4746 20.965 21.475 20.965C21.4757 20.9648 21.4763 20.9647 21.4768 20.9646C21.4777 20.9644 21.478 20.9643 21.4779 20.9644C21.4776 20.9644 21.4752 20.9649 21.4709 20.9655C21.4623 20.9668 21.4462 20.969 21.424 20.9708C21.3791 20.9745 21.3119 20.9764 21.2318 20.968L21.1355 21.8766C21.282 21.8921 21.4073 21.889 21.4983 21.8816C21.544 21.8778 21.5816 21.873 21.6098 21.8686C21.6239 21.8665 21.6356 21.8644 21.6449 21.8627C21.6495 21.8619 21.6535 21.8611 21.6568 21.8604C21.6585 21.8601 21.66 21.8598 21.6614 21.8595C21.6621 21.8593 21.6627 21.8592 21.6633 21.8591C21.6636 21.859 21.6639 21.859 21.6642 21.8589C21.6643 21.8589 21.6644 21.8588 21.6646 21.8588C21.6646 21.8588 21.6647 21.8588 21.6648 21.8588C21.6649 21.8587 21.6649 21.8587 21.5686 21.4121ZM21.9992 21.0406L21.6688 20.9664L21.4685 21.8579L21.7989 21.9321L21.9992 21.0406ZM28.276 27.1482C26.6065 27.1482 25.3232 26.2698 24.3412 25.0785C23.3554 23.8825 22.7087 22.4099 22.33 21.3346L21.4681 21.6381C21.8627 22.7586 22.5526 24.3452 23.6361 25.6597C24.7234 26.9788 26.2419 28.0619 28.276 28.0619V27.1482ZM34.222 21.3348C33.8433 22.4101 33.1966 23.8827 32.2108 25.0786C31.2289 26.2699 29.9456 27.1482 28.276 27.1482V28.0619C30.3102 28.0619 31.8286 26.9788 32.9159 25.6598C33.9994 24.3454 34.6893 22.7588 35.0839 21.6383L34.222 21.3348ZM34.884 20.9664L34.5528 21.0408L34.7531 21.9323L35.0843 21.8579L34.884 20.9664ZM35.1564 20.9726C35.1247 20.9709 35.1008 20.9681 35.0868 20.9661C35.0798 20.9652 35.0755 20.9644 35.074 20.9642C35.0733 20.964 35.0733 20.964 35.074 20.9642C35.0744 20.9642 35.075 20.9644 35.0757 20.9645C35.0761 20.9646 35.0766 20.9647 35.077 20.9648C35.0773 20.9648 35.0775 20.9649 35.0778 20.9649C35.0779 20.965 35.0781 20.965 35.0782 20.965C35.0783 20.965 35.0784 20.9651 35.0784 20.9651C35.0785 20.9651 35.0785 20.9651 35.0785 20.9651C35.0786 20.9651 35.0786 20.9651 34.9842 21.4121C34.8897 21.8591 34.8898 21.8591 34.8898 21.8591C34.8898 21.8591 34.8899 21.8592 34.8899 21.8592C34.89 21.8592 34.8901 21.8592 34.8902 21.8592C34.8903 21.8592 34.8905 21.8593 34.8906 21.8593C34.891 21.8594 34.8913 21.8595 34.8916 21.8595C34.8923 21.8597 34.8931 21.8598 34.8939 21.86C34.8955 21.8603 34.8974 21.8607 34.8995 21.8611C34.9037 21.8619 34.9087 21.8629 34.9147 21.8639C34.9266 21.866 34.9419 21.8685 34.9605 21.8711C34.9975 21.8763 35.0476 21.8818 35.1082 21.885L35.1564 20.9726ZM35.3191 20.9673C35.2541 20.9745 35.1979 20.9747 35.1557 20.9725L35.109 21.8851C35.194 21.8894 35.2995 21.8888 35.4191 21.8756L35.3191 20.9673ZM35.4595 20.9417C35.4091 20.9546 35.3621 20.9626 35.3195 20.9673L35.4188 21.8756C35.5026 21.8665 35.5918 21.851 35.6851 21.8272L35.4595 20.9417ZM35.7612 20.8083C35.6589 20.8766 35.5559 20.9176 35.4612 20.9413L35.6834 21.8276C35.8678 21.7814 36.0693 21.7012 36.2682 21.5685L35.7612 20.8083ZM35.8901 20.7059C35.8481 20.7456 35.805 20.7792 35.7617 20.808L36.2677 21.5689C36.3517 21.513 36.4358 21.4474 36.5177 21.37L35.8901 20.7059Z" fill="black" mask="url(#path-2-inside-1_1108_18255)"/>
</g>
<path d="M1.36173 54.8071H4.27966C5.92333 54.8071 6.89776 53.9987 6.89776 52.6388V52.6281C6.89776 51.6054 6.22316 50.8559 5.10953 50.7274V50.706C5.90727 50.5935 6.50692 49.8172 6.50692 49.0195V49.0087C6.50692 47.8523 5.6128 47.0813 4.29036 47.0813H1.36173V54.8071ZM4.07085 47.9326C5.00245 47.9326 5.53249 48.3502 5.53249 49.1105V49.1212C5.53249 49.9564 4.91143 50.4115 3.77103 50.4115H2.32545V47.9326H4.07085ZM4.04408 51.2414C5.2755 51.2414 5.90727 51.6965 5.90727 52.5906V52.6013C5.90727 53.49 5.29156 53.9558 4.1351 53.9558H2.32545V51.2414H4.04408ZM9.47304 54.9142C10.2172 54.9142 10.8865 54.5127 11.2131 53.9023H11.2345V54.8071H12.1661V50.9576C12.1661 49.844 11.3416 49.1319 10.0245 49.1319C8.71277 49.1319 7.91502 49.8707 7.83471 50.7863L7.82936 50.8452H8.72883L8.73954 50.797C8.84662 50.2991 9.29635 49.9564 10.0138 49.9564C10.7901 49.9564 11.2345 50.3687 11.2345 51.0486V51.5144L9.63901 51.6054C8.3594 51.6804 7.62055 52.2747 7.62055 53.2223V53.2331C7.62055 54.245 8.36476 54.9142 9.47304 54.9142ZM8.57356 53.2331V53.2223C8.57356 52.703 9.00188 52.3711 9.74609 52.3282L11.2345 52.2372V52.6923C11.2345 53.5008 10.5599 54.1058 9.68184 54.1058C9.01259 54.1058 8.57356 53.7685 8.57356 53.2331ZM15.6569 54.9142C16.9151 54.9142 17.8306 54.095 17.9805 53.035L17.9859 52.9975H17.0704L17.0597 53.0403C16.9044 53.6614 16.4172 54.0897 15.6569 54.0897C14.6932 54.0897 14.0293 53.3241 14.0293 52.0284V52.023C14.0293 50.7595 14.6771 49.9564 15.6462 49.9564C16.4654 49.9564 16.9151 50.449 17.0543 51.0058L17.065 51.0486H17.9752L17.9698 51.0058C17.852 50.0528 17.0329 49.1319 15.6462 49.1319C14.0989 49.1319 13.0763 50.2562 13.0763 52.0123V52.0177C13.0763 53.7899 14.0775 54.9142 15.6569 54.9142ZM18.9175 54.8071H19.8491V52.7084L20.3684 52.2104L22.4351 54.8071H23.5166L21.027 51.6429L23.4416 49.239H22.3119L19.8705 51.6965H19.8491V47.0813H18.9175V54.8071ZM26.2525 56.7881C27.7623 56.7881 28.71 55.9422 28.71 54.6519V49.239H27.7784V50.1813H27.7569C27.4143 49.5602 26.7932 49.1319 26.0062 49.1319C24.5927 49.1319 23.6237 50.2562 23.6237 51.9856V51.9909C23.6237 53.731 24.582 54.8607 25.9848 54.8607C26.7825 54.8607 27.425 54.4645 27.7569 53.8488H27.7784V54.5608C27.7784 55.4228 27.2215 55.9636 26.2418 55.9636C25.4815 55.9636 24.9514 55.7173 24.7748 55.3158L24.7533 55.2676H23.8164L23.8271 55.3158C24.0091 56.1403 24.8765 56.7881 26.2525 56.7881ZM26.1882 54.0362C25.1977 54.0362 24.5767 53.2545 24.5767 51.9909V51.9856C24.5767 50.7488 25.1977 49.9564 26.1882 49.9564C27.1305 49.9564 27.7784 50.7595 27.7784 51.9856V51.9909C27.7784 53.2277 27.1359 54.0362 26.1882 54.0362ZM29.9146 54.8071H30.8462V51.3699C30.8462 50.5239 31.3174 50.0207 32.0401 50.0207C32.265 50.0207 32.4631 50.0474 32.5381 50.0742V49.1694C32.4631 49.1587 32.3239 49.1319 32.1633 49.1319C31.5369 49.1319 31.055 49.5388 30.8676 50.1813H30.8462V49.239H29.9146V54.8071ZM35.3382 54.9142C36.8748 54.9142 37.9135 53.8006 37.9135 52.023V52.0123C37.9135 50.2348 36.8694 49.1319 35.3329 49.1319C33.7963 49.1319 32.7576 50.2402 32.7576 52.0123V52.023C32.7576 53.7952 33.7909 54.9142 35.3382 54.9142ZM35.3436 54.0897C34.3584 54.0897 33.7106 53.3348 33.7106 52.023V52.0123C33.7106 50.7113 34.3638 49.9564 35.3329 49.9564C36.318 49.9564 36.9605 50.706 36.9605 52.0123V52.023C36.9605 53.3294 36.3233 54.0897 35.3436 54.0897ZM40.7565 54.9142C41.6024 54.9142 42.1699 54.5341 42.4697 54.0147H42.4911V54.8071H43.4227V49.239H42.4911V52.5156C42.4911 53.4633 41.9183 54.0897 41.0402 54.0897C40.1836 54.0897 39.7606 53.5918 39.7606 52.6869V49.239H38.829V52.8529C38.829 54.1218 39.5357 54.9142 40.7565 54.9142ZM44.6381 54.8071H45.5697V51.5305C45.5697 50.5828 46.1426 49.9564 47.0206 49.9564C47.8773 49.9564 48.3002 50.4543 48.3002 51.3592V54.8071H49.2318V51.1932C49.2318 49.9243 48.5251 49.1319 47.3044 49.1319C46.4585 49.1319 45.8909 49.512 45.5911 50.0314H45.5697V49.239H44.6381V54.8071ZM52.5138 54.9142C53.3116 54.9142 53.9326 54.5127 54.2807 53.8648H54.3021V54.8071H55.2337V47.0813H54.3021V50.1706H54.2807C53.9326 49.5281 53.2848 49.1319 52.4978 49.1319C51.1004 49.1319 50.1474 50.2616 50.1474 52.0177V52.023C50.1474 53.7792 51.0897 54.9142 52.5138 54.9142ZM52.6959 54.0897C51.7107 54.0897 51.1004 53.3027 51.1004 52.023V52.0177C51.1004 50.7488 51.7107 49.9564 52.6959 49.9564C53.6328 49.9564 54.3074 50.7756 54.3074 52.0177V52.023C54.3074 53.2705 53.6382 54.0897 52.6959 54.0897Z" fill="#333333"/>
<defs>
<clipPath id="clip0_1108_18255">
<rect width="35.6362" height="34.7225" fill="white" transform="translate(10.4314 0.947266)"/>
</clipPath>
</defs>
</svg>
