<?xml version="1.0" encoding="UTF-8"?><svg id="Female_hair_12_" xmlns="http://www.w3.org/2000/svg" viewBox="0 0 800 800"><path d="M701.79,648.11c-37.72,21.68,10.63,52.46-16.3,62.41-26.93,9.96,6.63,53.2-17.07,69.54,0,0-2.31-36.45-19.97-32.46-17.65,3.98,4.67,47.82,4.67,47.82,0,0-49.7-25.86-39.97-61.96,9.74-36.09-33.35-33.43-35.55-4.39-2.16,28.65-27.26,45.5-27.94,45.95,.34-.86,16.81-41.61,.75-53.88-16.22-12.4-12.59,18.74-12.59,18.74,0,0-34.93-21.74-24.11-41.95,10.82-20.22-37.74-2.99-31.25-28.9,6.49-25.9-25.15,2.55-16.83-33.74,8.32-36.28-40.47,4.3-26.08-36.26,14.4-40.57-29.21-23.94-12.09-55.21,12.83-23.44-16.52-79.48-27.47-203.27-10.95,123.79-40.3,179.83-27.47,203.27,17.12,31.27-26.49,14.64-12.09,55.21,14.39,40.56-34.4-.02-26.08,36.26,8.32,36.29-23.32,7.84-16.83,33.74,6.48,25.91-42.08,8.68-31.25,28.9,10.82,20.21-24.11,41.95-24.11,41.95,0,0,3.63-31.14-12.59-18.74-16.05,12.27,.41,53.02,.75,53.88-.67-.45-25.77-17.3-27.94-45.95-2.2-29.04-45.29-31.7-35.55,4.39,9.73,36.1-39.97,61.96-39.97,61.96,0,0,22.32-43.84,4.67-47.82-17.66-3.99-19.97,32.46-19.97,32.46-23.7-16.34,9.87-59.58-17.07-69.54-26.93-9.95,21.42-40.73-16.3-62.41-37.71-21.67,19.1-31.92-1.14-49.16-20.22-17.24,20.31-18.06-4.66-49.96-24.99-31.9,31.64-29.37,10.05-59.61-21.6-30.23,21.13-16.46-3.63-47.12-24.77-30.66,23.49-31.67,3.46-51.91-20.03-20.25,15.5-22.08,.13-43.38-15.37-21.3,25.53-20.04,5.95-43.32-19.6-23.28,23.57-20.2,11.18-46.58-12.38-26.38,30.35-9.22,13.41-36.68-16.93-27.47,16.01-13.65,19.05-45.95,3.04-32.29,35.45-7.77,25.2-30.19-10.23-22.43,46.25-20.72,33.54-29.63-12.7-8.91,.17-23.83,29.83-28.7,29.67-4.87,20.42-7.87,33.66-20.72,5.42-5.26,35.55-4.07,60.97-.84,2.32-6.69,8.5-14.19,24.94-8.27,18.86,6.8,37.47,14.85,46.86,19.03,9.39-4.18,28.01-12.23,46.86-19.03,16.44-5.92,22.62,1.58,24.94,8.27,25.42-3.23,41.55-4.42,46.97,.84,13.24,12.85,3.99,15.85,33.66,20.72,29.66,4.87,42.53,19.79,29.83,28.7-12.7,8.91,43.77,7.2,33.54,29.63-10.24,22.42,22.16-2.1,25.2,30.19,3.04,32.3,35.98,18.48,19.05,45.95-16.94,27.46,25.79,10.3,13.41,36.68-12.4,26.38,30.77,23.3,11.18,46.58-19.59,23.28,21.32,22.02,5.95,43.32-15.37,21.3,20.16,23.13,.13,43.38-20.03,20.24,28.23,21.25,3.46,51.91-24.77,30.66,17.97,16.89-3.63,47.12-21.59,30.24,35.04,27.71,10.05,59.61-24.97,31.9,15.56,32.72-4.66,49.96-20.23,17.24,36.57,27.49-1.14,49.16Z"/></svg>