<?xml version="1.0" encoding="UTF-8"?><svg id="Male_hair_9" xmlns="http://www.w3.org/2000/svg" viewBox="0 0 800 800"><defs><style>.cls-1{fill:#656865;}</style></defs><path class="cls-1" d="M442.81,108.46c-11.17-10.57-29.89-13.06-55.63-7.42-16.3,3.57-26.98,10.11-31.73,19.43-3.68,7.22-2.84,14.67-1,18.86l16.98-7.44c-.65,2.74-.06,5.5,2.45,7.64l8.6,5.66-.08,.09c.38-.42,9.42-10.32,30.32-14.75,5.79-1.23,7.96,.44,8.67,1,3.85,2.98,5,10.41,5.1,12.71,.14,4.63,3.41,8.42,7.71,9.43,1.46,2.49,3.97,4.34,7.04,4.83,.54,.09,1.08,.13,1.6,.13,4.82,0,9.07-3.5,9.86-8.41,3.01-18.65-.33-32.69-9.91-41.75Z"/></svg>