<svg width="33" height="58" viewBox="0 0 33 58" fill="none" xmlns="http://www.w3.org/2000/svg">
<g clip-path="url(#clip0_1108_18198)">
<mask id="path-1-inside-1_1108_18198" fill="white">
<path fill-rule="evenodd" clip-rule="evenodd" d="M30.4022 23.6804C31.0209 23.1027 31.5623 22.068 31.6954 20.2351C32.0516 15.3284 28.192 16.0028 28.192 16.0028C28.192 16.0028 28.8227 4.90557 20.7451 1.7838C19.4229 1.27234 17.868 0.974609 16.0378 0.974609C3.02992 0.974609 3.88363 16.0028 3.88363 16.0028C3.88363 16.0028 0.872593 15.4965 0.418223 18.7841C0.407812 18.8614 0.398888 18.9418 0.390707 19.0236C0.372116 19.2122 0.361706 19.4134 0.360962 19.6271C0.360962 19.6927 0.361705 19.7598 0.363193 19.8276C0.365424 19.9588 0.370629 20.0951 0.380296 20.2351C0.502999 22.079 1.04735 23.1152 1.67127 23.6922C1.78431 23.7962 1.89957 23.8853 2.01558 23.962C2.2885 24.1411 2.56439 24.2486 2.81724 24.3113C2.94737 24.3437 3.07156 24.3643 3.18609 24.3769C3.59658 24.4204 3.88363 24.3585 3.88363 24.3585L4.48268 24.4931C5.88394 28.4716 9.32654 35.5797 16.0375 35.5797C22.7483 35.5797 26.1909 28.4718 27.5922 24.4932L28.192 24.3585C28.192 24.3585 28.2932 24.3798 28.4605 24.3887C28.5758 24.3946 28.7223 24.3938 28.8896 24.3754C29.0041 24.3629 29.1276 24.3415 29.2577 24.3083C29.5105 24.245 29.7864 24.1352 30.0593 23.9531C30.1746 23.8765 30.2899 23.7866 30.4022 23.6804Z"/>
</mask>
<path fill-rule="evenodd" clip-rule="evenodd" d="M30.4022 23.6804C31.0209 23.1027 31.5623 22.068 31.6954 20.2351C32.0516 15.3284 28.192 16.0028 28.192 16.0028C28.192 16.0028 28.8227 4.90557 20.7451 1.7838C19.4229 1.27234 17.868 0.974609 16.0378 0.974609C3.02992 0.974609 3.88363 16.0028 3.88363 16.0028C3.88363 16.0028 0.872593 15.4965 0.418223 18.7841C0.407812 18.8614 0.398888 18.9418 0.390707 19.0236C0.372116 19.2122 0.361706 19.4134 0.360962 19.6271C0.360962 19.6927 0.361705 19.7598 0.363193 19.8276C0.365424 19.9588 0.370629 20.0951 0.380296 20.2351C0.502999 22.079 1.04735 23.1152 1.67127 23.6922C1.78431 23.7962 1.89957 23.8853 2.01558 23.962C2.2885 24.1411 2.56439 24.2486 2.81724 24.3113C2.94737 24.3437 3.07156 24.3643 3.18609 24.3769C3.59658 24.4204 3.88363 24.3585 3.88363 24.3585L4.48268 24.4931C5.88394 28.4716 9.32654 35.5797 16.0375 35.5797C22.7483 35.5797 26.1909 28.4718 27.5922 24.4932L28.192 24.3585C28.192 24.3585 28.2932 24.3798 28.4605 24.3887C28.5758 24.3946 28.7223 24.3938 28.8896 24.3754C29.0041 24.3629 29.1276 24.3415 29.2577 24.3083C29.5105 24.245 29.7864 24.1352 30.0593 23.9531C30.1746 23.8765 30.2899 23.7866 30.4022 23.6804Z" fill="white"/>
<path d="M31.6954 20.2351L32.6067 20.3013L32.6067 20.3013L31.6954 20.2351ZM30.4022 23.6804L29.7785 23.0126L29.7745 23.0163L30.4022 23.6804ZM28.192 16.0028L27.2798 15.9509L27.2144 17.1012L28.3493 16.9029L28.192 16.0028ZM20.7451 1.7838L20.4155 2.63601L20.4157 2.63611L20.7451 1.7838ZM3.88363 16.0028L3.73211 16.9039L4.86082 17.0937L4.79591 15.9509L3.88363 16.0028ZM0.418223 18.7841L-0.486928 18.659L-0.487366 18.6622L0.418223 18.7841ZM0.390707 19.0236L-0.518508 18.9327L-0.518637 18.934L0.390707 19.0236ZM0.360962 19.6271L-0.552787 19.624V19.6271H0.360962ZM0.363193 19.8276L1.27682 19.8121L1.27672 19.8076L0.363193 19.8276ZM0.380296 20.2351L1.29203 20.1745L1.29188 20.1722L0.380296 20.2351ZM1.67127 23.6922L1.05084 24.3631L1.05287 24.3649L1.67127 23.6922ZM2.01558 23.962L1.51189 24.7244L1.51429 24.7259L2.01558 23.962ZM2.81724 24.3113L3.03816 23.4246L3.03697 23.4244L2.81724 24.3113ZM3.18609 24.3769L3.08671 25.2852L3.08984 25.2855L3.18609 24.3769ZM3.88363 24.3585L4.08396 23.4669L3.88767 23.4228L3.691 23.4652L3.88363 24.3585ZM4.48268 24.4931L5.34453 24.1895L5.1765 23.7124L4.68301 23.6015L4.48268 24.4931ZM27.5922 24.4932L27.3919 23.6017L26.8984 23.7126L26.7304 24.1897L27.5922 24.4932ZM28.192 24.3585L28.381 23.4644L28.1861 23.4233L27.9917 23.4669L28.192 24.3585ZM28.4605 24.3887L28.4123 25.3011L28.4138 25.3012L28.4605 24.3887ZM28.8896 24.3754L28.7902 23.4671L28.7896 23.4671L28.8896 24.3754ZM29.2577 24.3083L29.0355 23.422L29.0321 23.4229L29.2577 24.3083ZM30.0593 23.9531L29.5534 23.1922L29.5523 23.1929L30.0593 23.9531ZM30.784 20.169C30.6618 21.8525 30.1781 22.6394 29.7785 23.0126L31.0258 24.3483C31.8636 23.5659 32.4628 22.2835 32.6067 20.3013L30.784 20.169ZM28.192 16.0028C28.3493 16.9029 28.3488 16.903 28.3483 16.9031C28.3481 16.9031 28.3476 16.9032 28.3473 16.9032C28.3467 16.9033 28.3462 16.9034 28.3457 16.9035C28.3447 16.9037 28.3439 16.9038 28.3434 16.9039C28.3423 16.9041 28.342 16.9041 28.3426 16.904C28.3437 16.9038 28.3481 16.9032 28.3555 16.9022C28.3705 16.9002 28.3973 16.897 28.4341 16.8939C28.5083 16.8876 28.62 16.8821 28.7551 16.8872C29.0318 16.8976 29.3685 16.9513 29.6797 17.1017C29.9759 17.2448 30.2673 17.4828 30.4801 17.9107C30.6994 18.3515 30.8649 19.0551 30.784 20.169L32.6067 20.3013C32.704 18.9619 32.5206 17.9097 32.1164 17.0969C31.7057 16.2712 31.099 15.7578 30.4749 15.4562C29.8657 15.1619 29.2598 15.0774 28.824 15.061C28.6028 15.0526 28.4158 15.0614 28.2803 15.0729C28.2123 15.0786 28.1565 15.0851 28.1151 15.0906C28.0943 15.0933 28.0771 15.0959 28.0636 15.0979C28.0569 15.099 28.0511 15.0999 28.0463 15.1007C28.0439 15.1011 28.0417 15.1015 28.0398 15.1018C28.0388 15.1019 28.0379 15.1021 28.0371 15.1022C28.0367 15.1023 28.0361 15.1024 28.0359 15.1025C28.0353 15.1026 28.0348 15.1027 28.192 16.0028ZM20.4157 2.63611C24.0647 4.04634 25.7987 7.26842 26.6153 10.3015C27.0211 11.8087 27.1879 13.2296 27.2523 14.2762C27.2845 14.7982 27.291 15.2235 27.2896 15.5155C27.2889 15.6614 27.2863 15.7737 27.2839 15.8479C27.2827 15.885 27.2816 15.9125 27.2808 15.9299C27.2804 15.9385 27.2801 15.9447 27.2799 15.9482C27.2798 15.95 27.2798 15.9511 27.2797 15.9516C27.2797 15.9518 27.2797 15.9518 27.2797 15.9517C27.2797 15.9517 27.2797 15.9515 27.2797 15.9515C27.2797 15.9512 27.2798 15.9509 28.192 16.0028C29.1043 16.0546 29.1043 16.0542 29.1044 16.0538C29.1044 16.0536 29.1044 16.0532 29.1044 16.0528C29.1045 16.052 29.1045 16.051 29.1046 16.0499C29.1047 16.0477 29.1048 16.0448 29.105 16.0412C29.1054 16.034 29.1059 16.0242 29.1064 16.0118C29.1075 15.987 29.109 15.9518 29.1104 15.9068C29.1133 15.8169 29.1163 15.6878 29.1171 15.5242C29.1186 15.1971 29.1113 14.731 29.0764 14.1639C29.0067 13.0323 28.8262 11.4838 28.38 9.82638C27.4926 6.53043 25.5031 2.64303 21.0745 0.931485L20.4157 2.63611ZM16.0378 1.88836C17.7674 1.88836 19.2092 2.16941 20.4155 2.63601L21.0748 0.931582C19.6366 0.375279 17.9685 0.06086 16.0378 0.06086V1.88836ZM3.88363 16.0028C4.79591 15.9509 4.79593 15.9513 4.79594 15.9515C4.79594 15.9516 4.79595 15.9518 4.79596 15.9518C4.79596 15.9519 4.79595 15.9517 4.79593 15.9513C4.79589 15.9505 4.7958 15.9489 4.79567 15.9463C4.79542 15.9412 4.795 15.9326 4.79449 15.9205C4.79346 15.8965 4.79202 15.8588 4.79061 15.8085C4.78779 15.7077 4.78511 15.5563 4.78609 15.3616C4.78805 14.9718 4.80465 14.4101 4.86376 13.7342C4.98244 12.3772 5.27024 10.5865 5.93806 8.81026C6.60577 7.03433 7.6384 5.31166 9.2242 4.03438C10.7967 2.76782 12.9752 1.88836 16.0378 1.88836V0.06086C12.5965 0.06086 10.0038 1.05992 8.07785 2.61113C6.16525 4.15163 4.97232 6.18601 4.22747 8.16712C3.48272 10.1479 3.17096 12.1143 3.04321 13.575C2.97911 14.308 2.96078 14.9204 2.95861 15.3524C2.95753 15.5686 2.96049 15.7401 2.96382 15.8595C2.96549 15.9192 2.96726 15.966 2.96866 15.9988C2.96937 16.0152 2.96998 16.0281 2.97045 16.0374C2.97068 16.0421 2.97088 16.0459 2.97103 16.0488C2.97111 16.0502 2.97117 16.0514 2.97123 16.0524C2.97125 16.0528 2.97128 16.0534 2.9713 16.0536C2.97132 16.0541 2.97135 16.0546 3.88363 16.0028ZM1.32337 18.9092C1.41717 18.2305 1.63221 17.8125 1.85295 17.548C2.075 17.2819 2.34492 17.1208 2.62415 17.0227C2.90931 16.9225 3.19575 16.8917 3.41838 16.8887C3.52753 16.8872 3.61541 16.8925 3.67218 16.8976C3.7004 16.9001 3.72041 16.9025 3.73093 16.9039C3.73618 16.9046 3.73902 16.905 3.73928 16.905C3.73941 16.905 3.73889 16.905 3.73771 16.9048C3.73711 16.9047 3.73635 16.9046 3.73542 16.9044C3.73495 16.9043 3.73445 16.9043 3.73389 16.9042C3.73362 16.9041 3.73317 16.904 3.73304 16.904C3.73258 16.9039 3.73211 16.9039 3.88363 16.0028C4.03515 15.1017 4.03465 15.1016 4.03415 15.1015C4.03397 15.1015 4.03345 15.1014 4.03309 15.1013C4.03235 15.1012 4.03157 15.1011 4.03074 15.1009C4.02908 15.1007 4.02723 15.1004 4.02518 15.1C4.0211 15.0994 4.01625 15.0986 4.01067 15.0978C3.99951 15.0961 3.98539 15.0941 3.96847 15.0919C3.93467 15.0875 3.88955 15.0822 3.83454 15.0773C3.72487 15.0675 3.57396 15.0589 3.39373 15.0614C3.03759 15.0662 2.54287 15.1143 2.01848 15.2985C1.48815 15.4847 0.920125 15.8135 0.449809 16.3771C-0.0218082 16.9423 -0.353534 17.6938 -0.486922 18.659L1.32337 18.9092ZM1.29992 19.1145C1.3075 19.0387 1.31526 18.9694 1.32381 18.9059L-0.487366 18.6622C-0.49964 18.7534 -0.509728 18.8449 -0.518507 18.9327L1.29992 19.1145ZM1.27471 19.6303C1.27535 19.4442 1.28441 19.2719 1.30005 19.1132L-0.518637 18.934C-0.540177 19.1525 -0.551942 19.3826 -0.552782 19.624L1.27471 19.6303ZM1.27672 19.8076C1.27538 19.7463 1.27471 19.6859 1.27471 19.6271H-0.552787C-0.552787 19.6996 -0.551967 19.7733 -0.550337 19.8476L1.27672 19.8076ZM1.29188 20.1722C1.28346 20.0503 1.27881 19.9299 1.27681 19.8121L-0.550424 19.8431C-0.547967 19.9876 -0.542199 20.14 -0.531283 20.2981L1.29188 20.1722ZM2.2917 23.0214C1.89078 22.6506 1.4046 21.8661 1.29203 20.1745L-0.531436 20.2958C-0.3986 22.292 0.203922 23.5798 1.05085 24.3631L2.2917 23.0214ZM2.51927 23.1996C2.44321 23.1493 2.36638 23.0901 2.28968 23.0195L1.05287 24.3649C1.20223 24.5022 1.35593 24.6213 1.51189 24.7244L2.51927 23.1996ZM3.03697 23.4244C2.87097 23.3832 2.69282 23.3135 2.51688 23.198L1.51429 24.7259C1.88419 24.9686 2.25782 25.1141 2.5975 25.1982L3.03697 23.4244ZM3.28546 23.4685C3.20761 23.46 3.12434 23.4461 3.03816 23.4246L2.59631 25.1979C2.77041 25.2413 2.93552 25.2687 3.08671 25.2852L3.28546 23.4685ZM3.88363 24.3585C3.691 23.4652 3.69119 23.4652 3.69138 23.4652C3.69144 23.4651 3.69163 23.4651 3.69175 23.4651C3.692 23.465 3.69224 23.465 3.69248 23.4649C3.69296 23.4648 3.69343 23.4647 3.69387 23.4646C3.69477 23.4644 3.6956 23.4643 3.69636 23.4641C3.6979 23.4638 3.69918 23.4635 3.70022 23.4633C3.70229 23.4629 3.70338 23.4627 3.70353 23.4627C3.70381 23.4626 3.70037 23.4633 3.69349 23.4643C3.67966 23.4664 3.65256 23.4701 3.61449 23.4732C3.53752 23.4795 3.42117 23.4829 3.28233 23.4682L3.08984 25.2855C3.3615 25.3143 3.59392 25.3085 3.7631 25.2947C3.8481 25.2878 3.91842 25.2787 3.97123 25.2706C3.99768 25.2665 4.01987 25.2627 4.03746 25.2594C4.04626 25.2578 4.05391 25.2563 4.06039 25.255C4.06363 25.2543 4.06658 25.2537 4.06922 25.2532C4.07054 25.2529 4.07179 25.2526 4.07297 25.2524C4.07355 25.2522 4.07412 25.2521 4.07467 25.252C4.07494 25.252 4.07521 25.2519 4.07548 25.2518C4.07561 25.2518 4.07581 25.2518 4.07587 25.2518C4.07607 25.2517 4.07626 25.2517 3.88363 24.3585ZM4.68301 23.6015L4.08396 23.4669L3.68329 25.25L4.28234 25.3846L4.68301 23.6015ZM16.0375 34.666C13.0466 34.666 10.7434 33.0937 8.97405 30.9472C7.19706 28.7913 6.02927 26.1336 5.34453 24.1895L3.62082 24.7966C4.33736 26.831 5.5915 29.7167 7.56386 32.1095C9.54385 34.5117 12.3174 36.4935 16.0375 36.4935V34.666ZM26.7304 24.1897C26.0456 26.1338 24.8778 28.7915 23.1008 30.9473C21.3315 33.0938 19.0283 34.666 16.0375 34.666V36.4935C19.7575 36.4935 22.531 34.5117 24.511 32.1096C26.4834 29.7168 27.7375 26.8312 28.4541 24.7968L26.7304 24.1897ZM27.9917 23.4669L27.3919 23.6017L27.7925 25.3848L28.3924 25.25L27.9917 23.4669ZM28.5087 23.4762C28.4539 23.4733 28.413 23.4685 28.3898 23.4653C28.3783 23.4637 28.3715 23.4625 28.3698 23.4622C28.3689 23.462 28.3694 23.4621 28.3712 23.4625C28.3721 23.4626 28.3734 23.4629 28.375 23.4632C28.3758 23.4634 28.3767 23.4636 28.3777 23.4638C28.3782 23.4639 28.3787 23.464 28.3793 23.4641C28.3795 23.4641 28.3798 23.4642 28.3801 23.4643C28.3802 23.4643 28.3804 23.4643 28.3805 23.4644C28.3806 23.4644 28.3807 23.4644 28.3807 23.4644C28.3809 23.4644 28.381 23.4644 28.192 24.3585C28.0031 25.2525 28.0032 25.2525 28.0033 25.2525C28.0034 25.2525 28.0035 25.2525 28.0036 25.2526C28.0037 25.2526 28.0039 25.2526 28.004 25.2526C28.0043 25.2527 28.0046 25.2528 28.005 25.2528C28.0056 25.253 28.0063 25.2531 28.0069 25.2533C28.0083 25.2535 28.0098 25.2539 28.0114 25.2542C28.0146 25.2548 28.0182 25.2555 28.0222 25.2563C28.0302 25.2579 28.0399 25.2597 28.0511 25.2617C28.0736 25.2657 28.1025 25.2704 28.1372 25.2752C28.2064 25.2849 28.2997 25.2952 28.4123 25.3011L28.5087 23.4762ZM28.7896 23.4671C28.6768 23.4796 28.5797 23.4798 28.5072 23.4761L28.4138 25.3012C28.5718 25.3093 28.7677 25.3081 28.9896 25.2837L28.7896 23.4671ZM29.0321 23.4229C28.9449 23.4451 28.8637 23.459 28.7902 23.4671L28.9889 25.2837C29.1445 25.2667 29.3102 25.2379 29.4833 25.1938L29.0321 23.4229ZM29.5523 23.1929C29.3759 23.3106 29.1986 23.3811 29.0355 23.422L29.4799 25.1947C29.8225 25.1088 30.1969 24.9597 30.5664 24.7133L29.5523 23.1929ZM29.7745 23.0163C29.7021 23.0848 29.6279 23.1427 29.5534 23.1922L30.5653 24.714C30.7213 24.6103 30.8776 24.4883 31.0298 24.3445L29.7745 23.0163Z" fill="black" mask="url(#path-1-inside-1_1108_18198)"/>
<g clip-path="url(#clip1_1108_18198)">
<path d="M10.6891 18.5397C11.2062 18.5397 11.6254 17.832 11.6254 16.959C11.6254 16.0861 11.2062 15.3784 10.6891 15.3784C10.172 15.3784 9.75281 16.0861 9.75281 16.959C9.75281 17.832 10.172 18.5397 10.6891 18.5397Z" fill="#14110F"/>
<path d="M21.6697 18.5397C22.1868 18.5397 22.606 17.832 22.606 16.959C22.606 16.0861 22.1868 15.3784 21.6697 15.3784C21.1526 15.3784 20.7334 16.0861 20.7334 16.959C20.7334 17.832 21.1526 18.5397 21.6697 18.5397Z" fill="#14110F"/>
</g>
<path d="M27.5761 15.1793C26.8537 14.9257 25.4243 13.6499 22.404 13.6499C19.3837 13.6499 17.0627 15.7326 17.0627 15.7326C16.6093 15.5635 15.81 15.5943 15.81 15.5943C15.81 15.5943 15.0108 15.5558 14.5573 15.7326C14.5573 15.7326 12.2287 13.6499 9.21609 13.6499C6.20348 13.6499 4.76633 14.9257 4.04392 15.1793C3.32151 15.4329 2.56067 15.5097 2.56067 15.5097V17.139C2.56067 17.139 3.61355 17.0314 3.77494 17.6462C3.93633 18.261 4.70485 22.511 9.14692 22.511C13.589 22.511 14.688 18.384 14.7034 16.3397C14.7034 16.3397 15.2721 16.1937 15.81 16.1937C16.348 16.1937 16.9167 16.3397 16.9167 16.3397C16.9321 18.384 18.0311 22.511 22.4731 22.511C26.9152 22.511 27.6837 18.261 27.8451 17.6462C28.0065 17.0314 29.0594 17.139 29.0594 17.139V15.5097C29.0594 15.5097 28.2986 15.4329 27.5761 15.1793ZM9.15461 22.0729C7.1257 22.0729 5.98829 21.2967 5.34273 20.3514C3.73651 17.9844 5.15828 14.7182 7.98645 14.2417C8.30155 14.1879 8.64738 14.1571 9.02396 14.1571C12.905 14.1571 13.6351 16.4089 13.6966 17.2159C13.7581 18.0689 13.5198 22.0729 9.15461 22.0729ZM26.2927 20.3514C25.6471 21.2967 24.502 22.0729 22.4808 22.0729C18.1156 22.0729 17.8774 18.0689 17.9388 17.2159C18.0003 16.4089 18.7381 14.1571 22.6115 14.1571C22.988 14.1571 23.3339 14.1879 23.649 14.2417C26.4771 14.7182 27.8989 17.9844 26.2927 20.3514Z" fill="#09090B"/>
</g>
<path d="M5.83251 54.7178H10.619V53.8504H6.79623V51.1948H10.4209V50.3382H6.79623V47.8593H10.619V46.992H5.83251V54.7178ZM12.2841 56.5917C13.2906 56.5917 13.7778 56.1312 14.174 55.0658L16.3478 49.1496H15.368L13.826 53.7862H13.8046L12.268 49.1496H11.2722L13.3388 54.7231L13.2264 55.039C13.0015 55.6708 12.6749 55.8207 12.086 55.8207C11.9735 55.8207 11.8665 55.8046 11.7862 55.7886V56.5488C11.9039 56.5703 12.102 56.5917 12.2841 56.5917ZM19.1586 54.8249C20.374 54.8249 21.2842 54.0967 21.4662 53.1758L21.4769 53.1223H20.5614L20.5453 53.1705C20.3847 53.647 19.8868 54.0003 19.18 54.0003C18.1895 54.0003 17.5578 53.3311 17.5364 52.1853H21.5465V51.8427C21.5465 50.1722 20.6203 49.0425 19.0997 49.0425C17.5792 49.0425 16.594 50.2258 16.594 51.9498V51.9551C16.594 53.7059 17.5578 54.8249 19.1586 54.8249ZM19.0944 49.8671C19.9082 49.8671 20.5078 50.3757 20.5988 51.4572H17.5524C17.6541 50.4185 18.2859 49.8671 19.0944 49.8671ZM24.4644 54.8249C25.7066 54.8249 26.6274 54.1395 26.6274 53.1651V53.1598C26.6274 52.3674 26.2205 51.923 25.0962 51.6499L24.2128 51.4358C23.5971 51.2859 23.3454 51.0235 23.3454 50.6434V50.638C23.3454 50.1455 23.7631 49.8189 24.4377 49.8189C25.1283 49.8189 25.5406 50.1776 25.6155 50.7183L25.6209 50.7558H26.5097L26.5043 50.6862C26.4347 49.7546 25.6584 49.0425 24.4377 49.0425C23.233 49.0425 22.3924 49.7225 22.3924 50.6809V50.6862C22.3924 51.4893 22.9011 51.9765 23.9504 52.2282L24.8339 52.4423C25.4656 52.5976 25.6744 52.8225 25.6744 53.224V53.2294C25.6744 53.7326 25.2247 54.0485 24.4698 54.0485C23.7095 54.0485 23.2973 53.7219 23.1848 53.1651L23.1741 53.1116H22.2425L22.2479 53.1598C22.3603 54.1556 23.1527 54.8249 24.4644 54.8249Z" fill="#333333"/>
<defs>
<clipPath id="clip0_1108_18198">
<rect width="31.9812" height="34.7225" fill="white" transform="translate(0.0466309 0.85791)"/>
</clipPath>
<clipPath id="clip1_1108_18198">
<rect width="14.62" height="3.655" fill="white" transform="translate(8.83899 15.3784)"/>
</clipPath>
</defs>
</svg>
