<?xml version="1.0" encoding="UTF-8"?><svg id="Male_hair_14" xmlns="http://www.w3.org/2000/svg" viewBox="0 0 800 800"><path d="M307.98,193.07c-1.73,2.32-3.03,4.93-4.01,7.66-9.14,25.66-25.5-5.77-25.22,18.72,.31,27.49-28.01,18.31-16.05,32.97,11.19,13.74-22.16,10.09-10.84,27.94,11.31,17.89-22.51,6.89-5.04,33.01,17.42,26.16-25.2,36.25-2.87,52.73,22.29,16.52-29.09,24.18-7.4,39.33,21.69,15.11-8.17,49.22,15.87,67.53,24.04,18.31,1.15,34.25,1.15,34.25,0,0-9.97,14.4,5.57,29.12s-4.2,36.98,10.92,42.87c15.13,5.88-1.28,18.11,5.87,31.9,12.34,23.79-26.9,18.18-10.84,42.92,16.01,24.79-29.71,15.61-8.5,38.99,21.22,23.37-9.9,46.29-20.28,37.16-10.37-9.18-22.63,21.55-22.63,21.55,0,0-13.66-8.72-8.5-28.44,5.21-19.72-29.2-15.61-22.16,10.55,7.09,26.12-25.45,31.18-25.45,31.18,0,0,16.01-30.27,0-40.36-16.05-10.09,6.82-39.44-10-55.47-18.32-17.44,10.72-19.72-3.88-38.53-16.44-21.17,14.13-28.9-6.49-49.95-21.43-21.92,10.25-31.64-5.21-49.07-13.36-15.07,21.56-27.07,.98-52.27-18.1-22.17,5.98-33.01-3.8-54.56-8.62-18.97,26.77-23.37,12.72-53.64-11.87-25.58,16.86-21.55,7.56-53.64-9.01-31.06,14.94-22,8.03-47.25-6.53-23.83,22.03-22.48,22.03-49.1,0-28.56,41.07-20.23,38.25-45.6-2.86-25.33,26.07-13.43,26.07-33.15,0-22.8,51.25-14.56,53.74-33.12,2.82-21.09,27.25,1.2,37.7-16.03,13.34-21.99,42.35-7.84,42.35-7.84,22.6-21.09,41.49,0,41.49,0,10.06-8.23,21.74-6.07,30.06-2.58,5.37,2.25,9.56,6.27,13.23,10.7,9.4,11.37,37.13-3.37,39.69,15.74,2.82,21.05,54.07,12.72,54.07,32.44s32.87,9.5,30.05,34.83c-2.86,25.37,41.34,16.91,34.21,44.6-5.76,22.5,31.59,20.26,22.03,43.1-10.33,24.79,24.55,25.26,8.03,53.25-16.48,27.94,19.85,28.23,7.56,53.64-15.58,32.09,24.51,36.29,12.72,53.64-15.54,22.92,16.56,34.34-3.76,54.56-20.28,20.18,13.96,36.95,.94,52.27-15.58,18.35,16.56,27.49-5.21,49.07-24.04,23.83,13.58,32.01-6.49,49.95-18.96,16.98,15.45,22.09-3.89,38.53-18.83,16.03,10.05,45.38-6,55.47-16.01,10.09,0,40.36,0,40.36,0,0-32.53-5.07-25.44-31.18,7.09-26.16-27.32-30.27-22.16-10.55s-8.5,28.44-8.5,28.44c0,0-12.25-30.72-22.63-21.55-10.37,9.13-41.5-13.78-20.28-37.16,21.22-23.37-24.51-14.2-8.45-38.99,16.01-24.75-23.14-21.09-10.84-44.92,3.06-5.96,3.91-11.18,3.45-15.67,0,0-4.7-11.3,7.06-27.26s-10.5-23.95-1.26-32.6c13.12-12.27,4.64-36.62,4.64-36.62-2.72-6.27-2.43-14.84,9.59-23.99,24.08-18.31-9.82-52.42,11.87-67.53,21.69-15.15-31.2-21.18-8.87-37.7,22.29-16.48-20.09-25.2-2.67-51.36,17.46-26.12-17.09-18.11-5.77-36.01,11.31-17.85-4.72-6.39-4.84-27.94-.16-27-28.93-5.26-24.95-32.46,2.36-16.15-11.23-6.66-16.47-18.64-1.32-3.01-2.95-5.88-5.15-8.33-9.11-10.14-34.91-19.42-95.59-19.42s-83.57,9.39-91.09,19.5Z"/></svg>