<?xml version="1.0" encoding="UTF-8"?><svg id="Ear_3" xmlns="http://www.w3.org/2000/svg" viewBox="0 0 800 800"><defs><style>.cls-1{fill:#333;}</style></defs><circle class="cls-1" cx="221.12" cy="461.21" r="3.61"/><circle class="cls-1" cx="601.9" cy="420.51" r="3.61"/><circle class="cls-1" cx="208.65" cy="451.03" r="3.61"/><circle class="cls-1" cx="599.28" cy="434.97" r="3.61"/><circle class="cls-1" cx="201.42" cy="435.65" r="3.61"/><path class="cls-1" d="M199.86,395.06c-.6-.06-1.17-.34-1.6-.82-.92-1.03-.83-2.61,.2-3.53l25.91-23.07c1.03-.92,2.61-.83,3.53,.2,.92,1.03,.83,2.61-.2,3.53l-25.91,23.07c-.55,.49-1.25,.69-1.93,.62Z"/><path class="cls-1" d="M189.96,395.84c-.14,1.05-.26,2.14-.37,3.25-.25,2.56-.39,5.29-.4,8.19-3.12-.05-5.64-2.6-5.64-5.74s2.57-5.74,5.74-5.74c.23,0,.45,.01,.67,.04Z"/></svg>