<svg width="206" height="183" viewBox="0 0 206 183" fill="none" xmlns="http://www.w3.org/2000/svg">
<g filter="url(#filter0_i_1146_17509)">
<path d="M92.0951 29.9091L171.185 27.037C176.04 26.8607 180.508 30.988 181.164 36.2556C181.164 36.2556 186.316 52.8116 187.525 66.577C188.735 80.3425 186.474 99.9563 186.474 99.9563C187.13 105.224 183.725 109.637 178.87 109.813L99.7803 112.685C94.9249 112.862 90.457 108.734 89.801 103.467C89.801 103.467 92.1243 86.7845 91.4105 75.721C90.6968 64.6576 84.4916 39.7661 84.4916 39.7661C83.8355 34.4986 87.2398 30.0854 92.0951 29.9091Z" fill="#F7F7F7"/>
</g>
<path d="M180.838 35.255C179.257 30.9142 178.68 29.9453 176.792 28.0899C174.904 26.2344 172.126 25.3048 169.794 25.389L92.2185 29.987C91.0643 30.0287 89.9545 30.3342 88.9523 30.886C87.9502 31.4378 87.0754 32.2251 86.3779 33.203C85.6805 34.1808 85.1741 35.3299 84.8878 36.5847C84.6014 37.8395 84.5406 39.1753 84.7089 40.5158L88.5931 58.3339L185.545 54.0821C185.545 54.0821 182.419 39.5959 180.838 35.255Z" fill="#A1E0CA"/>
<path d="M106.195 68.864C106.195 68.864 115.902 70.3951 116.239 72.5954C116.577 74.7958 107.336 76.0147 107.336 76.0147" stroke="black" stroke-width="2" stroke-linecap="round"/>
<path d="M152.951 67.4063C152.951 67.4063 143.527 70.1896 143.48 72.4152C143.432 74.6407 152.752 74.6448 152.752 74.6448" stroke="black" stroke-width="2" stroke-linecap="round"/>
<ellipse cx="133.69" cy="157.197" rx="24.3089" ry="1.59403" fill="black" fill-opacity="0.14"/>
<rect x="122.931" y="109.127" width="7.17313" height="2.56138" transform="rotate(-4.37907 122.931 109.127)" fill="#EFEFEF"/>
<rect x="158.046" y="107.349" width="7.17313" height="1.96941" transform="rotate(-4.37907 158.046 107.349)" fill="#EFEFEF"/>
<path d="M129.375 89.9545C132.28 89.9545 134.635 87.5994 134.635 84.6942C134.635 81.7891 132.28 79.434 129.375 79.434C126.469 79.434 124.114 81.7891 124.114 84.6942C124.114 87.5994 126.469 89.9545 129.375 89.9545Z" fill="#333333"/>
<path d="M129.374 89.9546C130.09 89.9534 130.798 89.8057 131.455 89.5206C132.111 89.2355 132.703 88.819 133.192 88.2968C133.073 87.4998 131.726 86.5912 128.609 86.4875C126.051 86.3999 124.983 86.4875 124.513 86.6948C124.909 87.6586 125.583 88.483 126.448 89.0634C127.314 89.6437 128.332 89.9539 129.374 89.9546Z" fill="#D8D8D8"/>
<path d="M105.735 121.498L114.822 128.878L122.576 111.82" stroke="black" stroke-width="2.39104" stroke-linecap="round" stroke-linejoin="round"/>
<path d="M134.888 125.777L146.244 128.295L153.208 109.429" stroke="black" stroke-width="2.39104" stroke-linecap="round" stroke-linejoin="round"/>
<path d="M76.1381 73.4742C78.2928 73.263 125.583 81.4077 125.583 81.4077C127.499 82.3757 127.711 81.6812 129.102 84.0293C130.493 86.3775 129.311 89.2365 128.398 92.0554C112.69 98.2156 80.5817 113.867 78.9972 113.728C77.0165 113.555 70.6209 110.594 68.1994 95.737C66.2984 84.073 73.9834 73.6854 76.1381 73.4742Z" fill="#78D7BA"/>
<path d="M78.5176 75.2607C89.6268 85.4352 87.2511 98.8502 82.0841 107.598" stroke="black" stroke-width="1.59403" stroke-linecap="round"/>
<path d="M154.016 87.6134C154.016 87.6134 143.655 96.7595 141.663 97.5565C139.67 98.3535 122.933 93.1107 122.933 93.1107" stroke="black" stroke-width="2.39104" stroke-linecap="round" stroke-linejoin="round"/>
<path d="M38.7612 92.6031L33.9855 105.294L29.839 102.814L38.7612 92.6031Z" fill="#ADDDCA"/>
<path d="M56.6089 39.8304L59.1325 26.5079L63.6435 28.2385L56.6089 39.8304Z" fill="#ADDDCA"/>
<path d="M33.7941 93.0019L22.102 99.8688L20.4366 95.3333L33.7941 93.0019Z" fill="#ADDDCA"/>
<path d="M58.7676 43.7679L69.149 35.0453L71.5484 39.2391L58.7676 43.7679Z" fill="#ADDDCA"/>
<path d="M21.9567 69.2143C22.9641 73.4817 25.2511 77.3395 28.5114 80.2713C31.7718 83.2031 35.8499 85.069 40.1999 85.6193L53.1132 90.1959C53.201 90.2267 53.2955 90.2332 53.3868 90.2148C53.478 90.1964 53.5626 90.1538 53.6317 90.0914C53.7007 90.029 53.7517 89.9492 53.7793 89.8603C53.8068 89.7714 53.8099 89.6767 53.7882 89.5862L52.3732 83.59C56.0107 81.8066 59.0709 79.0326 61.2018 75.5872C63.3327 72.1417 64.4478 68.1648 64.4187 64.1137C64.3897 60.0627 63.2177 56.1021 61.0377 52.6875C58.8576 49.273 55.7579 46.5432 52.0952 44.8121C48.4326 43.081 44.3556 42.419 40.3334 42.9021C36.3112 43.3853 32.507 44.994 29.3585 47.5433C26.2099 50.0925 23.845 53.4788 22.5356 57.3125C21.2262 61.1462 21.0255 65.2717 21.9567 69.2143Z" fill="#ADDDCA"/>
<path d="M42.8123 69.2061L45.186 68.646C45.3918 68.6086 45.5746 68.4919 45.6952 68.321C45.8157 68.1501 45.8642 67.9387 45.8303 67.7323L43.3978 51.1093C43.3797 50.9978 43.3382 50.8914 43.2759 50.7971C43.2136 50.7028 43.132 50.6229 43.0364 50.5626C42.9409 50.5023 42.8336 50.463 42.7217 50.4473C42.6098 50.4316 42.4959 50.4398 42.3874 50.4715L37.1902 51.698C37.0775 51.7182 36.9705 51.7625 36.8765 51.8277C36.7825 51.893 36.7036 51.9777 36.6453 52.0762C36.5869 52.1747 36.5505 52.2845 36.5384 52.3983C36.5263 52.5122 36.5389 52.6272 36.5752 52.7358L41.8313 68.6924C41.8963 68.8885 42.035 69.0517 42.218 69.1475C42.401 69.2433 42.6141 69.2643 42.8123 69.2061Z" fill="black"/>
<path d="M46.1959 78.2345C44.2681 78.6894 42.3364 77.4954 41.8815 75.5675C41.4265 73.6397 42.6205 71.708 44.5484 71.2531C46.4762 70.7981 48.4079 71.9922 48.8628 73.92C49.3178 75.8479 48.1238 77.7795 46.1959 78.2345Z" fill="black"/>
<defs>
<filter id="filter0_i_1146_17509" x="84.4106" y="26.2346" width="104.268" height="86.4562" filterUnits="userSpaceOnUse" color-interpolation-filters="sRGB">
<feFlood flood-opacity="0" result="BackgroundImageFix"/>
<feBlend mode="normal" in="SourceGraphic" in2="BackgroundImageFix" result="shape"/>
<feColorMatrix in="SourceAlpha" type="matrix" values="0 0 0 0 0 0 0 0 0 0 0 0 0 0 0 0 0 0 127 0" result="hardAlpha"/>
<feOffset dx="0.797014" dy="-0.797014"/>
<feGaussianBlur stdDeviation="1.99254"/>
<feComposite in2="hardAlpha" operator="arithmetic" k2="-1" k3="1"/>
<feColorMatrix type="matrix" values="0 0 0 0 0 0 0 0 0 0 0 0 0 0 0 0 0 0 0.1 0"/>
<feBlend mode="normal" in2="shape" result="effect1_innerShadow_1146_17509"/>
</filter>
</defs>
</svg>
