<?xml version="1.0" encoding="UTF-8"?><svg id="Female_hair_2_" xmlns="http://www.w3.org/2000/svg" viewBox="0 0 800 800"><path d="M729.58,477.38c-33.99,61.49-74.36,85.09-17.35,130.69,0,0-177.65,43.7-312.22,.65-134.59,43.05-312.23-.65-312.23-.65,57-45.6,12.44-81.83-17.35-130.69-30.03-49.26,22.8-45.89,43.12-91.49,20.32-45.59-8.71-38.2-15.36-79.55-8.21-51.11,31.02-51.82,91-67.82,59.98-16.01-5.54-47.27,59.4-99.18,58.28-46.58,139.84-21.89,151.42-12.78,11.6-9.13,88.15-34.48,146.41,12.09,64.93,51.91,4.47,83.88,64.44,99.89,59.98,16,100.41,16.91,90.96,67.81-7.91,42.61-35.69,33.96-15.37,79.55,20.32,45.6,71.04,41.01,43.13,91.49Z"/></svg>