<?xml version="1.0" encoding="UTF-8"?><svg id="Chin_7" xmlns="http://www.w3.org/2000/svg" viewBox="0 0 800 800"><defs><style>.cls-1{fill:#1a1a1a;}</style></defs><path class="cls-1" d="M560.12,533.71c-7.27,36.87-92.91,119.11-107.34,128.68-14.43,9.57-52.76,7.95-52.76,7.95v-1.8l-.02,1.8s-38.33,1.62-52.75-7.95c-14.43-9.57-100.08-91.81-107.34-128.68-5.95-30.19-3.33-58.9-3.33-58.9,0,0,13.49,44.32,24.68,59.93,11.19,15.6,66.92,96.88,110.39,98.65,0,0,12.41,.29,12.7-7.07,.29-7.36,.74-8.54,.74-8.54,0,0-13.84-2.8-14.58-10.9-.74-8.09-3.24-23.85,0-25.17,2.87-1.18,24.6-1.31,29.51-1.32h0s.22-.01,.63-.01h.35c4.8,.02,25.66,.15,28.52,1.33,3.23,1.32,.73,17.08,0,25.17-.74,8.1-14.58,10.9-14.58,10.9,0,0,.44,1.18,.73,8.54,.3,7.36,12.7,7.07,12.7,7.07,43.48-1.77,99.21-83.05,110.4-98.65,11.19-15.61,24.67-59.93,24.67-59.93,0,0,2.62,28.71-3.32,58.9Z"/><path class="cls-1" d="M504.15,512.01c-9.09,2.18-70.34,13.55-83.91,4.2-13.87-9.55-19.69-15.43-20.23-15.98-.48,.48-6.29,6.36-20.23,15.98-13.59,9.35-74.84-2.02-83.93-4.2-.15-.04-.12-.24,.04-.25,22.41-.29,54.61-30.38,72.84-36.35,17.96-5.87,30.52,2.14,31.28,2.65,.87-.58,13.41-8.49,31.27-2.65,18.23,5.97,50.43,36.06,72.84,36.35,.16,.01,.18,.22,.04,.25Z"/></svg>