<?xml version="1.0" encoding="UTF-8"?><svg id="Female_hair_11" xmlns="http://www.w3.org/2000/svg" viewBox="0 0 800 800"><path d="M510.51,111.98c0,3.08-.13,6.14-.38,9.15-1.57,19.19-8.04,36.98-18.16,52.13-7.47-4.85-15.67-9.11-24.67-12.62-17.78-6.94-38.69-10.98-63.3-10.98-40.14,0-70.47,10.74-93.37,27.3-11.69-16.03-19.16-35.33-20.79-56.28-.23-2.87-.34-5.77-.34-8.7,0-61.03,49.48-110.5,110.51-110.5s110.5,49.47,110.5,110.5Z"/><path d="M236.56,358.1s-21.33-3.62-35.37,11.46c0,0-37.07-238.42,199.11-238.42s199.11,238.67,199.11,238.67c-14.04-15.57-35.96-11.71-35.96-11.71,0,0-18.23-217.35-160.15-157.39,0,0-143.39-78.85-166.73,157.39Z"/></svg>