<?xml version="1.0" encoding="UTF-8"?><svg id="Male_hair_11_" xmlns="http://www.w3.org/2000/svg" viewBox="0 0 800 800"><path d="M182.89,365.23l26.54-2.19c8.74-3.59,18.21-5.04,27.62-4.24l3.56,.3s6.51-75.78,26.21-125.86c0,0,32.93,65.31,66.15,66.97,0,0-10.23-24.69-7.61-55.07,0,0,27.06,37.98,55.07,47,0,0-7.12-22.07,1.42-65.99,0,0,29.43,70.26,75.95,81.41,0,0-8.31-21.6-8.07-48.18,0,0,6.73,12.44,13.87,16.6,0,0-4.61-17.79-4.61-34.88,0,0,45.06,35.95,96.81,51.38,0,0,6.61,47.24,4.47,67.42h0c10.34-3.17,21.2-2.3,30.71,3.08l.08,.05,30.03-4.35c-.44,2.34,25.09-204.3-90.99-225.37,0,0-73.77-84.37-156.81-26.94,0,0-133.15-19.78-187.48,90.65l11.93-1.33s-54.11,59.03-14.83,169.53Z"/></svg>