<svg width="33" height="58" viewBox="0 0 33 58" fill="none" xmlns="http://www.w3.org/2000/svg">
<g clip-path="url(#clip0_1108_18243)">
<mask id="path-1-inside-1_1108_18243" fill="white">
<path fill-rule="evenodd" clip-rule="evenodd" d="M30.6014 23.7698C31.2201 23.192 31.7615 22.1573 31.8946 20.3245C32.2508 15.4178 28.3913 16.0921 28.3913 16.0921C28.3913 16.0921 29.0219 4.99493 20.9444 1.87315C19.6221 1.3617 18.0672 1.06396 16.2371 1.06396C3.22914 1.06396 4.08285 16.0921 4.08285 16.0921C4.08285 16.0921 1.07181 15.5858 0.617442 18.8734C0.607031 18.9508 0.598106 19.0311 0.589926 19.1129C0.571335 19.3016 0.560924 19.5028 0.560181 19.7165C0.560181 19.7821 0.560924 19.8492 0.562412 19.917C0.564642 20.0481 0.569848 20.1845 0.579515 20.3245C0.702217 22.1684 1.24657 23.2046 1.87049 23.7816C1.98353 23.8855 2.09879 23.9747 2.2148 24.0513C2.48772 24.2304 2.76361 24.338 3.01645 24.4006C3.14659 24.4331 3.27078 24.4537 3.3853 24.4662C3.7958 24.5097 4.08285 24.4478 4.08285 24.4478L4.6822 24.5825C6.08348 28.561 9.52607 35.6691 16.237 35.6691C22.9478 35.6691 26.3904 28.5611 27.7917 24.5825L28.3913 24.4478C28.3913 24.4478 28.4924 24.4692 28.6597 24.478C28.775 24.4839 28.9215 24.4832 29.0888 24.4648C29.2033 24.4522 29.3268 24.4309 29.4569 24.3977C29.7098 24.3343 29.9856 24.2245 30.2586 24.0425C30.3738 23.9658 30.4891 23.8759 30.6014 23.7698Z"/>
</mask>
<path fill-rule="evenodd" clip-rule="evenodd" d="M30.6014 23.7698C31.2201 23.192 31.7615 22.1573 31.8946 20.3245C32.2508 15.4178 28.3913 16.0921 28.3913 16.0921C28.3913 16.0921 29.0219 4.99493 20.9444 1.87315C19.6221 1.3617 18.0672 1.06396 16.2371 1.06396C3.22914 1.06396 4.08285 16.0921 4.08285 16.0921C4.08285 16.0921 1.07181 15.5858 0.617442 18.8734C0.607031 18.9508 0.598106 19.0311 0.589926 19.1129C0.571335 19.3016 0.560924 19.5028 0.560181 19.7165C0.560181 19.7821 0.560924 19.8492 0.562412 19.917C0.564642 20.0481 0.569848 20.1845 0.579515 20.3245C0.702217 22.1684 1.24657 23.2046 1.87049 23.7816C1.98353 23.8855 2.09879 23.9747 2.2148 24.0513C2.48772 24.2304 2.76361 24.338 3.01645 24.4006C3.14659 24.4331 3.27078 24.4537 3.3853 24.4662C3.7958 24.5097 4.08285 24.4478 4.08285 24.4478L4.6822 24.5825C6.08348 28.561 9.52607 35.6691 16.237 35.6691C22.9478 35.6691 26.3904 28.5611 27.7917 24.5825L28.3913 24.4478C28.3913 24.4478 28.4924 24.4692 28.6597 24.478C28.775 24.4839 28.9215 24.4832 29.0888 24.4648C29.2033 24.4522 29.3268 24.4309 29.4569 24.3977C29.7098 24.3343 29.9856 24.2245 30.2586 24.0425C30.3738 23.9658 30.4891 23.8759 30.6014 23.7698Z" fill="white"/>
<path d="M31.8946 20.3245L32.8059 20.3907L32.8059 20.3907L31.8946 20.3245ZM30.6014 23.7698L29.9777 23.102L29.9738 23.1057L30.6014 23.7698ZM28.3913 16.0921L27.479 16.0403L27.4136 17.1905L28.5485 16.9922L28.3913 16.0921ZM20.9444 1.87315L20.6147 2.72537L20.615 2.72546L20.9444 1.87315ZM4.08285 16.0921L3.93133 16.9932L5.06004 17.183L4.99513 16.0403L4.08285 16.0921ZM0.617442 18.8734L-0.287709 18.7483L-0.288148 18.7516L0.617442 18.8734ZM0.589926 19.1129L-0.31929 19.022L-0.319419 19.0233L0.589926 19.1129ZM0.560181 19.7165L-0.353569 19.7133V19.7165H0.560181ZM0.562412 19.917L1.47604 19.9014L1.47594 19.8969L0.562412 19.917ZM0.579515 20.3245L1.49125 20.2638L1.49109 20.2616L0.579515 20.3245ZM1.87049 23.7816L1.25006 24.4524L1.25209 24.4543L1.87049 23.7816ZM2.2148 24.0513L1.71111 24.8137L1.71351 24.8153L2.2148 24.0513ZM3.01645 24.4006L3.23738 23.514L3.23619 23.5137L3.01645 24.4006ZM3.3853 24.4662L3.28593 25.3746L3.28906 25.3749L3.3853 24.4662ZM4.08285 24.4478L4.28318 23.5563L4.08689 23.5122L3.89022 23.5546L4.08285 24.4478ZM4.6822 24.5825L5.54405 24.2789L5.37602 23.8019L4.88253 23.691L4.6822 24.5825ZM27.7917 24.5825L27.5914 23.691L27.0979 23.8019L26.9299 24.279L27.7917 24.5825ZM28.3913 24.4478L28.5802 23.5538L28.3853 23.5126L28.1909 23.5563L28.3913 24.4478ZM28.6597 24.478L28.6115 25.3905L28.613 25.3906L28.6597 24.478ZM29.0888 24.4648L28.9894 23.5564L28.9888 23.5565L29.0888 24.4648ZM29.4569 24.3977L29.2347 23.5114L29.2313 23.5122L29.4569 24.3977ZM30.2586 24.0425L29.7526 23.2816L29.7515 23.2823L30.2586 24.0425ZM30.9832 20.2583C30.861 21.9418 30.3773 22.7288 29.9777 23.102L31.225 24.4376C32.0628 23.6553 32.662 22.3728 32.8059 20.3907L30.9832 20.2583ZM28.3913 16.0921C28.5485 16.9922 28.548 16.9923 28.5475 16.9924C28.5473 16.9924 28.5468 16.9925 28.5465 16.9926C28.5459 16.9927 28.5454 16.9928 28.5449 16.9929C28.5439 16.993 28.5431 16.9932 28.5426 16.9932C28.5415 16.9934 28.5412 16.9935 28.5418 16.9934C28.5429 16.9932 28.5473 16.9925 28.5548 16.9915C28.5697 16.9896 28.5965 16.9863 28.6333 16.9832C28.7075 16.977 28.8192 16.9714 28.9543 16.9765C29.231 16.987 29.5677 17.0406 29.8789 17.191C30.1751 17.3341 30.4665 17.5722 30.6793 18.0001C30.8986 18.4409 31.0641 19.1444 30.9832 20.2583L32.8059 20.3907C32.9032 19.0512 32.7198 17.999 32.3156 17.1863C31.905 16.3606 31.2983 15.8472 30.6741 15.5456C30.0649 15.2512 29.459 15.1668 29.0232 15.1503C28.802 15.142 28.615 15.1508 28.4795 15.1622C28.4115 15.168 28.3557 15.1744 28.3143 15.1799C28.2935 15.1827 28.2763 15.1852 28.2629 15.1873C28.2561 15.1883 28.2503 15.1893 28.2455 15.1901C28.2431 15.1905 28.2409 15.1908 28.239 15.1911C28.2381 15.1913 28.2372 15.1915 28.2363 15.1916C28.2359 15.1917 28.2353 15.1918 28.2351 15.1918C28.2345 15.1919 28.234 15.192 28.3913 16.0921ZM20.615 2.72546C24.2639 4.1357 25.9979 7.35778 26.8145 10.3909C27.2203 11.898 27.3871 13.3189 27.4516 14.3656C27.4837 14.8875 27.4902 15.3129 27.4888 15.6049C27.4881 15.7508 27.4855 15.8631 27.4831 15.9373C27.4819 15.9743 27.4808 16.0019 27.48 16.0192C27.4796 16.0279 27.4793 16.034 27.4791 16.0376C27.479 16.0393 27.479 16.0405 27.4789 16.0409C27.4789 16.0411 27.4789 16.0412 27.4789 16.0411C27.4789 16.041 27.4789 16.0408 27.479 16.0408C27.479 16.0406 27.479 16.0403 28.3913 16.0921C29.3035 16.144 29.3036 16.1436 29.3036 16.1432C29.3036 16.143 29.3036 16.1425 29.3036 16.1421C29.3037 16.1413 29.3037 16.1404 29.3038 16.1393C29.3039 16.137 29.3041 16.1341 29.3043 16.1305C29.3046 16.1234 29.3051 16.1136 29.3057 16.1012C29.3068 16.0763 29.3082 16.0412 29.3096 15.9962C29.3125 15.9063 29.3155 15.7772 29.3163 15.6135C29.3179 15.2864 29.3105 14.8204 29.2756 14.2532C29.2059 13.1216 29.0254 11.5731 28.5792 9.91574C27.6918 6.61979 25.7023 2.73238 21.2738 1.02084L20.615 2.72546ZM16.2371 1.97771C17.9666 1.97771 19.4084 2.25876 20.6147 2.72537L21.274 1.02094C19.8358 0.464634 18.1677 0.150216 16.2371 0.150216V1.97771ZM4.08285 16.0921C4.99513 16.0403 4.99514 16.0406 4.99516 16.0409C4.99516 16.0409 4.99517 16.0411 4.99517 16.0412C4.99518 16.0412 4.99517 16.041 4.99515 16.0407C4.99511 16.0399 4.99502 16.0382 4.99489 16.0357C4.99464 16.0305 4.99422 16.0219 4.99371 16.0099C4.99268 15.9858 4.99124 15.9482 4.98983 15.8978C4.98701 15.7971 4.98433 15.6457 4.98531 15.451C4.98726 15.0612 5.00387 14.4995 5.06298 13.8236C5.18166 12.4665 5.46946 10.6758 6.13728 8.89961C6.80499 7.12368 7.83762 5.40102 9.42342 4.12374C10.9959 2.85718 13.1745 1.97771 16.2371 1.97771V0.150216C12.7957 0.150216 10.203 1.14927 8.27707 2.70049C6.36447 4.24099 5.17154 6.27536 4.42669 8.25647C3.68194 10.2373 3.37018 12.2036 3.24243 13.6644C3.17832 14.3974 3.16 15.0097 3.15783 15.4418C3.15675 15.658 3.15971 15.8295 3.16304 15.9489C3.16471 16.0086 3.16648 16.0553 3.16788 16.0881C3.16859 16.1045 3.1692 16.1175 3.16967 16.1268C3.1699 16.1315 3.1701 16.1352 3.17025 16.1381C3.17033 16.1395 3.17039 16.1407 3.17044 16.1417C3.17047 16.1422 3.1705 16.1428 3.17052 16.143C3.17054 16.1435 3.17057 16.1439 4.08285 16.0921ZM1.52259 18.9985C1.61638 18.3199 1.83143 17.9019 2.05217 17.6373C2.27421 17.3712 2.54414 17.2101 2.82337 17.112C3.10853 17.0119 3.39497 16.981 3.6176 16.978C3.72675 16.9766 3.81463 16.9819 3.8714 16.9869C3.89962 16.9894 3.91963 16.9919 3.93015 16.9932C3.9354 16.9939 3.93824 16.9943 3.9385 16.9944C3.93863 16.9944 3.93811 16.9943 3.93692 16.9941C3.93633 16.994 3.93557 16.9939 3.93464 16.9938C3.93417 16.9937 3.93366 16.9936 3.93311 16.9935C3.93284 16.9935 3.93239 16.9934 3.93225 16.9934C3.9318 16.9933 3.93133 16.9932 4.08285 16.0921C4.23436 15.191 4.23387 15.1909 4.23337 15.1909C4.23319 15.1908 4.23267 15.1907 4.23231 15.1907C4.23157 15.1906 4.23079 15.1904 4.22996 15.1903C4.2283 15.19 4.22644 15.1897 4.2244 15.1894C4.22032 15.1887 4.21547 15.188 4.20989 15.1872C4.19873 15.1855 4.18461 15.1835 4.16769 15.1812C4.13389 15.1768 4.08876 15.1716 4.03376 15.1667C3.92409 15.1569 3.77318 15.1483 3.59295 15.1507C3.23681 15.1555 2.74209 15.2036 2.2177 15.3878C1.68737 15.5741 1.11934 15.9028 0.649028 16.4665C0.177411 17.0316 -0.154315 17.7832 -0.287704 18.7483L1.52259 18.9985ZM1.49914 19.2038C1.50672 19.128 1.51448 19.0588 1.52303 18.9953L-0.288148 18.7516C-0.300422 18.8428 -0.310509 18.9342 -0.319289 19.022L1.49914 19.2038ZM1.47392 19.7197C1.47457 19.5336 1.48363 19.3613 1.49927 19.2025L-0.319419 19.0233C-0.340958 19.2419 -0.352723 19.472 -0.353563 19.7133L1.47392 19.7197ZM1.47594 19.8969C1.4746 19.8356 1.47393 19.7752 1.47393 19.7165H-0.353569C-0.353569 19.789 -0.352748 19.8627 -0.351118 19.937L1.47594 19.8969ZM1.49109 20.2616C1.48268 20.1396 1.47803 20.0193 1.47603 19.9014L-0.351206 19.9325C-0.348748 20.077 -0.34298 20.2293 -0.332064 20.3874L1.49109 20.2616ZM2.49091 23.1108C2.09 22.74 1.60382 21.9554 1.49125 20.2638L-0.332218 20.3852C-0.199381 22.3814 0.403141 23.6691 1.25007 24.4524L2.49091 23.1108ZM2.71849 23.2889C2.64243 23.2387 2.5656 23.1794 2.48889 23.1089L1.25209 24.4543C1.40145 24.5916 1.55515 24.7107 1.71111 24.8137L2.71849 23.2889ZM3.23619 23.5137C3.07019 23.4726 2.89204 23.4028 2.71609 23.2874L1.71351 24.8153C2.0834 25.058 2.45703 25.2034 2.79672 25.2876L3.23619 23.5137ZM3.48468 23.5579C3.40683 23.5494 3.32356 23.5355 3.23738 23.514L2.79553 25.2873C2.96963 25.3307 3.13474 25.358 3.28593 25.3746L3.48468 23.5579ZM4.08285 24.4478C3.89022 23.5546 3.89041 23.5546 3.8906 23.5545C3.89066 23.5545 3.89085 23.5545 3.89097 23.5544C3.89122 23.5544 3.89146 23.5543 3.8917 23.5543C3.89218 23.5542 3.89264 23.5541 3.89309 23.554C3.89399 23.5538 3.89482 23.5536 3.89558 23.5535C3.89712 23.5531 3.8984 23.5529 3.89944 23.5527C3.90151 23.5522 3.9026 23.552 3.90275 23.552C3.90303 23.552 3.89959 23.5526 3.89271 23.5537C3.87888 23.5558 3.85178 23.5595 3.81371 23.5626C3.73674 23.5689 3.62039 23.5723 3.48155 23.5576L3.28906 25.3749C3.56072 25.4037 3.79314 25.3979 3.96231 25.3841C4.04732 25.3771 4.11763 25.3681 4.17045 25.3599C4.1969 25.3559 4.21909 25.352 4.23668 25.3487C4.24547 25.3471 4.25313 25.3456 4.25961 25.3443C4.26285 25.3437 4.26579 25.3431 4.26844 25.3425C4.26976 25.3422 4.27101 25.342 4.27218 25.3417C4.27277 25.3416 4.27334 25.3415 4.27389 25.3414C4.27416 25.3413 4.27443 25.3412 4.2747 25.3412C4.27483 25.3412 4.27502 25.3411 4.27509 25.3411C4.27528 25.3411 4.27548 25.341 4.08285 24.4478ZM4.88253 23.691L4.28318 23.5563L3.88251 25.3393L4.48186 25.474L4.88253 23.691ZM16.237 34.7553C13.2461 34.7553 10.9429 33.1831 9.17357 31.0366C7.39659 28.8807 6.22879 26.2231 5.54405 24.2789L3.82034 24.886C4.53689 26.9205 5.79103 29.8061 7.76339 32.1989C9.74338 34.601 12.5169 36.5828 16.237 36.5828V34.7553ZM26.9299 24.279C26.2451 26.2231 25.0773 28.8808 23.3004 31.0366C21.531 33.1831 19.2278 34.7553 16.237 34.7553V36.5828C19.957 36.5828 22.7305 34.6011 24.7105 32.199C26.6829 29.8061 27.937 26.9205 28.6536 24.8861L26.9299 24.279ZM28.1909 23.5563L27.5914 23.691L27.9921 25.474L28.5916 25.3393L28.1909 23.5563ZM28.7079 23.5655C28.6531 23.5627 28.6122 23.5579 28.5891 23.5546C28.5776 23.553 28.5707 23.5518 28.569 23.5515C28.5681 23.5514 28.5686 23.5515 28.5704 23.5518C28.5714 23.552 28.5726 23.5522 28.5743 23.5526C28.5751 23.5527 28.576 23.5529 28.5769 23.5531C28.5774 23.5532 28.578 23.5533 28.5785 23.5534C28.5788 23.5535 28.579 23.5536 28.5793 23.5536C28.5795 23.5537 28.5796 23.5537 28.5797 23.5537C28.5798 23.5537 28.5799 23.5537 28.58 23.5538C28.5801 23.5538 28.5802 23.5538 28.3913 24.4478C28.2023 25.3418 28.2024 25.3418 28.2026 25.3419C28.2026 25.3419 28.2027 25.3419 28.2028 25.3419C28.2029 25.3419 28.2031 25.342 28.2032 25.342C28.2035 25.3421 28.2039 25.3421 28.2042 25.3422C28.2048 25.3423 28.2055 25.3425 28.2062 25.3426C28.2075 25.3429 28.209 25.3432 28.2106 25.3435C28.2138 25.3442 28.2174 25.3449 28.2214 25.3457C28.2294 25.3472 28.2391 25.349 28.2504 25.351C28.2728 25.355 28.3017 25.3597 28.3364 25.3646C28.4057 25.3742 28.499 25.3846 28.6115 25.3905L28.7079 23.5655ZM28.9888 23.5565C28.876 23.5689 28.779 23.5692 28.7064 23.5655L28.613 25.3906C28.771 25.3987 28.967 25.3974 29.1888 25.373L28.9888 23.5565ZM29.2313 23.5122C29.1441 23.5345 29.0629 23.5484 28.9894 23.5564L29.1882 25.3731C29.3438 25.3561 29.5095 25.3273 29.6825 25.2831L29.2313 23.5122ZM29.7515 23.2823C29.5752 23.4 29.3978 23.4705 29.2347 23.5114L29.6791 25.284C30.0217 25.1981 30.3961 25.0491 30.7656 24.8027L29.7515 23.2823ZM29.9738 23.1057C29.9013 23.1742 29.8272 23.232 29.7526 23.2816L30.7645 24.8034C30.9205 24.6996 31.0768 24.5777 31.229 24.4339L29.9738 23.1057Z" fill="black" mask="url(#path-1-inside-1_1108_18243)"/>
<circle cx="29.1645" cy="22.5549" r="0.592027" fill="black"/>
<circle cx="3.57982" cy="22.5549" r="0.592027" fill="black"/>
<circle cx="2.79708" cy="21.389" r="0.455405" fill="black"/>
<line x1="31.4877" y1="17.0225" x2="30.3101" y2="18.2" stroke="black" stroke-width="0.910811" stroke-linecap="round"/>
</g>
<path d="M6.95858 54.8071H11.7451V53.9398H7.9223V51.2842H11.547V50.4276H7.9223V47.9487H11.7451V47.0813H6.95858V54.8071ZM14.5024 54.9142C15.2466 54.9142 15.9158 54.5127 16.2424 53.9023H16.2638V54.8071H17.1954V50.9576C17.1954 49.844 16.3709 49.1319 15.0538 49.1319C13.7421 49.1319 12.9444 49.8707 12.864 50.7863L12.8587 50.8452H13.7582L13.7689 50.797C13.8759 50.2991 14.3257 49.9564 15.0431 49.9564C15.8194 49.9564 16.2638 50.3687 16.2638 51.0486V51.5144L14.6683 51.6054C13.3887 51.6804 12.6499 52.2747 12.6499 53.2223V53.2331C12.6499 54.245 13.3941 54.9142 14.5024 54.9142ZM13.6029 53.2331V53.2223C13.6029 52.703 14.0312 52.3711 14.7754 52.3282L16.2638 52.2372V52.6923C16.2638 53.5008 15.5892 54.1058 14.7112 54.1058C14.0419 54.1058 13.6029 53.7685 13.6029 53.2331ZM18.3787 54.8071H19.3103V51.3699C19.3103 50.5239 19.7814 50.0207 20.5042 50.0207C20.7291 50.0207 20.9272 50.0474 21.0021 50.0742V49.1694C20.9272 49.1587 20.788 49.1319 20.6273 49.1319C20.0009 49.1319 19.5191 49.5388 19.3317 50.1813H19.3103V49.239H18.3787V54.8071ZM23.738 54.9142C24.9801 54.9142 25.901 54.2289 25.901 53.2545V53.2491C25.901 52.4567 25.4941 52.0123 24.3698 51.7393L23.4864 51.5251C22.8707 51.3752 22.619 51.1129 22.619 50.7327V50.7274C22.619 50.2348 23.0366 49.9082 23.7112 49.9082C24.4019 49.9082 24.8142 50.2669 24.8891 50.8077L24.8945 50.8452H25.7832L25.7779 50.7756C25.7083 49.844 24.932 49.1319 23.7112 49.1319C22.5066 49.1319 21.666 49.8118 21.666 50.7702V50.7756C21.666 51.5787 22.1746 52.0659 23.224 52.3175L24.1074 52.5317C24.7392 52.6869 24.948 52.9118 24.948 53.3134V53.3187C24.948 53.822 24.4983 54.1379 23.7434 54.1379C22.9831 54.1379 22.5708 53.8113 22.4584 53.2545L22.4477 53.2009H21.5161L21.5215 53.2491C21.6339 54.245 22.4263 54.9142 23.738 54.9142Z" fill="#333333"/>
<defs>
<clipPath id="clip0_1108_18243">
<rect width="31.9812" height="34.7225" fill="white" transform="translate(0.24646 0.947266)"/>
</clipPath>
</defs>
</svg>
