<?xml version="1.0" encoding="UTF-8"?><svg id="Female_hair_8_" xmlns="http://www.w3.org/2000/svg" viewBox="0 0 800 800"><path d="M597.35,502.8c2.2,20.76-9.61,40.19-22.09,31.36-4.93-3.48-9.34-11.22-12.88-19.3,3.24,14.61,2.88,30.11-13.18,30.34-30.48,.44-63.74-94.92-63.74-94.92h96.07s13.61,31.76,15.82,52.52Z"/><path d="M202.65,502.8c-2.2,20.76,9.61,40.19,22.09,31.36,4.93-3.48,9.34-11.22,12.88-19.3-3.24,14.61-2.88,30.11,13.18,30.34,30.48,.44,63.74-94.92,63.74-94.92h-96.07s-13.61,31.76-15.82,52.52Z"/></svg>