<?xml version="1.0" encoding="UTF-8"?><svg id="Male_hair_11_" xmlns="http://www.w3.org/2000/svg" viewBox="0 0 800 800"><path d="M629.88,401.98c-4.39,83.49-30.52,95.57-35.88,114.74-.21,.75-1.12,1.01-1.72,.52-1.47-1.21-3.79-3.79-5.22-8.7,0,0-7.95,13.59-11.93,38.77,0,0-11.9,7.95-11.69-12.81,0,0-16.57,16.39-18.34,34.03-1.77,17.65-27.83-23.43-27.83-23.43l-246.48-3.09s-18.55,28.71-25.2,26.52c-1.68-.55-1.3-30.15-11.46-36.95,0,0-6.19,15.29-10.6,14.84-4.21-.42,0-20.11-8.4-40.32-.42-1.02-1.87-1.06-2.34-.06-.79,1.72-2.18,4.09-4.59,6.86-.7,.81-2.02,.47-2.23-.58-.6-3.11-2.12-8.93-5.85-16.69-5.52-11.46-55.88-43.62-5.78-172.72h409.93c12.44,17.8,27.4,44.94,25.61,79.07Z"/></svg>