<?xml version="1.0" encoding="UTF-8"?><svg id="Chin_10" xmlns="http://www.w3.org/2000/svg" viewBox="0 0 800 800"><defs><style>.cls-1{opacity:.31;}</style></defs><path class="cls-1" d="M389.77,487.61c-.83-.27-1.57-.74-2.29-1.23-.51-.35-1.13-.55-1.76-.6-48.9-4.4-68.62,54.11-68.62,54.11-56.54-44.17-69.81-80.86-69.81-80.86v-43.13l-10.73,.89v53.69s13.21,67.73,30.04,94.28c18.9,29.83,39.85,51.43,59.35,72.73,11.25,12.29,27.13,19.28,43.78,19.28h60.54c16.65,0,32.53-6.99,43.78-19.28,19.5-21.3,40.45-42.9,59.35-72.73,16.83-26.55,30.04-94.28,30.04-94.28v-53.71l-9.69-.87-1.57,43.13s-12.28,36.69-68.82,80.86c0,0-19.61-58.2-68.24-54.15-1.1,.09-1.81,1.07-2.85,1.44-10.2,3.63-19.01,1.56-22.5,.42Zm75.83,67.74c-6.97,23.41-35.43,25.36-43.82,21.39-8.39-3.98-7.95-22.12-7.95-22.12h-26.19s.44,18.14-7.95,22.12c-8.4,3.97-37.85,2.02-44.82-21.39-4.23-14.2,.93-28.41,5.64-37.38,2.85-5.42,8.75-8.43,14.84-7.81,19.5,2.01,41.86-4.4,44.89-5,3.07,.6,25.4,7.01,44.88,5,6.09-.63,11.99,2.39,14.84,7.81,4.71,8.98,9.87,23.18,5.64,37.38Z"/></svg>