<?xml version="1.0" encoding="utf-8"?>
<!-- Generator: Adobe Illustrator 27.0.1, SVG Export Plug-In . SVG Version: 6.00 Build 0)  -->
<svg version="1.1" id="Eyes_4" xmlns="http://www.w3.org/2000/svg" xmlns:xlink="http://www.w3.org/1999/xlink" x="0px" y="0px"
	 viewBox="0 0 800 800" style="enable-background:new 0 0 800 800;" xml:space="preserve">
<style type="text/css">
	.st0{fill:#09090B;}
</style>
<path class="st0" d="M581.8,324.9c0,0-35.6-12.3-90.2-12.3S423.9,326,421.4,334c-16.8-3.7-37-1-42.8-0.1c-2.6-8.1-18-21.3-70.2-21.3
	s-90.2,12.3-90.2,12.3c0.2,7.6,0,16.6,0,16.6c14.8,0,12.8,19,12.8,19h7.3c0.4,16.4,3.9,39.3,18.1,55.8c11.6,13.6,28.5,20.4,50,20.4
	c23.6,0,41.5-7.1,53.4-21c20.7-24.3,15-60.4,14.8-61.9c0-0.1,0-0.4-0.1-0.8c4.6-2.3,5.7-6.2,5.6-10.6c17.5-3.7,35.4-0.5,40.1,0.4
	c-0.1,3.9,1,7.4,4.7,9.6c-0.3,1.5-0.5,2.6-0.5,2.7c-0.2,1.5-5.9,37.6,14.8,62c11.9,14,29.8,21,53.4,21c21.5,0,38.3-6.9,50-20.4
	c14.7-17.1,17.9-40.9,18.2-57.4h8.6c0,0-2-19,12.8-19C581.9,341.6,581.6,332.5,581.8,324.9L581.8,324.9z M353.7,410.7
	c-10.3,12.1-26.2,18.2-47.4,18.2c-19.1,0-33.9-6-44-17.7c-17.4-20.3-16.8-52.7-15.8-65c5.4-11.7,19.7-26.4,57.6-26.4
	c30,0,46.6,7.9,55.6,16.1c5.4,8,7,18.9,7.1,19.1C366.8,355.4,372,389.2,353.7,410.7L353.7,410.7z M536.4,412.8
	c-10.1,11.7-24.9,17.7-44,17.7c-21.1,0-37.1-6.1-47.4-18.2c-18.3-21.5-13.1-55.3-13-55.7c0-0.1,1.8-12.1,7.8-20.1
	c8.9-8.4,25.5-16.6,56.2-16.6c34.2,0,49.2,12,55.7,22.9h0C551.7,343.2,558.1,387.5,536.4,412.8L536.4,412.8z"/>
</svg>
