<?xml version="1.0" encoding="UTF-8"?><svg id="Female_hair_1_" xmlns="http://www.w3.org/2000/svg" viewBox="0 0 800 800"><path d="M685.77,722.52c-33.13,115.95-108.69,63.37-108.69,63.37,0,0,32.08-38.86-21.84-75.3s-76.86-5.31-76.86-117.94c0-104.19-67.07-369.91-77.12-409.17-10.06,39.26-77.13,304.98-77.13,409.17,0,112.63-24.39,82.82-78.31,119.26-53.91,36.44-17.49,73.97-17.49,73.97,0,0-78.45,52.58-111.58-63.37-33.13-115.95,66.26-102.04-6.63-166.31-72.88-64.27,45.59-76.85,7.95-183.81-35.76-101.63,44.59-29.63,73.58-174.64,32.72-163.66,192.13-84.39,209.61-80.17,17.48-4.22,185.12-82.16,209.6,80.17,22.05,146.23,120.28,77.55,73.58,174.64-47.7,99.17,80.84,119.54,7.95,183.81-72.88,64.27,26.51,50.36-6.62,166.31Z"/></svg>