<svg width="32" height="58" viewBox="0 0 32 58" fill="none" xmlns="http://www.w3.org/2000/svg">
<g clip-path="url(#clip0_1108_18208)">
<mask id="path-1-inside-1_1108_18208" fill="white">
<path fill-rule="evenodd" clip-rule="evenodd" d="M30.0893 23.6228C30.708 23.045 31.2494 22.0104 31.3825 20.1775C31.7387 15.2708 27.8792 15.9451 27.8792 15.9451C27.8792 15.9451 28.5098 4.84795 20.4323 1.72618C19.1101 1.21473 17.5551 0.916992 15.725 0.916992C2.71705 0.916992 3.57076 15.9451 3.57076 15.9451C3.57076 15.9451 0.559727 15.4389 0.105357 18.7264C0.0949459 18.8038 0.0860214 18.8842 0.0778412 18.966C0.05925 19.1546 0.0488394 19.3558 0.0480957 19.5695C0.0480957 19.6351 0.0488393 19.7022 0.0503266 19.77C0.0525575 19.9012 0.0577627 20.0375 0.0674302 20.1775C0.190132 22.0214 0.734484 23.0576 1.35841 23.6346C1.47144 23.7385 1.58671 23.8277 1.70272 23.9044C1.97563 24.0834 2.25153 24.191 2.50437 24.2537C2.63451 24.2861 2.7587 24.3067 2.87322 24.3193C3.28371 24.3627 3.57076 24.3008 3.57076 24.3008L4.16987 24.4355C5.57109 28.4139 9.01369 35.5224 15.7248 35.5224C22.4358 35.5224 25.8784 28.4141 27.2796 24.4356L27.8792 24.3008C27.8792 24.3008 27.9803 24.3222 28.1476 24.3311C28.2629 24.3369 28.4094 24.3362 28.5767 24.3178C28.6912 24.3053 28.8147 24.2839 28.9448 24.2507C29.1977 24.1873 29.4736 24.0775 29.7465 23.8955C29.8617 23.8189 29.977 23.729 30.0893 23.6228Z"/>
</mask>
<path fill-rule="evenodd" clip-rule="evenodd" d="M30.0893 23.6228C30.708 23.045 31.2494 22.0104 31.3825 20.1775C31.7387 15.2708 27.8792 15.9451 27.8792 15.9451C27.8792 15.9451 28.5098 4.84795 20.4323 1.72618C19.1101 1.21473 17.5551 0.916992 15.725 0.916992C2.71705 0.916992 3.57076 15.9451 3.57076 15.9451C3.57076 15.9451 0.559727 15.4389 0.105357 18.7264C0.0949459 18.8038 0.0860214 18.8842 0.0778412 18.966C0.05925 19.1546 0.0488394 19.3558 0.0480957 19.5695C0.0480957 19.6351 0.0488393 19.7022 0.0503266 19.77C0.0525575 19.9012 0.0577627 20.0375 0.0674302 20.1775C0.190132 22.0214 0.734484 23.0576 1.35841 23.6346C1.47144 23.7385 1.58671 23.8277 1.70272 23.9044C1.97563 24.0834 2.25153 24.191 2.50437 24.2537C2.63451 24.2861 2.7587 24.3067 2.87322 24.3193C3.28371 24.3627 3.57076 24.3008 3.57076 24.3008L4.16987 24.4355C5.57109 28.4139 9.01369 35.5224 15.7248 35.5224C22.4358 35.5224 25.8784 28.4141 27.2796 24.4356L27.8792 24.3008C27.8792 24.3008 27.9803 24.3222 28.1476 24.3311C28.2629 24.3369 28.4094 24.3362 28.5767 24.3178C28.6912 24.3053 28.8147 24.2839 28.9448 24.2507C29.1977 24.1873 29.4736 24.0775 29.7465 23.8955C29.8617 23.8189 29.977 23.729 30.0893 23.6228Z" fill="white"/>
<path d="M31.3825 20.1775L32.2939 20.2437L32.2939 20.2437L31.3825 20.1775ZM30.0893 23.6228L29.4656 22.955L29.4617 22.9587L30.0893 23.6228ZM27.8792 15.9451L26.9669 15.8933L26.9015 17.0435L28.0364 16.8453L27.8792 15.9451ZM20.4323 1.72618L20.1026 2.57839L20.1029 2.57849L20.4323 1.72618ZM3.57076 15.9451L3.41925 16.8462L4.54796 17.036L4.48304 15.8933L3.57076 15.9451ZM0.105357 18.7264L-0.799794 18.6013L-0.800233 18.6046L0.105357 18.7264ZM0.0778412 18.966L-0.831375 18.875L-0.831504 18.8764L0.0778412 18.966ZM0.0480957 19.5695L-0.865654 19.5664V19.5695H0.0480957ZM0.0503266 19.77L0.963955 19.7544L0.963856 19.7499L0.0503266 19.77ZM0.0674302 20.1775L0.979166 20.1169L0.979009 20.1146L0.0674302 20.1775ZM1.35841 23.6346L0.737979 24.3055L0.740002 24.3073L1.35841 23.6346ZM1.70272 23.9044L1.19902 24.6667L1.20142 24.6683L1.70272 23.9044ZM2.50437 24.2537L2.7253 23.367L2.72411 23.3667L2.50437 24.2537ZM2.87322 24.3193L2.77384 25.2276L2.77697 25.2279L2.87322 24.3193ZM3.57076 24.3008L3.7711 23.4093L3.5748 23.3652L3.37813 23.4076L3.57076 24.3008ZM4.16987 24.4355L5.03173 24.1319L4.8637 23.6548L4.37021 23.5439L4.16987 24.4355ZM27.2796 24.4356L27.0793 23.5441L26.5858 23.6549L26.4177 24.132L27.2796 24.4356ZM27.8792 24.3008L28.0681 23.4068L27.8732 23.3656L27.6788 23.4093L27.8792 24.3008ZM28.1476 24.3311L28.0994 25.2435L28.101 25.2436L28.1476 24.3311ZM28.5767 24.3178L28.4774 23.4095L28.4767 23.4095L28.5767 24.3178ZM28.9448 24.2507L28.7227 23.3644L28.7192 23.3653L28.9448 24.2507ZM29.7465 23.8955L29.2405 23.1346L29.2395 23.1353L29.7465 23.8955ZM30.4712 20.1113C30.3489 21.7949 29.8653 22.5818 29.4657 22.955L30.7129 24.2907C31.5508 23.5083 32.1499 22.2259 32.2939 20.2437L30.4712 20.1113ZM27.8792 15.9451C28.0364 16.8453 28.0359 16.8454 28.0354 16.8454C28.0353 16.8455 28.0348 16.8456 28.0345 16.8456C28.0339 16.8457 28.0333 16.8458 28.0328 16.8459C28.0318 16.8461 28.0311 16.8462 28.0305 16.8463C28.0294 16.8465 28.0291 16.8465 28.0297 16.8464C28.0308 16.8462 28.0352 16.8456 28.0427 16.8446C28.0576 16.8426 28.0844 16.8394 28.1212 16.8363C28.1954 16.83 28.3071 16.8245 28.4422 16.8296C28.7189 16.84 29.0556 16.8937 29.3668 17.044C29.663 17.1872 29.9544 17.4252 30.1672 17.8531C30.3865 18.2939 30.552 18.9974 30.4712 20.1114L32.2939 20.2437C32.3911 18.9043 32.2078 17.852 31.8035 17.0393C31.3929 16.2136 30.7862 15.7002 30.162 15.3986C29.5528 15.1042 28.9469 15.0198 28.5111 15.0034C28.2899 14.995 28.1029 15.0038 27.9674 15.0152C27.8994 15.021 27.8436 15.0275 27.8022 15.033C27.7814 15.0357 27.7642 15.0382 27.7508 15.0403C27.744 15.0414 27.7383 15.0423 27.7334 15.0431C27.731 15.0435 27.7289 15.0438 27.7269 15.0442C27.726 15.0443 27.7251 15.0445 27.7242 15.0446C27.7238 15.0447 27.7232 15.0448 27.723 15.0448C27.7225 15.0449 27.7219 15.045 27.8792 15.9451ZM20.1029 2.57849C23.7518 3.98872 25.4858 7.21081 26.3025 10.2439C26.7083 11.751 26.875 13.1719 26.9395 14.2186C26.9716 14.7406 26.9781 15.1659 26.9768 15.4579C26.9761 15.6038 26.9734 15.7161 26.971 15.7903C26.9698 15.8274 26.9687 15.8549 26.9679 15.8722C26.9675 15.8809 26.9672 15.8871 26.967 15.8906C26.9669 15.8924 26.9669 15.8935 26.9669 15.8939C26.9668 15.8942 26.9668 15.8942 26.9669 15.8941C26.9669 15.8941 26.9669 15.8939 26.9669 15.8938C26.9669 15.8936 26.9669 15.8933 27.8792 15.9451C28.7915 15.997 28.7915 15.9966 28.7915 15.9962C28.7915 15.996 28.7915 15.9955 28.7916 15.9952C28.7916 15.9944 28.7916 15.9934 28.7917 15.9923C28.7918 15.9901 28.792 15.9872 28.7922 15.9836C28.7925 15.9764 28.793 15.9666 28.7936 15.9542C28.7947 15.9294 28.7961 15.8942 28.7976 15.8492C28.8005 15.7593 28.8035 15.6302 28.8042 15.4665C28.8058 15.1395 28.7985 14.6734 28.7635 14.1063C28.6938 12.9746 28.5134 11.4261 28.0671 9.76877C27.1797 6.47281 25.1902 2.58541 20.7617 0.873868L20.1029 2.57849ZM15.725 1.83074C17.4545 1.83074 18.8964 2.11179 20.1026 2.57839L20.7619 0.873965C19.3238 0.317661 17.6556 0.00324285 15.725 0.00324285V1.83074ZM3.57076 15.9451C4.48304 15.8933 4.48306 15.8937 4.48307 15.8939C4.48308 15.8939 4.48309 15.8942 4.48309 15.8942C4.48309 15.8942 4.48308 15.8941 4.48306 15.8937C4.48302 15.8929 4.48293 15.8912 4.48281 15.8887C4.48255 15.8836 4.48214 15.875 4.48162 15.8629C4.48059 15.8389 4.47915 15.8012 4.47774 15.7508C4.47493 15.6501 4.47225 15.4987 4.47322 15.304C4.47518 14.9142 4.49178 14.3525 4.55089 13.6766C4.66957 12.3196 4.95737 10.5289 5.62519 8.75264C6.2929 6.97671 7.32553 5.25405 8.91133 3.97677C10.4838 2.7102 12.6624 1.83074 15.725 1.83074V0.00324285C12.2836 0.00324285 9.69089 1.0023 7.76498 2.55352C5.85238 4.09402 4.65945 6.12839 3.9146 8.1095C3.16986 10.0903 2.85809 12.0567 2.73034 13.5174C2.66624 14.2504 2.64792 14.8628 2.64575 15.2948C2.64466 15.511 2.64762 15.6825 2.65096 15.8019C2.65263 15.8616 2.65439 15.9083 2.6558 15.9412C2.6565 15.9576 2.65711 15.9705 2.65758 15.9798C2.65781 15.9845 2.65801 15.9883 2.65816 15.9911C2.65824 15.9926 2.65831 15.9938 2.65836 15.9947C2.65839 15.9952 2.65842 15.9958 2.65843 15.996C2.65846 15.9965 2.65848 15.997 3.57076 15.9451ZM1.0105 18.8515C1.1043 18.1729 1.31934 17.7549 1.54008 17.4904C1.76213 17.2243 2.03205 17.0631 2.31128 16.9651C2.59645 16.8649 2.88288 16.8341 3.10551 16.8311C3.21467 16.8296 3.30255 16.8349 3.35931 16.8399C3.38753 16.8425 3.40754 16.8449 3.41807 16.8463C3.42332 16.8469 3.42615 16.8474 3.42641 16.8474C3.42654 16.8474 3.42603 16.8474 3.42484 16.8472C3.42425 16.8471 3.42348 16.8469 3.42255 16.8468C3.42209 16.8467 3.42158 16.8466 3.42103 16.8465C3.42075 16.8465 3.42031 16.8464 3.42017 16.8464C3.41971 16.8463 3.41925 16.8462 3.57076 15.9451C3.72228 15.044 3.72179 15.044 3.72129 15.0439C3.7211 15.0439 3.72059 15.0438 3.72022 15.0437C3.71949 15.0436 3.7187 15.0435 3.71787 15.0433C3.71621 15.043 3.71436 15.0427 3.71232 15.0424C3.70823 15.0418 3.70339 15.041 3.69781 15.0402C3.68665 15.0385 3.67252 15.0365 3.65561 15.0343C3.6218 15.0298 3.57668 15.0246 3.52167 15.0197C3.412 15.0099 3.26109 15.0013 3.08086 15.0037C2.72473 15.0085 2.23 15.0566 1.70561 15.2408C1.17529 15.4271 0.607258 15.7559 0.136943 16.3195C-0.334674 16.8847 -0.6664 17.6362 -0.799788 18.6013L1.0105 18.8515ZM0.987056 19.0569C0.994636 18.9811 1.0024 18.9118 1.01095 18.8483L-0.800233 18.6046C-0.812507 18.6958 -0.822594 18.7872 -0.831374 18.875L0.987056 19.0569ZM0.961839 19.5727C0.962487 19.3866 0.971543 19.2143 0.987186 19.0556L-0.831504 18.8764C-0.853043 19.0949 -0.864808 19.325 -0.865648 19.5664L0.961839 19.5727ZM0.963856 19.7499C0.962511 19.6886 0.961845 19.6283 0.961845 19.5695H-0.865654C-0.865654 19.642 -0.864833 19.7157 -0.863203 19.79L0.963856 19.7499ZM0.979009 20.1146C0.970591 19.9927 0.965948 19.8723 0.963944 19.7544L-0.863291 19.7855C-0.860833 19.93 -0.855065 20.0824 -0.844149 20.2405L0.979009 20.1146ZM1.97883 22.9638C1.57791 22.593 1.09173 21.8084 0.979163 20.1169L-0.844303 20.2382C-0.711466 22.2344 -0.108944 23.5222 0.737981 24.3055L1.97883 22.9638ZM2.20641 23.142C2.13035 23.0917 2.05352 23.0324 1.97681 22.9619L0.740002 24.3073C0.889364 24.4446 1.04306 24.5637 1.19902 24.6667L2.20641 23.142ZM2.72411 23.3667C2.55811 23.3256 2.37995 23.2558 2.20401 23.1404L1.20142 24.6683C1.57132 24.911 1.94495 25.0564 2.28463 25.1406L2.72411 23.3667ZM2.9726 23.4109C2.89474 23.4024 2.81147 23.3885 2.72529 23.367L2.28344 25.1403C2.45754 25.1837 2.62265 25.2111 2.77384 25.2276L2.9726 23.4109ZM3.57076 24.3008C3.37813 23.4076 3.37832 23.4076 3.37851 23.4075C3.37857 23.4075 3.37876 23.4075 3.37889 23.4075C3.37913 23.4074 3.37938 23.4074 3.37962 23.4073C3.3801 23.4072 3.38056 23.4071 3.38101 23.407C3.3819 23.4068 3.38273 23.4066 3.3835 23.4065C3.38503 23.4062 3.38632 23.4059 3.38735 23.4057C3.38942 23.4053 3.39051 23.4051 3.39066 23.405C3.39094 23.405 3.3875 23.4056 3.38063 23.4067C3.3668 23.4088 3.33969 23.4125 3.30162 23.4156C3.22465 23.4219 3.1083 23.4253 2.96947 23.4106L2.77697 25.2279C3.04863 25.2567 3.28105 25.2509 3.45023 25.2371C3.53524 25.2301 3.60555 25.2211 3.65837 25.213C3.68482 25.2089 3.70701 25.205 3.72459 25.2018C3.73339 25.2001 3.74105 25.1987 3.74752 25.1973C3.75076 25.1967 3.75371 25.1961 3.75635 25.1955C3.75768 25.1953 3.75893 25.195 3.7601 25.1948C3.76069 25.1946 3.76125 25.1945 3.7618 25.1944C3.76208 25.1943 3.76235 25.1943 3.76261 25.1942C3.76274 25.1942 3.76294 25.1941 3.76301 25.1941C3.7632 25.1941 3.76339 25.194 3.57076 24.3008ZM4.37021 23.5439L3.7711 23.4093L3.37043 25.1924L3.96954 25.327L4.37021 23.5439ZM15.7248 34.6086C12.7338 34.6086 10.4306 33.0363 8.66122 30.8897C6.88422 28.7338 5.71644 26.076 5.03173 24.1319L3.30802 24.739C4.02452 26.7734 5.27865 29.6591 7.25102 32.052C9.23102 34.4542 12.0046 36.4361 15.7248 36.4361V34.6086ZM26.4177 24.132C25.733 26.0761 24.5652 28.7338 22.7882 30.8897C21.0189 33.0363 18.7156 34.6086 15.7248 34.6086V36.4361C19.4449 36.4361 22.2184 34.4543 24.1984 32.0521C26.1708 29.6592 27.4249 26.7735 28.1415 24.7391L26.4177 24.132ZM27.6788 23.4093L27.0793 23.5441L27.4799 25.3271L28.0795 25.1924L27.6788 23.4093ZM28.1959 23.4186C28.1411 23.4157 28.1001 23.4109 28.077 23.4077C28.0655 23.406 28.0586 23.4049 28.0569 23.4046C28.0561 23.4044 28.0565 23.4045 28.0584 23.4048C28.0593 23.405 28.0605 23.4053 28.0622 23.4056C28.063 23.4058 28.0639 23.4059 28.0649 23.4062C28.0654 23.4063 28.0659 23.4064 28.0664 23.4065C28.0667 23.4065 28.067 23.4066 28.0672 23.4066C28.0674 23.4067 28.0675 23.4067 28.0677 23.4067C28.0677 23.4068 28.0678 23.4068 28.0679 23.4068C28.068 23.4068 28.0681 23.4068 27.8792 24.3008C27.6903 25.1948 27.6904 25.1949 27.6905 25.1949C27.6905 25.1949 27.6906 25.1949 27.6907 25.1949C27.6908 25.195 27.691 25.195 27.6911 25.195C27.6915 25.1951 27.6918 25.1952 27.6921 25.1952C27.6927 25.1954 27.6934 25.1955 27.6941 25.1956C27.6955 25.1959 27.6969 25.1962 27.6985 25.1966C27.7017 25.1972 27.7053 25.1979 27.7093 25.1987C27.7173 25.2003 27.727 25.2021 27.7383 25.2041C27.7608 25.208 27.7896 25.2128 27.8243 25.2176C27.8936 25.2273 27.9869 25.2376 28.0994 25.2435L28.1959 23.4186ZM28.4767 23.4095C28.3639 23.4219 28.2669 23.4222 28.1943 23.4185L28.101 25.2436C28.2589 25.2517 28.4549 25.2505 28.6767 25.226L28.4767 23.4095ZM28.7192 23.3653C28.632 23.3875 28.5508 23.4014 28.4774 23.4095L28.6761 25.2261C28.8317 25.2091 28.9974 25.1803 29.1705 25.1362L28.7192 23.3653ZM29.2395 23.1353C29.0631 23.253 28.8857 23.3235 28.7227 23.3644L29.167 25.1371C29.5096 25.0512 29.884 24.9021 30.2535 24.6557L29.2395 23.1353ZM29.4617 22.9587C29.3892 23.0272 29.3151 23.0851 29.2405 23.1346L30.2524 24.6564C30.4084 24.5527 30.5648 24.4307 30.7169 24.2869L29.4617 22.9587Z" fill="black" mask="url(#path-1-inside-1_1108_18208)"/>
<path d="M15.6559 15.877C14.899 17.8713 13.5556 22.044 14.2367 22.7804C14.9179 23.5167 16.2234 23.0872 16.7911 22.7804" stroke="black" stroke-width="0.685312" stroke-linecap="round"/>
<path d="M4.36574 54.6597H5.31875V48.5615H5.34552L9.5966 54.6597H10.5335V46.9338H9.58054V53.0321H9.55377L5.30269 46.9338H4.36574V54.6597ZM14.1957 54.7667C15.7323 54.7667 16.771 53.6531 16.771 51.8756V51.8649C16.771 50.0874 15.7269 48.9844 14.1903 48.9844C12.6537 48.9844 11.6151 50.0927 11.6151 51.8649V51.8756C11.6151 53.6478 12.6484 54.7667 14.1957 54.7667ZM14.201 53.9422C13.2159 53.9422 12.5681 53.1873 12.5681 51.8756V51.8649C12.5681 50.5639 13.2213 49.8089 14.1903 49.8089C15.1755 49.8089 15.8179 50.5585 15.8179 51.8649V51.8756C15.8179 53.182 15.1808 53.9422 14.201 53.9422ZM19.6889 54.7667C20.931 54.7667 21.8519 54.0814 21.8519 53.107V53.1017C21.8519 52.3093 21.445 51.8649 20.3207 51.5918L19.4373 51.3777C18.8215 51.2278 18.5699 50.9654 18.5699 50.5853V50.5799C18.5699 50.0874 18.9875 49.7608 19.6621 49.7608C20.3528 49.7608 20.765 50.1195 20.84 50.6602L20.8454 50.6977H21.7341L21.7288 50.6281C21.6592 49.6965 20.8828 48.9844 19.6621 48.9844C18.4575 48.9844 17.6169 49.6644 17.6169 50.6228V50.6281C17.6169 51.4312 18.1255 51.9184 19.1749 52.1701L20.0583 52.3842C20.6901 52.5395 20.8989 52.7644 20.8989 53.1659V53.1713C20.8989 53.6745 20.4492 53.9904 19.6942 53.9904C18.934 53.9904 18.5217 53.6638 18.4093 53.107L18.3986 53.0535H17.467L17.4723 53.1017C17.5848 54.0975 18.3772 54.7667 19.6889 54.7667ZM25.1125 54.7667C26.3278 54.7667 27.238 54.0386 27.4201 53.1177L27.4308 53.0642H26.5152L26.4992 53.1124C26.3386 53.5889 25.8406 53.9422 25.1339 53.9422C24.1434 53.9422 23.5116 53.273 23.4902 52.1272H27.5004V51.7846C27.5004 50.1141 26.5741 48.9844 25.0536 48.9844C23.5331 48.9844 22.5479 50.1677 22.5479 51.8917V51.897C22.5479 53.6478 23.5116 54.7667 25.1125 54.7667ZM25.0482 49.8089C25.862 49.8089 26.4617 50.3176 26.5527 51.3991H23.5063C23.608 50.3604 24.2398 49.8089 25.0482 49.8089Z" fill="#333333"/>
</g>
<defs>
<clipPath id="clip0_1108_18208">
<rect width="31.3576" height="56.7427" fill="white" transform="translate(0.0480957 0.916992)"/>
</clipPath>
</defs>
</svg>
