<?xml version="1.0" encoding="UTF-8"?><svg id="Chin_5" xmlns="http://www.w3.org/2000/svg" viewBox="0 0 800 800"><defs><style>.cls-1{fill:#1a1a1a;}</style></defs><path class="cls-1" d="M479.98,514.93s-24.94-54.88-79.82-35.7c-54.88-19.18-80.14,35.7-80.14,35.7,0,0-6.44,84.2,.59,102.94,.88,2.34,1.99,4.81,3.38,7.39,.55,1.03,1.15,2.1,1.83,3.17,1.11,1.79,2.3,3.62,3.69,5.4,7.58,9.89,19.3,19.7,36.38,25.54,3.09,1.03,6.39,1.99,9.85,2.74,1.7,.4,3.53,.75,5.36,1.03,.04,.04,.08,0,.08,0,3.25,.52,6.67,.92,10.24,1.19,2.7,.2,5.52,.32,8.46,.32h.64c49.84-.24,71.88-28.15,78.87-46.78,7.03-18.74,.59-102.94,.59-102.94Zm-61.28,38.28v-13.07c0-2.53-2.05-4.58-4.58-4.58h-28.19c-2.53,0-4.58,2.05-4.58,4.58v13.07c-50,0-53.36-33.61-53.36-33.61,0,0,.87-18.56,29.41-15.97,28.54,2.59,42.62-9.66,42.62-9.66,0,0,14.08,12.25,42.63,9.66,28.54-2.59,29.41,15.97,29.41,15.97,0,0-3.36,33.61-53.36,33.61Z"/></svg>