<?xml version="1.0" encoding="UTF-8"?><svg id="Chin_9" xmlns="http://www.w3.org/2000/svg" viewBox="0 0 800 800"><defs><style>.cls-1{fill:#1a1a1a;}</style></defs><path class="cls-1" d="M504.15,512.01c-9.09,2.18-70.34,13.55-83.91,4.2-13.87-9.55-19.69-15.43-20.23-15.98-.48,.48-6.29,6.36-20.23,15.98-13.59,9.35-74.84-2.02-83.93-4.2-.15-.04-.12-.24,.04-.25,22.41-.29,54.61-30.38,72.84-36.35,17.96-5.87,30.52,2.14,31.28,2.65,.87-.58,13.41-8.49,31.27-2.65,18.23,5.97,50.43,36.06,72.84,36.35,.16,.01,.18,.22,.04,.25Z"/></svg>