<?xml version="1.0" encoding="UTF-8"?><svg id="Male_hair_8" xmlns="http://www.w3.org/2000/svg" viewBox="0 0 800 800"><path d="M581.41,359.14c-.93-.24-1.85-.44-2.75-.62-14.39-2.76-22.99,5.01-27.83,18.85-.14,.4-.27,.81-.4,1.23,0,0,6.02-89.53-27.11-165.4,0,0-100.11,11.44-242.76-4.99,0,0-40.16,135.76-31.01,171.68-.21-.56-1.99-3.73-4.76-7.59-6.81-9.48-14.75-14.38-24.11-13.23-1.06-29.14-1.41-123.71,19.01-168.55h0c25.87-49.49,73.19-90.96,159.24-90.45,93.64,.55,141.75,45.19,167.24,99.14,1.08,2.29,1.91,4.7,2.52,7.16,.05,.21,.08,.33,.08,.33,12.24,35.91,12.88,125.61,12.62,152.42Z"/></svg>