<?xml version="1.0" encoding="UTF-8"?><svg id="Male_hair_7" xmlns="http://www.w3.org/2000/svg" viewBox="0 0 800 800"><defs><style>.cls-1{fill:#3c3c3b;}</style></defs><path class="cls-1" d="M248.48,360.4s12.15-162.63,50.72-162.63c0,0,2.72-14.77,8-19.99,0,0-37.16-23.49-64.29,10.8-25.2,31.85-20.26,169.83-20.26,169.83,0,0,17.47-.45,25.83,1.99Z"/><path class="cls-1" d="M553.03,362.39s-9.93-162.15-48.5-162.15c0,0-1.96-17.23-7.24-22.45,0,0,34.17-23.49,61.31,10.8,25.2,31.85,18.27,169.64,18.27,169.64-16.14-.69-23.83,4.17-23.83,4.17Z"/></svg>