<?xml version="1.0" encoding="UTF-8"?><svg id="Chin_8" xmlns="http://www.w3.org/2000/svg" viewBox="0 0 800 800"><defs><style>.cls-1{fill:#1a1a1a;}</style></defs><path class="cls-1" d="M508.13,599.67c-42.66,84.4-106.08,81.02-108.13,80.88h-.05c-2.05,.15-65.48,4.01-108.14-80.38,0,0,42.97,27.81,69.46,8.58,25.58-18.56,37.86-53.04,38.68-55.42,.01-.02,.02-.04,.03-.06,0,.02,.01,.04,.02,.06,.82,2.38,13.1,36.86,38.68,55.42,26.49,19.23,69.45-9.08,69.45-9.08Z"/><path class="cls-1" d="M399.98,553.27s-.02,.04-.03,.06v-.13s.01,.02,.03,.07Z"/><path class="cls-1" d="M400,553.2v.13s-.02-.04-.02-.06c.01-.05,.02-.07,.02-.07Z"/></svg>