<?xml version="1.0" encoding="UTF-8"?><svg id="Male_hair_13" xmlns="http://www.w3.org/2000/svg" viewBox="0 0 800 800"><path d="M554.67,360.46l-12.4-99.57s-50.07-13.93-90.29-56.32c0,0,25.07,34.52,9.92,45.42-15.15,10.9-56.89-39.13-56.89-39.13,0,0,20.33,37.67,8.84,44.34-11.49,6.66-49.1-40.34-49.1-40.34,0,0,19.33,33.25,8.36,42.34-10.97,9.08-44.4-37.49-44.4-37.49,0,0,20.37,29.07,7.31,39.36-13.06,10.3-43.35-38.15-43.35-38.15,0,0-7.45,22.41-34.61,36.34l-11.07,102.35s-14.89-2.18-29.48,0c0,0-23.56-160.48,15.09-208.93,38.65-48.45,90.36-27.86,90.36-27.86,0,0,41.26-67.83,150.96-42.39,109.69,25.44,121.75,171.82,109.11,279.18,0,0-18.35-1.64-28.36,.86Z"/></svg>