<svg width="157" height="133" viewBox="0 0 157 133" fill="none" xmlns="http://www.w3.org/2000/svg">
<ellipse cx="115.765" cy="120.336" rx="1.86806" ry="1.24538" transform="rotate(-18.2328 115.765 120.336)" fill="black" fill-opacity="0.63"/>
<path fill-rule="evenodd" clip-rule="evenodd" d="M104.219 90.7387C99.9786 95.1618 80.8722 100.398 57.5871 103.206C25.9374 106.292 8.5031 104.471 8.02485 100.506C7.45526 95.7821 28.7216 89.3328 55.5245 86.1007C81.753 82.9378 103.564 84.0277 105.02 88.5021C107.466 88.9581 110.179 89.5069 113.029 90.1288C123.595 92.4349 132.037 94.8735 131.884 95.5755C131.731 96.2776 123.041 94.9773 112.474 92.6712C109.507 92.0237 106.708 91.3658 104.219 90.7387Z" fill="black" fill-opacity="0.14"/>
<g filter="url(#filter0_i_1146_17451)">
<path d="M92.9195 7.69065L12.2968 16.9755C7.34727 17.5455 3.40182 22.4275 3.48433 27.8799C3.48433 27.8799 0.610119 45.4932 1.33767 59.6635C2.06522 73.8339 7.14368 93.4098 7.14368 93.4098C7.22619 98.8621 11.3054 102.82 16.2549 102.25L96.8777 92.9652C101.827 92.3952 105.773 87.5132 105.69 82.0608C105.69 82.0608 100.965 65.4724 100.118 54.1234C99.2714 42.7744 102.031 16.5309 102.031 16.5309C101.948 11.0786 97.869 7.12065 92.9195 7.69065Z" fill="#F7F7F7"/>
</g>
<path d="M3.72399 27.3964C4.7106 22.743 5.15791 21.6699 6.80858 19.4942C8.45926 17.3184 11.1454 15.9458 13.5222 15.6721L92.8548 8.38891C94.0313 8.25342 95.2004 8.39272 96.2953 8.79885C97.3901 9.20499 98.3893 9.86999 99.2357 10.7558C100.082 11.6417 100.759 12.731 101.228 13.9616C101.697 15.1921 101.948 16.5398 101.968 17.9275L100.562 36.6266L1.62625 47.2474C1.62625 47.2474 2.73738 32.0497 3.72399 27.3964Z" fill="#A1E0CA"/>
<path d="M45.0973 70.0877C46.4281 69.9478 47.4786 67.6573 47.4341 64.973C47.3895 62.2886 46.2671 60.235 44.9363 60.3749C43.6055 60.5147 42.5634 62.8043 42.6078 65.4802C42.6522 68.1561 43.7665 70.2275 45.0973 70.0877Z" fill="#333333"/>
<path d="M88.2476 64.5951C89.5784 64.4553 90.6204 62.1657 90.5759 59.4813C90.5314 56.797 89.4173 54.7425 88.0865 54.8823C86.7557 55.0222 85.7558 57.3074 85.8002 59.9833C85.8446 62.6592 86.9168 64.735 88.2476 64.5951Z" fill="#333333"/>
<path d="M124.678 64.5949L100.117 59.632" stroke="black" stroke-width="2.54075" stroke-linecap="round" stroke-linejoin="round"/>
<path d="M7.31228 70.7204L1.43868 96.1279" stroke="black" stroke-width="2.54075" stroke-linecap="round" stroke-linejoin="round"/>
<path d="M130.607 94.6583L128.447 94.6583C128.447 94.6583 146.063 91.1436 154.32 98.5711C162.789 106.193 130.607 105.346 130.607 105.346L119.597 116.356" stroke="black" stroke-opacity="0.63" stroke-width="1.69383" stroke-linecap="round" stroke-linejoin="round"/>
<path d="M34.9056 99.0922L56.5321 110.949L61.0641 97.2158" stroke="black" stroke-width="2.54075" stroke-linecap="round"/>
<path d="M70.0204 94.106L95.1616 100.87L99.2702 88.4074" stroke="black" stroke-width="2.54075" stroke-linecap="round"/>
<path d="M61.4944 77.4909C61.4944 77.4909 62.8328 75.1328 67.4324 74.3974C72.032 73.6621 74.8752 75.3518 74.8752 75.3518" stroke="black" stroke-width="2.54075" stroke-linecap="round"/>
<line x1="123.709" y1="46.295" x2="129.942" y2="94.6041" stroke="#54380F" stroke-width="4.23458" stroke-linecap="round"/>
<defs>
<filter id="filter0_i_1146_17451" x="1.21973" y="5.94227" width="106.166" height="96.3624" filterUnits="userSpaceOnUse" color-interpolation-filters="sRGB">
<feFlood flood-opacity="0" result="BackgroundImageFix"/>
<feBlend mode="normal" in="SourceGraphic" in2="BackgroundImageFix" result="shape"/>
<feColorMatrix in="SourceAlpha" type="matrix" values="0 0 0 0 0 0 0 0 0 0 0 0 0 0 0 0 0 0 127 0" result="hardAlpha"/>
<feOffset dx="1.69383" dy="-1.69383"/>
<feGaussianBlur stdDeviation="2.11729"/>
<feComposite in2="hardAlpha" operator="arithmetic" k2="-1" k3="1"/>
<feColorMatrix type="matrix" values="0 0 0 0 0 0 0 0 0 0 0 0 0 0 0 0 0 0 0.1 0"/>
<feBlend mode="normal" in2="shape" result="effect1_innerShadow_1146_17451"/>
</filter>
</defs>
</svg>
