<?xml version="1.0" encoding="UTF-8"?><svg id="Male_hair_2" xmlns="http://www.w3.org/2000/svg" viewBox="0 0 800 800"><path d="M610.85,685.06c-20.8-43.72-26.22-98.03-26.22-98.03-4.64,47.04-40.46,68.25-40.46,68.25,19.21-73.55,16.53-121.92,16.53-121.92-8.68,27.17-31.8,39.68-31.8,39.68,31.81-108.08,22.54-207.81,22.54-207.81-3.61,15.81-11.27,27.29-11.27,27.29-10.44-117.23-47.67-174.2-80.7-201.87-47.61,6.6-90.99,4.61-120.49,1.46-37.53,27.76-78.5,83.16-83.41,193.25l-7.83-12.75s1.7,139.65,31.51,210.62c-.48-.25-15.31-8.6-31.62-28.65,0,0-15.01,42.44,7.94,104.06,0,0-22.27-13.92-34.45-60.3,0,0-.72,44.4-19.7,86.14,0,0,5.78-78.85-3.61-117.94,0,0-2.77,30.48-30.6,60.96,0,0,13.91-133.19,9.94-227.5-1.15-27.22,2.78-66.73,13.22-107.7l-6.82,6.76s13.59-97.79,59.04-141.98c2.32-2.26,4.61-4.54,6.91-6.82,34.85-34.53,91.18-38.3,152.86-18.55,66.98-20.16,112.91-8.5,145.94,22.5,.09,.08,.18,.16,.27,.24,.01,0,.02,.02,.03,.03,4.56,4.14,53.72,50.49,76.45,144.58l-15.76-25.65c10.83,45.58,14.12,93.87,14.12,133.87,0,125.45,8.93,206.92,8.93,206.92-14.58-14.58-26.83-41.16-26.83-41.16-2.93,60.72,5.13,110.71,5.34,112.02Z"/></svg>