<?xml version="1.0" encoding="UTF-8"?><svg id="Male_hair_9" xmlns="http://www.w3.org/2000/svg" viewBox="0 0 800 800"><path d="M310.47,36.52c2.39-.1,58.5,1.65,66.85,37.56,4,17.19,20.88,20.6,26.68,21.26,3.91-2.05,13.27-9.12,10.79-29.02-.48-3.83-1-7.68-1.39-11.42-1.65-15.84,7.71-30.8,22.67-36.27,.14-.05,.27-.1,.41-.15,9.35-3.37,20.72-8.45,26.81-11.24,1.55-.71,3.15,.91,2.41,2.45-2.91,6.02-3.6,18.95-19.22,21.65s-11.85,32.5-11.85,32.5c4.08,32.75-15.2,47.81-25.96,51.19-.97,.31-1.98,.46-3,.46-.07,0-.14,0-.21,0-13.57-.29-40.99-8.36-47.63-36.89-3.92-16.86-36.13-23.25-47.11-23.09,0,0-14.93,2.56-33.4-3.72-1.46-.5-1.62-2.5-.26-3.23,5.44-2.89,16.33-11.33,33.4-12.05Z"/><path d="M529.6,30.22c-.34,.76-.65,1.53-.93,2.31,0,0,0,.01,0,.02-1.55,4.2-8.47,21.13-21,26.77-6.03,2.71-12.69,2.37-20.35-1.04-20.17-8.99-40.78-3.99-59.59,14.46-12.98,12.73-20.58,27.64-20.9,28.27-2.49,4.92-.51,10.92,4.41,13.42,1.45,.73,2.99,1.08,4.51,1.08,3.65,0,7.16-2,8.93-5.47,.24-.47,24.32-46.94,54.51-33.49,12.99,5.79,25.33,6.13,36.7,1.01,10.14-4.56,17.6-12.84,22.76-20.69,8.29-12.59,11.18-28,8.17-42.76-.03-.16-.06-.32-.1-.47-2.91-13.95-14.34,10.39-17.1,16.59Z"/><path d="M626.53,110.92c-8.69,5.69-18.17,10.04-28.09,13.12-10.52,3.26-25.61,6.83-41.23,6.83-16,0-32.56-3.75-45.31-15.43-20.96-19.2-66.98-4.13-82.94,3.3-5.01,2.33-10.96,.16-13.29-4.85s-.16-10.96,4.85-13.29c2.84-1.32,69.89-31.97,104.89,.09,21.71,19.89,64.3,5.64,76.18,1.09,3.99-1.53,8.09-2.79,12.27-3.68,6.83-1.45,15.9-2.57,21.41,0,5.13,2.39-1.41,8.03-8.74,12.82Z"/><path d="M584.65,202.18c-.41,0-.83-.03-1.25-.08-2.15-.27-52.97-7.14-70.83-54.65-12.49-33.22-70.43-17.1-71.02-16.94-5.3,1.51-10.84-1.55-12.36-6.86-1.52-5.3,1.53-10.84,6.83-12.36,.75-.22,18.5-5.26,38.6-4.78,36.64,.89,51.04,18.92,56.66,33.9,13.55,36.04,52.96,41.63,54.63,41.85,0,0,24.17,2.97,27.49,6.72s-4.49,14.46-28.75,13.2Z"/><path d="M227.56,98.97c12.2,13.43,45.2,32.03,79.36,9.49,28.36-18.72,65.58,11.6,66.21,12.11,2.01,1.68,4.46,2.51,6.9,2.51,3.07,0,6.13-1.31,8.25-3.85,3.82-4.56,3.23-11.35-1.33-15.17-2.02-1.7-50.01-41.22-91.89-13.58-11.44,7.55-23.39,8.94-35.54,4.15-5.75-2.27-10.35-5.46-13.19-7.73-4.95-3.95-10.27-7.43-16-10.13-4.48-2.11-9.66-4.07-14.71-4.88,0,0,1.76,15.87,11.94,27.08Z"/><path d="M206.59,148.44c15.85,1.03,63.93-.27,76.49-19.24,22.53-34.01,83.17-23.9,85.74-23.45,5.86,1.02,9.78,6.59,8.76,12.45-1.02,5.85-6.59,9.77-12.44,8.77h0c-13.68-2.34-51.86-4.37-64.11,14.13-17.13,25.86-62.17,29.18-84.16,29.18-.06,0-.12,0-.18,0-8.35,0-16.67-1.18-24.68-3.55s-16.31-5.67-17.65-9.7c-2.51-7.61,32.21-8.58,32.21-8.58Z"/></svg>