<?xml version="1.0" encoding="UTF-8"?><svg id="Female_hair_12_" xmlns="http://www.w3.org/2000/svg" viewBox="0 0 800 800"><path d="M582.64,341.81l-19.36,16.29s-15.25-27.09-11.19-51.97c4.06-24.88-63.22-7.18-46.25-49.62,16.98-42.43-55.58-.84-40.73-44.54,13.17-38.76-48.46-14.36-59.03-39.77-11.93,25.41-70.89,1-56.02,39.77,16.77,43.7-65.16,2.11-45.99,44.54,19.16,42.44-56.81,24.74-52.23,49.62,4.58,24.88-15.29,51.97-15.29,51.97l-19.2-16.29c10.18-176.94,168.26-227.39,192.39-234.08-.12-.51-.21-.74-.22-.79,.09,.02,.63,.16,1.55,.44,1.05-.28,1.66-.42,1.75-.44-.02,.05-.13,.31-.28,.89,22.32,7.04,161.14,57.82,170.1,233.98Z"/></svg>