<?xml version="1.0" encoding="UTF-8"?><svg id="Chin_6" xmlns="http://www.w3.org/2000/svg" viewBox="0 0 800 800"><defs><style>.cls-1{fill:#1a1a1a;}</style></defs><path class="cls-1" d="M581.91,557.94c6.48-41.82-18.47-87.46-18.47-87.46v-63.31s-36.31,70.37-69.58,72.73c-33.28,2.35-58.9-20.32-93.86,6.31-34.96-26.63-60.58-3.96-93.86-6.31-33.27-2.36-69.58-72.73-69.58-72.73v63.31s-24.95,45.64-18.47,87.46c6.48,41.81,30.04,57.13,31.22,89.23,1.17,32.09-15.96,67.66-9.19,75.97,6.24,7.66,16.25,5.01,16.25,5.01,0,0,7.66,30.92,57.43,22.67,0,0,19.86,47.41,86.2,14.43,66.34,32.98,86.2-14.43,86.2-14.43,49.77,8.25,57.43-22.67,57.43-22.67,0,0,10.01,2.65,16.25-5.01,6.77-8.31-10.36-43.88-9.19-75.97,1.18-32.1,24.74-47.42,31.22-89.23Zm-181.67-4.12h-.22c-61.91-.06-85.04-23.86-85.04-23.86,6.47-33.57,48.29-10.89,58.3-22.42,10.01-11.52,26.74-5.2,26.74-5.2,0,0,16.69-6.32,26.7,5.2,10.01,11.53,51.83-11.15,58.3,22.42,0,0-22.88,23.8-84.78,23.86Z"/></svg>