<?xml version="1.0" encoding="UTF-8"?><svg id="Female_hair_6_" xmlns="http://www.w3.org/2000/svg" viewBox="0 0 800 800"><defs><style>.cls-1{fill:none;stroke:#000;stroke-linecap:round;stroke-linejoin:round;stroke-width:17.9px;}</style></defs><path d="M526.38,784.46c-1.47,0-2.97-.36-4.35-1.13-4.32-2.41-5.87-7.86-3.47-12.18,.18-.33,18.78-34.28,34.15-97.21,14.19-58.08,28.46-153.43,15.87-277.86-9.36-92.51-35.96-155.83-79.04-188.2-37.03-27.82-72.54-21.71-74.03-21.43-4.85,.89-9.52-2.31-10.43-7.15-.91-4.84,2.25-9.51,7.09-10.44,1.79-.34,44.2-8.01,87.66,24.37,21.34,15.9,39.24,38.8,53.2,68.07,16.76,35.14,27.98,79.88,33.36,132.99,12.89,127.4-1.85,225.17-16.5,284.76-15.97,64.98-34.89,99.39-35.69,100.82-1.64,2.94-4.69,4.6-7.83,4.6Z"/><path d="M275.66,783.46c-3.27,0-6.43-1.8-8-4.93-.72-1.43-17.8-35.8-31.92-100.72-12.95-59.54-25.67-157.23-12.79-284.53,5.38-53.1,16.6-97.85,33.36-132.99,13.96-29.27,31.86-52.17,53.2-68.07,43.46-32.38,85.88-24.71,87.66-24.37,4.85,.93,8.04,5.62,7.11,10.48-.93,4.84-5.6,8.02-10.44,7.11h0c-1.49-.27-37.01-6.38-74.03,21.43-43.08,32.37-69.68,95.69-79.04,188.2-12.6,124.53-.27,219.97,12.29,278.11,13.61,62.98,30.43,96.96,30.59,97.3,2.21,4.42,.43,9.8-3.99,12.01-1.29,.65-2.66,.95-4.01,.95Z"/><path d="M555.48,784.46c-1.07,0-2.16-.19-3.22-.6-4.61-1.78-6.91-6.96-5.13-11.57,1.79-4.64,3.65-9.39,5.56-14.26,27.83-70.95,65.94-168.12,37.7-355.58-9.67-64.15-25.05-116.68-45.71-156.12-16.23-30.98-35.69-53.89-57.83-68.08-37.24-23.87-69.11-15.07-70.45-14.68-4.73,1.37-9.7-1.34-11.09-6.07-1.39-4.73,1.28-9.68,6-11.09,1.63-.49,40.41-11.63,84.64,16.41,24.91,15.79,46.56,40.93,64.34,74.71,21.72,41.28,37.81,95.87,47.82,162.26,28.96,192.2-10.16,291.96-38.73,364.79-1.9,4.84-3.75,9.55-5.52,14.16-1.37,3.55-4.76,5.74-8.35,5.74Z"/><path d="M575.62,788.42c-1.59,0-3.19-.42-4.65-1.31-4.22-2.57-5.56-8.08-2.99-12.3,.26-.43,26.84-44.67,46.26-119.29,17.89-68.75,33.21-178.13,4.56-308.83-20.58-93.85-56.69-156.33-107.34-185.69-48.77-28.27-94.43-14.44-94.89-14.29-4.71,1.48-9.74-1.13-11.23-5.83-1.49-4.7,1.09-9.72,5.79-11.23,2.14-.69,53.17-16.46,108.91,15.63,55.38,31.89,94.5,98.36,116.25,197.58,13.02,59.38,18.35,119.48,15.86,178.64-2,47.35-8.98,94.21-20.77,139.27-20.12,76.93-46.97,121.5-48.1,123.36-1.69,2.77-4.63,4.29-7.65,4.29Z"/><path d="M623.42,784.46c-.5,0-1.01-.04-1.52-.13-4.87-.83-8.15-5.46-7.32-10.33,.19-1.12,19.11-113.93,14.05-245.69-4.62-120.55-30.79-282.13-129.15-367.37-3.74-3.24-4.14-8.89-.9-12.63,3.24-3.74,8.89-4.14,12.63-.9,45.83,39.71,80.65,97.78,103.51,172.6,18.12,59.29,28.82,129.25,31.82,207.93,5.09,133.57-14.11,247.93-14.3,249.07-.75,4.36-4.53,7.45-8.81,7.45Z"/><path d="M176.65,784.46c-.5,0-1-.04-1.51-.13-3.33-.56-6.07-2.98-7.07-6.21-1.37-4.46-16.95-116.51-8.84-249.4,4.78-78.22,16.83-148.51,35.83-208.9,23.89-75.95,58.91-136.45,104.09-179.81,3.57-3.42,9.23-3.31,12.66,.26,3.42,3.57,3.31,9.23-.26,12.66-97.11,93.2-126.59,254.42-134.21,373.26-8.48,132.17,7.3,242.61,8.02,247.29,.28,1.2,.32,2.49,.06,3.77-.84,4.25-4.57,7.21-8.77,7.21Zm2.03-17.67c3.3,.77,5.76,3.29,6.6,6.36-.68-2.63-2.91-5.5-6.6-6.36Zm-.03,0s.02,0,.02,0c0,0-.02,0-.02,0Zm-.03,0h.03s-.02,0-.03,0Z"/><path d="M246.53,788.42c-3.54,0-6.89-2.12-8.3-5.6-.94-2.33-1.9-4.7-2.88-7.1-13.92-34.26-31.25-76.91-41.06-136.62-11.46-69.78-10.34-148.06,3.41-239.32,10-66.39,26.09-120.99,47.82-162.26,17.78-33.78,39.43-58.92,64.34-74.71,44.22-28.04,83.01-16.9,84.64-16.41,4.74,1.42,7.42,6.41,6.01,11.14-1.42,4.72-6.38,7.41-11.11,6.02-1.44-.41-33.27-9.15-70.44,14.68-22.14,14.19-41.6,37.1-57.83,68.08-20.67,39.44-36.04,91.97-45.71,156.12-30.41,201.8,8.28,297.01,36.53,366.53,.98,2.41,1.95,4.79,2.89,7.13,1.85,4.58-.36,9.8-4.94,11.65-1.1,.44-2.24,.66-3.35,.66Z"/><path d="M210.8,779.52c-3.28,0-6.44-1.81-8.01-4.95-.88-1.77-21.83-44.17-35.96-118.86-8.27-43.7-12.46-89.45-12.45-135.99,0-58.11,6.6-117.62,19.59-176.87,22.01-100.38,61.11-167.22,116.21-198.64,53.86-30.71,102.49-15.22,104.54-14.55,4.7,1.55,7.25,6.61,5.7,11.3-1.55,4.69-6.6,7.24-11.29,5.7-.84-.27-43.84-13.46-90.45,13.31-50.33,28.91-86.4,91.72-107.23,186.71-28.7,130.92-19.75,238.09-7.18,304.93,13.63,72.48,34.32,114.53,34.53,114.95,2.2,4.42,.41,9.8-4.01,12-1.28,.64-2.65,.95-3.99,.95Z"/><path class="cls-1" d="M378.13,144.77s-81.66-7.69-128.73,73.08"/><path class="cls-1" d="M426.35,144.77s149.28-22.84,193.55,231.64"/></svg>