<?xml version="1.0" encoding="UTF-8"?><svg id="Eyes_4" xmlns="http://www.w3.org/2000/svg" viewBox="0 0 800 800"><defs><style>.cls-1{fill:#09090b;opacity:.05;}</style></defs><path class="cls-1" d="M353.71,410.7c-10.3,12.11-26.24,18.25-47.39,18.25-19.09,0-33.88-5.95-43.98-17.69-17.44-20.26-16.8-52.72-15.83-65.05,5.41-11.72,19.73-26.35,57.55-26.35,30.05,0,46.57,7.85,55.64,16.08,5.35,7.95,7.02,18.94,7.06,19.14,.05,.34,5.28,34.1-13.04,55.63Z"/><path class="cls-1" d="M536.35,412.82c-10.1,11.74-24.9,17.68-43.98,17.68-21.15,0-37.09-6.13-47.39-18.24-18.32-21.54-13.09-55.29-13.03-55.7,.02-.15,1.84-12.11,7.77-20.09,8.94-8.42,25.51-16.62,56.23-16.62,34.22,0,49.2,11.98,55.74,22.94h-.03c.07,.45,6.45,44.74-15.31,70.02Z"/></svg>