<svg width="37" height="58" viewBox="0 0 37 58" fill="none" xmlns="http://www.w3.org/2000/svg">
<g clip-path="url(#clip0_1108_18215)">
<mask id="path-1-inside-1_1108_18215" fill="white">
<path fill-rule="evenodd" clip-rule="evenodd" d="M33.0654 23.6804C33.6841 23.1027 34.2255 22.068 34.3586 20.2351C34.7148 15.3284 30.8552 16.0028 30.8552 16.0028C30.8552 16.0028 31.4859 4.90557 23.4083 1.7838C22.0861 1.27234 20.5312 0.974609 18.701 0.974609C5.69313 0.974609 6.54684 16.0028 6.54684 16.0028C6.54684 16.0028 3.5358 15.4965 3.08143 18.7841C3.07102 18.8614 3.0621 18.9418 3.05392 19.0236C3.03532 19.2122 3.02491 19.4134 3.02417 19.6271C3.02417 19.6927 3.02491 19.7598 3.0264 19.8276C3.02863 19.9588 3.03384 20.0951 3.0435 20.2351C3.16621 22.079 3.71056 23.1152 4.33448 23.6922C4.44751 23.7962 4.56278 23.8853 4.67879 23.962C4.95171 24.1411 5.2276 24.2486 5.48044 24.3113C5.61058 24.3437 5.73477 24.3643 5.84929 24.3769C6.25979 24.4204 6.54684 24.3585 6.54684 24.3585L7.146 24.4931C8.54728 28.4716 11.9899 35.5797 18.7008 35.5797C25.4116 35.5797 28.8542 28.4718 30.2555 24.4932L30.8552 24.3585C30.8552 24.3585 30.9564 24.3798 31.1237 24.3887C31.239 24.3946 31.3855 24.3938 31.5528 24.3754C31.6673 24.3629 31.7908 24.3415 31.9209 24.3083C32.1737 24.245 32.4496 24.1352 32.7226 23.9531C32.8378 23.8765 32.9531 23.7866 33.0654 23.6804Z"/>
</mask>
<path fill-rule="evenodd" clip-rule="evenodd" d="M33.0654 23.6804C33.6841 23.1027 34.2255 22.068 34.3586 20.2351C34.7148 15.3284 30.8552 16.0028 30.8552 16.0028C30.8552 16.0028 31.4859 4.90557 23.4083 1.7838C22.0861 1.27234 20.5312 0.974609 18.701 0.974609C5.69313 0.974609 6.54684 16.0028 6.54684 16.0028C6.54684 16.0028 3.5358 15.4965 3.08143 18.7841C3.07102 18.8614 3.0621 18.9418 3.05392 19.0236C3.03532 19.2122 3.02491 19.4134 3.02417 19.6271C3.02417 19.6927 3.02491 19.7598 3.0264 19.8276C3.02863 19.9588 3.03384 20.0951 3.0435 20.2351C3.16621 22.079 3.71056 23.1152 4.33448 23.6922C4.44751 23.7962 4.56278 23.8853 4.67879 23.962C4.95171 24.1411 5.2276 24.2486 5.48044 24.3113C5.61058 24.3437 5.73477 24.3643 5.84929 24.3769C6.25979 24.4204 6.54684 24.3585 6.54684 24.3585L7.146 24.4931C8.54728 28.4716 11.9899 35.5797 18.7008 35.5797C25.4116 35.5797 28.8542 28.4718 30.2555 24.4932L30.8552 24.3585C30.8552 24.3585 30.9564 24.3798 31.1237 24.3887C31.239 24.3946 31.3855 24.3938 31.5528 24.3754C31.6673 24.3629 31.7908 24.3415 31.9209 24.3083C32.1737 24.245 32.4496 24.1352 32.7226 23.9531C32.8378 23.8765 32.9531 23.7866 33.0654 23.6804Z" fill="white"/>
<path d="M34.3586 20.2351L35.2699 20.3013L35.2699 20.3013L34.3586 20.2351ZM33.0654 23.6804L32.4417 23.0126L32.4378 23.0163L33.0654 23.6804ZM30.8552 16.0028L29.943 15.9509L29.8776 17.1012L31.0125 16.9029L30.8552 16.0028ZM23.4083 1.7838L23.0787 2.63601L23.0789 2.63611L23.4083 1.7838ZM6.54684 16.0028L6.39532 16.9039L7.52403 17.0937L7.45912 15.9509L6.54684 16.0028ZM3.08143 18.7841L2.17628 18.659L2.17584 18.6622L3.08143 18.7841ZM3.05392 19.0236L2.1447 18.9327L2.14457 18.934L3.05392 19.0236ZM3.02417 19.6271L2.11042 19.624V19.6271H3.02417ZM3.0264 19.8276L3.94003 19.8121L3.93993 19.8076L3.0264 19.8276ZM3.0435 20.2351L3.95524 20.1745L3.95508 20.1722L3.0435 20.2351ZM4.33448 23.6922L3.71405 24.3631L3.71608 24.3649L4.33448 23.6922ZM4.67879 23.962L4.17509 24.7244L4.1775 24.7259L4.67879 23.962ZM5.48044 24.3113L5.70137 23.4246L5.70018 23.4244L5.48044 24.3113ZM5.84929 24.3769L5.74992 25.2852L5.75305 25.2855L5.84929 24.3769ZM6.54684 24.3585L6.74717 23.4669L6.55088 23.4228L6.35421 23.4652L6.54684 24.3585ZM7.146 24.4931L8.00786 24.1895L7.83983 23.7125L7.34634 23.6016L7.146 24.4931ZM30.2555 24.4932L30.0552 23.6017L29.5617 23.7126L29.3937 24.1897L30.2555 24.4932ZM30.8552 24.3585L31.0442 23.4644L30.8493 23.4233L30.6549 23.4669L30.8552 24.3585ZM31.1237 24.3887L31.0755 25.3011L31.077 25.3012L31.1237 24.3887ZM31.5528 24.3754L31.4534 23.4671L31.4528 23.4671L31.5528 24.3754ZM31.9209 24.3083L31.6987 23.422L31.6953 23.4229L31.9209 24.3083ZM32.7226 23.9531L32.2166 23.1922L32.2155 23.1929L32.7226 23.9531ZM33.4472 20.169C33.325 21.8525 32.8413 22.6394 32.4417 23.0126L33.689 24.3483C34.5268 23.5659 35.126 22.2835 35.2699 20.3013L33.4472 20.169ZM30.8552 16.0028C31.0125 16.9029 31.012 16.903 31.0115 16.9031C31.0113 16.9031 31.0108 16.9032 31.0105 16.9032C31.0099 16.9033 31.0094 16.9034 31.0089 16.9035C31.0079 16.9037 31.0071 16.9038 31.0066 16.9039C31.0055 16.9041 31.0052 16.9041 31.0058 16.904C31.0069 16.9038 31.0113 16.9032 31.0187 16.9022C31.0337 16.9002 31.0605 16.897 31.0973 16.8939C31.1715 16.8876 31.2832 16.8821 31.4183 16.8872C31.695 16.8976 32.0317 16.9513 32.3429 17.1017C32.6391 17.2448 32.9305 17.4828 33.1433 17.9107C33.3626 18.3515 33.5281 19.0551 33.4472 20.169L35.2699 20.3013C35.3672 18.9619 35.1838 17.9097 34.7796 17.0969C34.3689 16.2712 33.7622 15.7578 33.1381 15.4562C32.5289 15.1619 31.923 15.0774 31.4872 15.061C31.266 15.0526 31.079 15.0614 30.9435 15.0729C30.8755 15.0786 30.8197 15.0851 30.7783 15.0906C30.7575 15.0933 30.7403 15.0959 30.7268 15.0979C30.7201 15.099 30.7143 15.0999 30.7095 15.1007C30.7071 15.1011 30.7049 15.1015 30.703 15.1018C30.702 15.1019 30.7011 15.1021 30.7003 15.1022C30.6999 15.1023 30.6993 15.1024 30.6991 15.1025C30.6985 15.1026 30.698 15.1027 30.8552 16.0028ZM23.0789 2.63611C26.7279 4.04634 28.4619 7.26842 29.2785 10.3015C29.6843 11.8087 29.8511 13.2296 29.9155 14.2762C29.9477 14.7982 29.9542 15.2235 29.9528 15.5155C29.9521 15.6614 29.9495 15.7737 29.9471 15.8479C29.9459 15.885 29.9448 15.9125 29.944 15.9299C29.9436 15.9385 29.9433 15.9447 29.9431 15.9482C29.943 15.95 29.943 15.9511 29.9429 15.9516C29.9429 15.9518 29.9429 15.9518 29.9429 15.9517C29.9429 15.9517 29.9429 15.9515 29.9429 15.9515C29.943 15.9512 29.943 15.9509 30.8552 16.0028C31.7675 16.0546 31.7675 16.0542 31.7676 16.0538C31.7676 16.0536 31.7676 16.0532 31.7676 16.0528C31.7677 16.052 31.7677 16.051 31.7678 16.0499C31.7679 16.0477 31.7681 16.0448 31.7682 16.0412C31.7686 16.034 31.7691 16.0242 31.7696 16.0118C31.7708 15.987 31.7722 15.9518 31.7736 15.9068C31.7765 15.8169 31.7795 15.6878 31.7803 15.5242C31.7819 15.1971 31.7745 14.731 31.7396 14.1639C31.6699 13.0323 31.4894 11.4838 31.0432 9.82638C30.1558 6.53043 28.1663 2.64303 23.7377 0.931485L23.0789 2.63611ZM18.701 1.88836C20.4306 1.88836 21.8724 2.16941 23.0787 2.63601L23.738 0.931582C22.2998 0.375279 20.6317 0.06086 18.701 0.06086V1.88836ZM6.54684 16.0028C7.45912 15.9509 7.45913 15.9513 7.45915 15.9515C7.45915 15.9516 7.45916 15.9518 7.45916 15.9518C7.45917 15.9519 7.45916 15.9517 7.45914 15.9513C7.4591 15.9505 7.45901 15.9489 7.45888 15.9463C7.45862 15.9412 7.45821 15.9326 7.4577 15.9205C7.45667 15.8965 7.45522 15.8588 7.45382 15.8085C7.451 15.7077 7.44832 15.5563 7.4493 15.3616C7.45125 14.9718 7.46786 14.4101 7.52697 13.7342C7.64565 12.3772 7.93345 10.5865 8.60127 8.81026C9.26898 7.03433 10.3016 5.31166 11.8874 4.03438C13.4599 2.76782 15.6384 1.88836 18.701 1.88836V0.06086C15.2597 0.06086 12.667 1.05992 10.7411 2.61113C8.82846 4.15163 7.63553 6.18601 6.89068 8.16712C6.14593 10.1479 5.83417 12.1143 5.70642 13.575C5.64231 14.308 5.62399 14.9204 5.62182 15.3524C5.62074 15.5686 5.62369 15.7401 5.62703 15.8595C5.6287 15.9192 5.63047 15.966 5.63187 15.9988C5.63258 16.0152 5.63319 16.0281 5.63366 16.0374C5.63389 16.0421 5.63409 16.0459 5.63424 16.0488C5.63431 16.0502 5.63438 16.0514 5.63443 16.0524C5.63446 16.0528 5.63449 16.0534 5.63451 16.0536C5.63453 16.0541 5.63456 16.0546 6.54684 16.0028ZM3.98658 18.9092C4.08037 18.2305 4.29542 17.8125 4.51616 17.548C4.7382 17.2819 5.00813 17.1208 5.28736 17.0227C5.57252 16.9225 5.85896 16.8917 6.08159 16.8887C6.19074 16.8872 6.27862 16.8925 6.33539 16.8976C6.3636 16.9001 6.38361 16.9025 6.39414 16.9039C6.39939 16.9046 6.40223 16.905 6.40249 16.905C6.40262 16.905 6.4021 16.905 6.40091 16.9048C6.40032 16.9047 6.39956 16.9046 6.39863 16.9044C6.39816 16.9043 6.39765 16.9043 6.3971 16.9042C6.39683 16.9041 6.39638 16.904 6.39624 16.904C6.39579 16.9039 6.39532 16.9039 6.54684 16.0028C6.69835 15.1017 6.69786 15.1016 6.69736 15.1015C6.69718 15.1015 6.69666 15.1014 6.6963 15.1013C6.69556 15.1012 6.69478 15.1011 6.69395 15.1009C6.69229 15.1007 6.69043 15.1004 6.68839 15.1C6.68431 15.0994 6.67946 15.0986 6.67388 15.0978C6.66272 15.0961 6.6486 15.0941 6.63168 15.0919C6.59788 15.0875 6.55275 15.0822 6.49775 15.0773C6.38808 15.0675 6.23717 15.0589 6.05694 15.0614C5.7008 15.0662 5.20608 15.1143 4.68169 15.2985C4.15136 15.4847 3.58333 15.8135 3.11302 16.3771C2.6414 16.9423 2.30967 17.6938 2.17629 18.659L3.98658 18.9092ZM3.96313 19.1145C3.97071 19.0387 3.97847 18.9694 3.98702 18.9059L2.17584 18.6622C2.16357 18.7534 2.15348 18.8449 2.1447 18.9327L3.96313 19.1145ZM3.93791 19.6303C3.93856 19.4442 3.94762 19.2719 3.96326 19.1132L2.14457 18.934C2.12303 19.1525 2.11127 19.3826 2.11043 19.624L3.93791 19.6303ZM3.93993 19.8076C3.93859 19.7463 3.93792 19.6859 3.93792 19.6271H2.11042C2.11042 19.6996 2.11124 19.7733 2.11287 19.8476L3.93993 19.8076ZM3.95508 20.1722C3.94667 20.0503 3.94202 19.9299 3.94002 19.8121L2.11278 19.8431C2.11524 19.9876 2.12101 20.14 2.13193 20.2981L3.95508 20.1722ZM4.9549 23.0214C4.55399 22.6506 4.0678 21.8661 3.95524 20.1745L2.13177 20.2958C2.26461 22.292 2.86713 23.5798 3.71406 24.3631L4.9549 23.0214ZM5.18248 23.1996C5.10642 23.1493 5.02959 23.0901 4.95288 23.0195L3.71608 24.3649C3.86544 24.5022 4.01914 24.6213 4.1751 24.7244L5.18248 23.1996ZM5.70018 23.4244C5.53418 23.3832 5.35602 23.3135 5.18008 23.198L4.1775 24.7259C4.54739 24.9686 4.92102 25.1141 5.26071 25.1982L5.70018 23.4244ZM5.94867 23.4685C5.87082 23.46 5.78755 23.4461 5.70137 23.4246L5.25952 25.1979C5.43362 25.2413 5.59873 25.2687 5.74992 25.2852L5.94867 23.4685ZM6.54684 24.3585C6.35421 23.4652 6.3544 23.4652 6.35459 23.4652C6.35465 23.4651 6.35484 23.4651 6.35496 23.4651C6.35521 23.465 6.35545 23.465 6.35569 23.4649C6.35617 23.4648 6.35663 23.4647 6.35708 23.4646C6.35797 23.4644 6.3588 23.4643 6.35957 23.4641C6.36111 23.4638 6.36239 23.4635 6.36343 23.4633C6.3655 23.4629 6.36659 23.4627 6.36673 23.4627C6.36702 23.4626 6.36357 23.4633 6.3567 23.4643C6.34287 23.4664 6.31576 23.4701 6.2777 23.4732C6.20072 23.4795 6.08437 23.4829 5.94554 23.4682L5.75305 25.2855C6.02471 25.3143 6.25713 25.3085 6.4263 25.2947C6.51131 25.2878 6.58162 25.2787 6.63444 25.2706C6.66089 25.2665 6.68308 25.2627 6.70067 25.2594C6.70946 25.2578 6.71712 25.2563 6.7236 25.255C6.72684 25.2543 6.72978 25.2537 6.73243 25.2532C6.73375 25.2529 6.735 25.2526 6.73617 25.2524C6.73676 25.2522 6.73733 25.2521 6.73788 25.252C6.73815 25.252 6.73842 25.2519 6.73869 25.2518C6.73882 25.2518 6.73901 25.2518 6.73908 25.2518C6.73927 25.2517 6.73947 25.2517 6.54684 24.3585ZM7.34634 23.6016L6.74717 23.4669L6.3465 25.25L6.94567 25.3846L7.34634 23.6016ZM18.7008 34.666C15.7099 34.666 13.4067 33.0937 11.6374 30.9472C9.86039 28.7913 8.69259 26.1337 8.00786 24.1895L6.28415 24.7966C7.00068 26.8311 8.25482 29.7167 10.2272 32.1095C12.2072 34.5117 14.9807 36.4935 18.7008 36.4935V34.666ZM29.3937 24.1897C28.7089 26.1338 27.5411 28.7914 25.7642 30.9472C23.9948 33.0938 21.6916 34.666 18.7008 34.666V36.4935C22.4208 36.4935 25.1943 34.5117 27.1743 32.1096C29.1467 29.7168 30.4008 26.8312 31.1174 24.7968L29.3937 24.1897ZM30.6549 23.4669L30.0552 23.6017L30.4559 25.3847L31.0556 25.25L30.6549 23.4669ZM31.1719 23.4762C31.1171 23.4733 31.0762 23.4685 31.053 23.4653C31.0415 23.4637 31.0347 23.4625 31.033 23.4622C31.0321 23.462 31.0326 23.4621 31.0344 23.4625C31.0354 23.4626 31.0366 23.4629 31.0382 23.4632C31.039 23.4634 31.0399 23.4636 31.0409 23.4638C31.0414 23.4639 31.0419 23.464 31.0425 23.4641C31.0428 23.4641 31.043 23.4642 31.0433 23.4643C31.0434 23.4643 31.0436 23.4643 31.0437 23.4644C31.0438 23.4644 31.0439 23.4644 31.044 23.4644C31.0441 23.4644 31.0442 23.4644 30.8552 24.3585C30.6663 25.2525 30.6664 25.2525 30.6665 25.2525C30.6666 25.2525 30.6667 25.2525 30.6668 25.2526C30.6669 25.2526 30.6671 25.2526 30.6672 25.2526C30.6675 25.2527 30.6678 25.2528 30.6682 25.2528C30.6688 25.253 30.6695 25.2531 30.6702 25.2533C30.6715 25.2535 30.673 25.2539 30.6746 25.2542C30.6778 25.2548 30.6814 25.2555 30.6854 25.2563C30.6934 25.2579 30.7031 25.2597 30.7143 25.2617C30.7368 25.2657 30.7657 25.2704 30.8004 25.2752C30.8697 25.2849 30.963 25.2952 31.0755 25.3011L31.1719 23.4762ZM31.4528 23.4671C31.34 23.4796 31.243 23.4798 31.1704 23.4761L31.077 25.3012C31.235 25.3093 31.4309 25.3081 31.6528 25.2837L31.4528 23.4671ZM31.6953 23.4229C31.6081 23.4451 31.5269 23.459 31.4534 23.4671L31.6522 25.2837C31.8077 25.2667 31.9735 25.2379 32.1465 25.1938L31.6953 23.4229ZM32.2155 23.1929C32.0391 23.3106 31.8618 23.3811 31.6987 23.422L32.1431 25.1947C32.4857 25.1088 32.8601 24.9597 33.2296 24.7133L32.2155 23.1929ZM32.4378 23.0163C32.3653 23.0848 32.2911 23.1427 32.2166 23.1922L33.2285 24.714C33.3845 24.6103 33.5408 24.4883 33.693 24.3445L32.4378 23.0163Z" fill="black" mask="url(#path-1-inside-1_1108_18215)"/>
<path d="M20.4845 14.073C20.4845 14.073 24.7798 13.276 27.2927 14.3789C27.2927 14.3789 26.5042 12.8821 22.0582 12.646C22.0582 12.646 20.7356 12.768 20.4845 14.0723V14.073Z" fill="black"/>
<path d="M16.8413 14.073C16.8413 14.073 12.546 13.276 10.0331 14.3789C10.0331 14.3789 10.8216 12.8821 15.2676 12.646C15.2676 12.646 16.5902 12.768 16.8413 14.0723V14.073Z" fill="black"/>
</g>
<path d="M5.18752 54.7183H8.10545C9.74912 54.7183 10.7236 53.9098 10.7236 52.5499V52.5392C10.7236 51.5166 10.0489 50.767 8.93532 50.6385V50.6171C9.73306 50.5047 10.3327 49.7283 10.3327 48.9306V48.9199C10.3327 47.7634 9.43859 46.9924 8.11615 46.9924H5.18752V54.7183ZM7.89664 47.8437C8.82824 47.8437 9.35828 48.2613 9.35828 49.0216V49.0323C9.35828 49.8675 8.73722 50.3226 7.59682 50.3226H6.15124V47.8437H7.89664ZM7.86987 51.1525C9.10129 51.1525 9.73306 51.6076 9.73306 52.5017V52.5124C9.73306 53.4012 9.11735 53.867 7.96089 53.867H6.15124V51.1525H7.86987ZM11.6712 54.7183H12.6028V51.281C12.6028 50.4351 13.074 49.9318 13.7967 49.9318C14.0216 49.9318 14.2197 49.9586 14.2947 49.9853V49.0805C14.2197 49.0698 14.0805 49.043 13.9199 49.043C13.2935 49.043 12.8116 49.4499 12.6242 50.0924H12.6028V49.1501H11.6712V54.7183ZM17.0948 54.8253C18.6314 54.8253 19.6701 53.7117 19.6701 51.9342V51.9235C19.6701 50.1459 18.6261 49.043 17.0895 49.043C15.5529 49.043 14.5142 50.1513 14.5142 51.9235V51.9342C14.5142 53.7064 15.5475 54.8253 17.0948 54.8253ZM17.1002 54.0008C16.115 54.0008 15.4672 53.2459 15.4672 51.9342V51.9235C15.4672 50.6225 16.1204 49.8675 17.0895 49.8675C18.0746 49.8675 18.7171 50.6171 18.7171 51.9235V51.9342C18.7171 53.2406 18.0799 54.0008 17.1002 54.0008ZM21.7153 54.7183H22.663L23.9158 50.4083H23.9372L25.1954 54.7183H26.1431L27.6957 49.1501H26.7748L25.6612 53.6796H25.6398L24.3762 49.1501H23.4768L22.2186 53.6796H22.1972L21.0835 49.1501H20.1573L21.7153 54.7183ZM30.437 54.8253C31.6791 54.8253 32.6 54.14 32.6 53.1656V53.1602C32.6 52.3679 32.1931 51.9235 31.0687 51.6504L30.1853 51.4363C29.5696 51.2863 29.318 51.024 29.318 50.6439V50.6385C29.318 50.1459 29.7356 49.8194 30.4102 49.8194C31.1009 49.8194 31.5131 50.1781 31.5881 50.7188L31.5934 50.7563H32.4822L32.4768 50.6867C32.4072 49.7551 31.6309 49.043 30.4102 49.043C29.2056 49.043 28.365 49.723 28.365 50.6813V50.6867C28.365 51.4898 28.8736 51.977 29.923 52.2287L30.8064 52.4428C31.4382 52.5981 31.647 52.8229 31.647 53.2245V53.2298C31.647 53.7331 31.1972 54.049 30.4423 54.049C29.6821 54.049 29.2698 53.7224 29.1574 53.1656L29.1467 53.1121H28.2151L28.2204 53.1602C28.3329 54.1561 29.1252 54.8253 30.437 54.8253Z" fill="#333333"/>
<defs>
<clipPath id="clip0_1108_18215">
<rect width="31.9812" height="34.7225" fill="white" transform="translate(2.71033 0.85791)"/>
</clipPath>
</defs>
</svg>
