<?xml version="1.0" encoding="UTF-8"?><svg id="Male_hair_6" xmlns="http://www.w3.org/2000/svg" viewBox="0 0 800 800"><path d="M592.33,363.83s-10.5-6.04-26.06-6.04v37.83s-15.86-8.26-15.86-64.26c0,0-24.74-28.03-24.74-104.89,0,0-25.33-7.07-35.04-25.33,0,0-45.48-17.37-90.62,0-45.13,17.37-109.04,5.01-109.04,5.01,0,0-9.13,71.26-41.52,123.68,0,0,9.13,54.77-14.43,68.32v-40.37s-17.19-.82-24.94,4.9c0,0-9.81-66.59,4.03-122.83,0,0-21.2-23.26,2.36-53.3,0,0-14.43-55.54,53.89-57.01,0,0,23.44-56.54,93.29-28.56,0,0,45.09-37.1,92.81,0,0,0,69.74-20.32,82.73,38.28,0,0,34.49,18.31,26.24,65.72,0,0,41.74,13.51,26.91,158.85Z"/></svg>