<svg width="316" height="462" viewBox="0 0 316 462" fill="none" xmlns="http://www.w3.org/2000/svg">
<g filter="url(#filter0_i_543_44422)">
<rect x="182" y="276.027" width="117" height="108.491" rx="10.6364" transform="rotate(-9.35908 182 276.027)" fill="#F8F8F8"/>
</g>
<path d="M183.73 286.521C182.774 280.725 186.699 275.252 192.495 274.297L286.948 258.73C292.744 257.774 298.217 261.699 299.172 267.495L303.208 291.983L187.766 311.009L183.73 286.521Z" fill="#6DCEB1"/>
<path d="M229.857 295.635C231.349 295.389 232.441 294.796 233.131 293.857C233.826 292.911 234.055 291.714 233.816 290.266L232.245 280.729L229.356 281.205L230.923 290.713C231.037 291.409 230.965 291.964 230.706 292.38C230.454 292.795 230.021 293.053 229.409 293.154C229.033 293.216 228.698 293.193 228.405 293.084C228.117 292.967 227.878 292.787 227.687 292.544C227.502 292.293 227.37 291.99 227.292 291.636L227.283 291.579L224.48 292.041L224.494 292.127C224.662 292.983 224.986 293.703 225.469 294.285C225.95 294.861 226.565 295.27 227.312 295.514C228.059 295.751 228.907 295.791 229.857 295.635ZM240.917 293.704C241.676 293.579 242.289 293.307 242.758 292.89C243.226 292.472 243.531 291.956 243.672 291.344L243.825 291.318L244.095 292.954L246.888 292.494L245.161 282.02L242.368 282.48L243.365 288.525C243.441 288.991 243.426 289.413 243.318 289.791C243.216 290.168 243.022 290.481 242.736 290.732C242.455 290.974 242.091 291.133 241.645 291.206C240.988 291.314 240.479 291.205 240.117 290.878C239.754 290.545 239.513 290.015 239.393 289.288L238.379 283.137L235.586 283.598L236.702 290.37C236.839 291.199 237.09 291.885 237.454 292.427C237.825 292.969 238.3 293.349 238.88 293.568C239.46 293.787 240.139 293.832 240.917 293.704ZM249.557 292.054L252.35 291.594L249.977 277.197L247.184 277.658L249.557 292.054ZM256.966 294.566C257.808 294.428 258.513 294.197 259.082 293.874C259.658 293.55 260.116 293.088 260.456 292.488C260.797 291.895 261.042 291.12 261.193 290.166L263.039 279.073L260.093 279.559L259.096 288.949L259.497 287.861L258.731 287.987L259.479 288.886L255.521 280.312L252.45 280.818L257.859 290.685L257.828 291.093C257.792 291.506 257.644 291.825 257.387 292.051C257.137 292.282 256.772 292.437 256.294 292.516C256.148 292.54 256.007 292.56 255.872 292.575C255.737 292.591 255.617 292.601 255.513 292.605L255.858 294.7C256.027 294.692 256.208 294.675 256.4 294.65C256.593 294.625 256.781 294.597 256.966 294.566Z" fill="white"/>
<path d="M229.708 356.301L252.644 352.52L251.779 347.273L234.965 350.044L237.815 351.663L237.083 347.225L235.278 352.081L243.045 342.245C244.59 340.268 245.788 338.588 246.638 337.206C247.486 335.808 248.047 334.533 248.321 333.38C248.607 332.21 248.646 330.991 248.437 329.723L248.43 329.679C248.134 327.886 247.399 326.375 246.223 325.147C245.047 323.918 243.55 323.057 241.732 322.563C239.912 322.055 237.886 321.984 235.656 322.352C233.441 322.717 231.522 323.475 229.9 324.626C228.293 325.774 227.112 327.196 226.359 328.892C225.603 330.574 225.388 332.406 225.715 334.388L225.744 334.563L231.866 333.554L231.855 333.354C231.728 332.402 231.836 331.515 232.18 330.695C232.522 329.86 233.066 329.164 233.813 328.607C234.557 328.035 235.468 327.66 236.547 327.483C237.48 327.329 238.334 327.383 239.111 327.644C239.902 327.903 240.557 328.334 241.076 328.937C241.592 329.526 241.921 330.25 242.063 331.11L242.07 331.154C242.19 331.883 242.174 332.604 242.023 333.318C241.885 334.029 241.536 334.865 240.976 335.826C240.416 336.786 239.555 338.014 238.394 339.508L228.962 351.775L229.708 356.301ZM268.563 350.458C271.027 350.052 273.112 349.304 274.819 348.214C276.523 347.11 277.769 345.767 278.556 344.185C279.343 342.603 279.582 340.872 279.272 338.991L279.265 338.947C278.912 336.805 277.921 335.201 276.294 334.137C274.681 333.07 272.683 332.621 270.3 332.789L270.278 332.658C271.459 332.194 272.493 331.56 273.378 330.755C274.278 329.948 274.938 329.001 275.358 327.913C275.778 326.826 275.879 325.626 275.663 324.315L275.656 324.271C275.382 322.609 274.684 321.235 273.561 320.147C272.439 319.059 270.983 318.311 269.194 317.902C267.417 317.476 265.391 317.451 263.118 317.826C260.917 318.189 259.04 318.887 257.489 319.921C255.935 320.941 254.775 322.21 254.007 323.729C253.251 325.231 252.952 326.912 253.109 328.773L253.13 329.039L259.187 328.041L259.176 327.84C259.144 327.007 259.311 326.254 259.679 325.579C260.045 324.89 260.593 324.313 261.325 323.848C262.057 323.383 262.933 323.066 263.954 322.898C264.988 322.728 265.898 322.75 266.682 322.965C267.478 323.163 268.116 323.537 268.596 324.087C269.088 324.62 269.405 325.316 269.547 326.176L269.554 326.22C269.693 327.065 269.591 327.853 269.247 328.583C268.916 329.297 268.372 329.903 267.616 330.402C266.86 330.901 265.928 331.242 264.82 331.424L261.3 332.004L262.074 336.705L265.682 336.111C267.591 335.796 269.144 335.952 270.34 336.578C271.537 337.204 272.26 338.275 272.51 339.791L272.517 339.835C272.658 340.695 272.551 341.499 272.195 342.246C271.852 342.977 271.296 343.6 270.527 344.116C269.756 344.617 268.803 344.961 267.666 345.149C265.96 345.43 264.514 345.286 263.328 344.718C262.153 344.133 261.408 343.29 261.092 342.19L261.009 341.956L254.712 342.994L254.78 343.275C255.224 345.058 256.077 346.557 257.341 347.771C258.618 348.983 260.211 349.836 262.119 350.33C264.025 350.809 266.173 350.852 268.563 350.458Z" fill="#333333"/>
<g filter="url(#filter1_i_543_44422)">
<rect x="41.3728" y="128" width="117" height="108.491" rx="10.6364" transform="rotate(16.2576 41.3728 128)" fill="#F8F8F8"/>
</g>
<path d="M38.3951 138.211C40.0396 132.572 45.9444 129.333 51.5838 130.978L143.483 157.777C149.123 159.422 152.361 165.327 150.717 170.966L143.769 194.792L31.4471 162.037L38.3951 138.211Z" fill="#6DCEB1"/>
<path d="M76.0484 166.372C77.5003 166.795 78.7404 166.733 79.7688 166.184C80.8052 165.632 81.5288 164.651 81.9395 163.242L84.6454 153.963L81.8347 153.144L79.1369 162.395C78.9397 163.071 78.6344 163.541 78.221 163.804C77.8139 164.069 77.3125 164.115 76.7168 163.941C76.3508 163.834 76.0591 163.668 75.842 163.444C75.6328 163.214 75.4949 162.949 75.4282 162.646C75.3695 162.34 75.3815 162.01 75.4642 161.657L75.4805 161.601L72.7535 160.806L72.7291 160.89C72.5097 161.735 72.4916 162.524 72.6749 163.257C72.8601 163.984 73.237 164.619 73.8058 165.162C74.3764 165.699 75.1239 166.102 76.0484 166.372ZM86.8557 169.412C87.5941 169.628 88.2647 169.648 88.8675 169.474C89.4704 169.3 89.968 168.967 90.3605 168.475L90.5094 168.519L90.0453 170.11L92.7629 170.903L95.7348 160.712L93.0172 159.919L91.3019 165.801C91.1698 166.254 90.9733 166.628 90.7125 166.922C90.4579 167.218 90.1474 167.417 89.7811 167.519C89.4228 167.616 89.0264 167.601 88.5921 167.475C87.953 167.288 87.5411 166.97 87.3562 166.519C87.1731 166.061 87.1848 165.479 87.391 164.772L89.1362 158.787L86.4185 157.995L84.497 164.584C84.2618 165.391 84.1912 166.117 84.2853 166.764C84.3857 167.413 84.6499 167.961 85.0781 168.409C85.5062 168.857 86.0987 169.192 86.8557 169.412ZM95.3595 171.66L98.0771 172.452L102.162 158.445L99.4442 157.653L95.3595 171.66ZM100.955 177.129C101.774 177.368 102.51 177.465 103.162 177.419C103.821 177.376 104.434 177.157 105 176.763C105.564 176.376 106.12 175.784 106.669 174.988L113.129 165.784L110.263 164.948L105.304 172.984L106.135 172.177L105.391 171.96L105.676 173.093L105.814 163.651L102.827 162.78L103.438 174.016L103.234 174.37C103.022 174.726 102.751 174.95 102.422 175.042C102.096 175.143 101.701 175.125 101.235 174.989C101.093 174.947 100.957 174.905 100.829 174.86C100.7 174.816 100.588 174.773 100.492 174.732L99.898 176.77C100.054 176.836 100.224 176.899 100.408 176.959C100.593 177.02 100.775 177.076 100.955 177.129Z" fill="white"/>
<path d="M50.7396 221.317L73.055 227.825L74.5438 222.72L58.1849 217.949L60.0543 220.641L61.3137 216.322L57.5867 219.921L68.8424 214.409C71.0907 213.295 72.8971 212.299 74.2615 211.419C75.63 210.526 76.6871 209.618 77.4327 208.697C78.1967 207.766 78.7587 206.683 79.1185 205.449L79.1309 205.407C79.6396 203.662 79.6294 201.982 79.1005 200.366C78.5716 198.75 77.5941 197.326 76.1682 196.095C74.7464 194.849 72.9506 193.91 70.7808 193.277C68.6251 192.649 66.5673 192.503 64.6072 192.839C62.6614 193.179 60.9821 193.951 59.5693 195.155C58.1606 196.345 57.175 197.904 56.6126 199.833L56.5629 200.003L62.5194 201.74L62.5965 201.555C62.8937 200.641 63.3746 199.889 64.0394 199.298C64.7083 198.693 65.4998 198.3 66.4139 198.121C67.3321 197.927 68.316 197.983 69.3655 198.289C70.2731 198.554 71.0207 198.972 71.608 199.543C72.2096 200.119 72.6138 200.79 72.8207 201.559C73.0317 202.313 73.0152 203.108 72.7711 203.945L72.7587 203.987C72.552 204.696 72.2258 205.34 71.7803 205.918C71.3489 206.5 70.673 207.103 69.7524 207.727C68.8318 208.351 67.525 209.085 65.8321 209.931L52.0237 216.914L50.7396 221.317ZM77.033 228.985L99.3484 235.493L100.837 230.387L84.4783 225.617L86.3478 228.308L87.6071 223.99L83.8801 227.589L95.1358 222.077C97.3842 220.963 99.1905 219.966 100.555 219.087C101.923 218.193 102.98 217.286 103.726 216.365C104.49 215.433 105.052 214.351 105.412 213.117L105.424 213.074C105.933 211.33 105.923 209.65 105.394 208.034C104.865 206.418 103.888 204.994 102.462 203.762C101.04 202.517 99.2441 201.578 97.0742 200.945C94.9186 200.316 92.8607 200.17 90.9007 200.507C88.9548 200.847 87.2755 201.619 85.8627 202.823C84.454 204.012 83.4684 205.572 82.906 207.5L82.8564 207.67L88.8128 209.407L88.8899 209.222C89.1871 208.309 89.6681 207.556 90.3328 206.965C91.0017 206.36 91.7932 205.968 92.7073 205.788C93.6256 205.594 94.6095 205.651 95.6589 205.957C96.5666 206.221 97.3141 206.639 97.9015 207.211C98.503 207.786 98.9073 208.458 99.1141 209.226C99.3251 209.98 99.3086 210.776 99.0646 211.612L99.0522 211.655C98.8454 212.364 98.5192 213.007 98.0737 213.585C97.6424 214.167 96.9664 214.77 96.0458 215.395C95.1252 216.019 93.8184 216.753 92.1255 217.598L78.3172 224.582L77.033 228.985Z" fill="#333333"/>
<g filter="url(#filter2_i_543_44422)">
<rect x="138" y="47.77" width="117" height="108.491" rx="10.6364" transform="rotate(-24.0975 138 47.77)" fill="#F8F8F8"/>
</g>
<path d="M142.343 57.4795C139.944 52.1171 142.347 45.8257 147.709 43.4273L235.094 4.34273C240.457 1.94431 246.748 4.34706 249.146 9.70942L259.279 32.3647L152.476 80.1348L142.343 57.4795Z" fill="#6DCEB1"/>
<path d="M189.271 54.5577C190.652 53.9402 191.556 53.0896 191.985 52.0058C192.417 50.9135 192.333 49.6977 191.734 48.3584L187.788 39.5352L185.115 40.7306L189.05 49.5272C189.337 50.1703 189.409 50.726 189.264 51.1942C189.125 51.6598 188.773 52.0193 188.207 52.2726C187.858 52.4283 187.529 52.4907 187.218 52.46C186.91 52.4207 186.633 52.3075 186.386 52.1204C186.143 51.9247 185.938 51.6657 185.773 51.3432L185.749 51.2901L183.156 52.4499L183.192 52.5295C183.572 53.3154 184.069 53.9285 184.684 54.3687C185.296 54.803 185.994 55.0428 186.779 55.0882C187.561 55.1277 188.392 54.9509 189.271 54.5577ZM199.476 49.8767C200.178 49.5627 200.702 49.1441 201.048 48.6209C201.395 48.0978 201.559 47.5219 201.54 46.8932L201.681 46.8299L202.358 48.3432L204.942 47.1874L200.608 37.497L198.024 38.6528L200.525 44.2458C200.718 44.6765 200.81 45.0884 200.802 45.4815C200.8 45.8719 200.692 46.2246 200.479 46.5394C200.269 46.8457 199.957 47.0912 199.544 47.2759C198.937 47.5477 198.416 47.5716 197.983 47.3475C197.548 47.1176 197.179 46.6663 196.879 45.9937L194.333 40.3033L191.749 41.4591L194.552 47.7247C194.895 48.4917 195.312 49.0912 195.802 49.5231C196.299 49.9525 196.855 50.1992 197.471 50.2634C198.088 50.3275 198.756 50.1987 199.476 49.8767ZM207.411 46.0831L209.995 44.9273L204.038 31.6084L201.454 32.7642L207.411 46.0831ZM215.216 46.6277C215.995 46.2794 216.619 45.8766 217.087 45.4195C217.561 44.9596 217.886 44.3965 218.062 43.73C218.241 43.0694 218.282 42.2582 218.184 41.2964L217.148 30.099L214.422 31.3182L215.847 40.6533L215.957 39.4994L215.249 39.816L216.201 40.4949L210.192 33.2102L207.351 34.4808L215.093 42.6473L215.167 43.0498C215.236 43.4578 215.175 43.8037 214.983 44.0877C214.8 44.3749 214.487 44.6175 214.045 44.8154C213.909 44.8761 213.778 44.9312 213.651 44.9807C213.525 45.0302 213.412 45.0702 213.312 45.1006L214.179 47.0387C214.34 46.9878 214.511 46.9257 214.69 46.8524C214.87 46.7791 215.045 46.7042 215.216 46.6277Z" fill="white"/>
<path d="M207.655 111.881L228.875 102.39L226.703 97.5357L211.148 104.493L214.316 105.334L212.479 101.228L211.969 106.383L216.977 94.8947C217.969 92.59 218.701 90.6608 219.171 89.1073C219.635 87.5402 219.853 86.1643 219.825 84.9794C219.804 83.775 219.531 82.5861 219.007 81.4129L218.988 81.3725C218.247 79.7138 217.151 78.4399 215.701 77.5509C214.252 76.6618 212.585 76.2097 210.701 76.1947C208.811 76.1661 206.834 76.6133 204.771 77.5361C202.721 78.4529 201.059 79.674 199.783 81.1995C198.52 82.7189 197.741 84.3947 197.443 86.2268C197.14 88.0455 197.399 89.8718 198.219 91.7058L198.291 91.8676L203.955 89.3344L203.894 89.1433C203.529 88.2547 203.408 87.37 203.532 86.4892C203.65 85.595 203.999 84.7834 204.58 84.0546C205.154 83.3123 205.94 82.7179 206.938 82.2716C207.801 81.8856 208.641 81.7201 209.459 81.7752C210.29 81.8242 211.033 82.0744 211.688 82.5259C212.337 82.9638 212.839 83.5806 213.195 84.3763L213.213 84.4167C213.515 85.091 213.683 85.7926 213.718 86.5215C213.766 87.2443 213.641 88.1416 213.344 89.2132C213.046 90.2849 212.526 91.6908 211.783 93.431L205.783 107.694L207.655 111.881ZM239.96 97.4325L246.008 94.7273L232.952 65.5384L226.884 68.2526L221.682 76.8663L224.107 82.2874L229.289 73.901L229.41 73.8467L239.96 97.4325Z" fill="#333333"/>
<g clip-path="url(#clip0_543_44422)">
<ellipse cx="70.5" cy="461" rx="54.5" ry="4" fill="black" fill-opacity="0.14"/>
<g filter="url(#filter3_i_543_44422)">
<path d="M119.52 336H23.7999C17.9236 336 13.1599 340.764 13.1599 346.64V433.85C13.1599 439.726 17.9236 444.49 23.7999 444.49H119.52C125.396 444.49 130.16 439.726 130.16 433.85V346.64C130.16 340.764 125.396 336 119.52 336Z" fill="#F7F7F7"/>
</g>
<path d="M13.22 346.64C13.22 343.818 14.341 341.112 16.3364 339.116C18.3317 337.121 21.0381 336 23.86 336H119.59C120.987 336 122.37 336.275 123.66 336.81C124.951 337.345 126.123 338.129 127.11 339.117C128.097 340.105 128.88 341.278 129.414 342.569C129.947 343.86 130.221 345.243 130.22 346.64V371.45H13.22V346.64Z" fill="#A1E0CA"/>
<path d="M13.5 395.9C13.5 395.9 1.5 403.9 1.5 404.9C1.5 405.9 11.5 411.9 11.5 412.9C11.5 413.9 5.5 419.9 5.5 419.9" stroke="black" stroke-width="3" stroke-linecap="round" stroke-linejoin="round"/>
<path d="M107 460H90V445" stroke="black" stroke-width="3" stroke-linecap="round" stroke-linejoin="round"/>
<path d="M32.5 460H47.5L52.5 445" stroke="black" stroke-width="3" stroke-linecap="round" stroke-linejoin="round"/>
<path d="M52.3101 384.3C54.4416 383.167 56.9151 382.858 59.2601 383.43" stroke="#333333" stroke-width="2" stroke-linecap="round"/>
<path d="M58.1901 400.18C59.7701 400.18 61.0601 397.61 61.0601 394.44C61.0601 391.27 59.7701 388.71 58.1901 388.71C56.6101 388.71 55.3301 391.28 55.3301 394.44C55.3301 397.6 56.6101 400.18 58.1901 400.18Z" fill="#333333"/>
<path d="M108.92 400.18C110.5 400.18 111.78 397.61 111.78 394.44C111.78 391.27 110.5 388.71 108.92 388.71C107.34 388.71 106.11 391.28 106.11 394.44C106.11 397.6 107.34 400.18 108.92 400.18Z" fill="#333333"/>
<path d="M129.5 404.5C129.5 404.5 123.94 416.54 123 416.83C122.06 417.12 113.37 409.34 112.41 409.63C111.45 409.92 107.49 417.42 107.49 417.42" stroke="black" stroke-width="3" stroke-linecap="round" stroke-linejoin="round"/>
<path d="M102.3 379.31C103.47 378.187 104.97 377.471 106.579 377.269C108.188 377.067 109.819 377.39 111.23 378.19" stroke="#333333" stroke-width="2" stroke-linecap="round"/>
<path d="M83.9301 410.71C82.849 411.919 81.407 412.746 79.8182 413.071C78.2294 413.395 76.5784 413.198 75.1101 412.51" stroke="#333333" stroke-width="2" stroke-linecap="round"/>
</g>
<defs>
<filter id="filter0_i_543_44422" x="183.586" y="258.586" width="129.913" height="122.9" filterUnits="userSpaceOnUse" color-interpolation-filters="sRGB">
<feFlood flood-opacity="0" result="BackgroundImageFix"/>
<feBlend mode="normal" in="SourceGraphic" in2="BackgroundImageFix" result="shape"/>
<feColorMatrix in="SourceAlpha" type="matrix" values="0 0 0 0 0 0 0 0 0 0 0 0 0 0 0 0 0 0 127 0" result="hardAlpha"/>
<feOffset/>
<feGaussianBlur stdDeviation="2.5"/>
<feComposite in2="hardAlpha" operator="arithmetic" k2="-1" k3="1"/>
<feColorMatrix type="matrix" values="0 0 0 0 0 0 0 0 0 0 0 0 0 0 0 0 0 0 0.1 0"/>
<feBlend mode="normal" in2="shape" result="effect1_innerShadow_543_44422"/>
</filter>
<filter id="filter1_i_543_44422" x="13.5496" y="130.55" width="137.595" height="131.808" filterUnits="userSpaceOnUse" color-interpolation-filters="sRGB">
<feFlood flood-opacity="0" result="BackgroundImageFix"/>
<feBlend mode="normal" in="SourceGraphic" in2="BackgroundImageFix" result="shape"/>
<feColorMatrix in="SourceAlpha" type="matrix" values="0 0 0 0 0 0 0 0 0 0 0 0 0 0 0 0 0 0 127 0" result="hardAlpha"/>
<feOffset/>
<feGaussianBlur stdDeviation="1.77273"/>
<feComposite in2="hardAlpha" operator="arithmetic" k2="-1" k3="1"/>
<feColorMatrix type="matrix" values="0 0 0 0 0 0 0 0 0 0 0 0 0 0 0 0 0 0 0.1 0"/>
<feBlend mode="normal" in2="shape" result="effect1_innerShadow_543_44422"/>
</filter>
<filter id="filter2_i_543_44422" x="141.413" y="3.41315" width="144.273" height="139.98" filterUnits="userSpaceOnUse" color-interpolation-filters="sRGB">
<feFlood flood-opacity="0" result="BackgroundImageFix"/>
<feBlend mode="normal" in="SourceGraphic" in2="BackgroundImageFix" result="shape"/>
<feColorMatrix in="SourceAlpha" type="matrix" values="0 0 0 0 0 0 0 0 0 0 0 0 0 0 0 0 0 0 127 0" result="hardAlpha"/>
<feOffset/>
<feGaussianBlur stdDeviation="1.77273"/>
<feComposite in2="hardAlpha" operator="arithmetic" k2="-1" k3="1"/>
<feColorMatrix type="matrix" values="0 0 0 0 0 0 0 0 0 0 0 0 0 0 0 0 0 0 0.1 0"/>
<feBlend mode="normal" in2="shape" result="effect1_innerShadow_543_44422"/>
</filter>
<filter id="filter3_i_543_44422" x="13.1599" y="336" width="117" height="108.49" filterUnits="userSpaceOnUse" color-interpolation-filters="sRGB">
<feFlood flood-opacity="0" result="BackgroundImageFix"/>
<feBlend mode="normal" in="SourceGraphic" in2="BackgroundImageFix" result="shape"/>
<feColorMatrix in="SourceAlpha" type="matrix" values="0 0 0 0 0 0 0 0 0 0 0 0 0 0 0 0 0 0 127 0" result="hardAlpha"/>
<feOffset/>
<feGaussianBlur stdDeviation="2.5"/>
<feComposite in2="hardAlpha" operator="arithmetic" k2="-1" k3="1"/>
<feColorMatrix type="matrix" values="0 0 0 0 0 0 0 0 0 0 0 0 0 0 0 0 0 0 0.1 0"/>
<feBlend mode="normal" in2="shape" result="effect1_innerShadow_543_44422"/>
</filter>
<clipPath id="clip0_543_44422">
<rect width="131" height="126" fill="white" transform="translate(0 336)"/>
</clipPath>
</defs>
</svg>
