<?xml version="1.0" encoding="UTF-8"?><svg id="Male_hair_4" xmlns="http://www.w3.org/2000/svg" viewBox="0 0 800 800"><path d="M564.28,224.48c15.67,40.42,24.45,137.34,24.45,137.34-30.27,2.56-32.59,39.03-32.59,39.03-5.5-115.51-33.63-187.4-33.63-187.4-102.07,19.66-249.73,4-249.73,4-24.78,63.39-23.42,169.51-23.42,169.51-15.88-37.32-38.2-24.85-38.2-24.85-2.75-77.28,11.76-148.59,25.65-175.75-7.45-28.88,12.14-56.37,12.14-56.37,.54,10.48,5.54,18.63,11.07,24.51,4.94-46.62,31.31-63.78,31.31-63.78-4.66,23.86,11.65,39.1,11.65,39.1,4.79-57.39,44.68-81.94,44.68-81.94-17.62,42.2,2.75,58.75,2.75,58.75,11.43-67.81,65.85-77.3,65.85-77.3-29.85,26.94-18.63,76.85-18.63,76.85,15.46-46.38,50.09-48.6,50.09-48.6-18.63,23.63-11.76,55.89-11.76,55.89,14.4-38.65,45.22-43.75,45.22-43.75-18.64,20.54-15.79,44.41-15.79,44.41,26.84-37.92,63.59-35.45,63.59-35.45-23.08,28.71-13.83,64.61-13.83,64.61,34.31-47.27,99.74-26.5,99.74-26.5-59.71,16.78-60.35,72.66-60.35,72.66,18.42-7.95,31.97-2.65,31.97-2.65-14.39,10.6-22.23,37.68-22.23,37.68Z"/></svg>