<?xml version="1.0" encoding="UTF-8"?><svg id="Female_hair_9_" xmlns="http://www.w3.org/2000/svg" viewBox="0 0 800 800"><path d="M686.43,615.76c-1.75-.46-106.78-28.86-119.38-143.87,1.55,.08,3.52,.07,5.77-.18,1.54-.17,3.2-.46,4.95-.91,3.4-.86,7.11-2.35,10.78-4.82,1.55-1.04,3.1-2.26,4.61-3.7,8.32-7.84,15.6-21.88,17.39-46.75,4.79-66.58-47.11-57.43-47.11-57.43,0,0,8.48-150.58-100.14-192.94-27.1-45.68-48.95-76.36-48.95-76.36,0,0-6.47-82.16,125.75-72.88,132.21,9.28,159.16,319.75,122.5,438.82-36.27,117.77,22.54,160.1,23.83,161.02Z"/></svg>