<?xml version="1.0" encoding="UTF-8"?><svg id="Male_hair_15" xmlns="http://www.w3.org/2000/svg" viewBox="0 0 800 800"><path d="M582.88,359.55s-13.96-.52-20.89,2.42v24.37h-11.97s-20.17-84.97-12.18-148.42c0,0-32.29-36.4-137.84-36.86,.48-.01,.96-.01,1.45-.01h-2.9c.49,0,.97,0,1.45,.01-105.55,.46-137.84,36.86-137.84,36.86,7.99,63.45-12.18,148.42-12.18,148.42h-11.97v-24.37c-6.93-2.94-20.9-2.24-20.9-2.24,0,0-10.38-127.8,10.47-217.74,.87-3.76,3.23-7,6.55-8.99,18.62-11.13,85.5-47.36,165.87-46.39-.48,0-.97,.01-1.45,.02h2.9c-.48-.01-.97-.02-1.45-.02,80.37-.97,147.25,35.26,165.87,46.39,3.32,1.98,5.68,5.22,6.55,8.99,20.85,89.93,10.46,217.56,10.46,217.56Z"/><path d="M400,201.05h2.9c-.49,0-.97,0-1.45,.01-.48-.01-.96-.01-1.45-.01Z"/><path d="M402.9,86.63h-2.9c.48-.01,.97-.02,1.45-.02s.97,.01,1.45,.02Z"/></svg>