<?xml version="1.0" encoding="UTF-8"?><svg id="Eyes_3" xmlns="http://www.w3.org/2000/svg" viewBox="0 0 800 800"><defs><style>.cls-1{fill:#14110f;opacity:.05;}</style></defs><path class="cls-1" d="M534.76,421.3c-10.39,6.41-60.37,11.72-87.32,4.71-4.07-1.07-7.39-3.99-9.01-7.89-5.31-12.89-16.79-44.23-19.05-58.01-2.89-17.58,40.49-19.03,69.63-19.75,29.14-.72,56.6,3.61,59.49,12.29,2.89,8.67-2.4,61.67-13.73,68.65Z"/><path class="cls-1" d="M380.63,360.11c-2.27,13.79-13.74,45.12-19.05,58.01-1.61,3.89-4.94,6.82-9.01,7.89-26.95,7.01-76.93,1.7-87.32-4.71-11.33-6.98-16.62-59.98-13.73-68.65,2.89-8.68,30.34-13.01,59.49-12.29,29.14,.72,72.52,2.17,69.63,19.75Z"/></svg>