<?xml version="1.0" encoding="UTF-8"?><svg id="Ear_2" xmlns="http://www.w3.org/2000/svg" viewBox="0 0 800 800"><defs><style>.cls-1{fill:#333;}</style></defs><path class="cls-1" d="M227.29,468.63c0,1.06-.04,2.09-.11,3.1-.72,10.03-4.93,17.26-10.36,17.26-5.96,0-10.46-8.75-10.46-20.36,0-2.17,.16-4.25,.45-6.19,1.52,1.41,3.07,2.62,4.63,3.66-.05,.81-.08,1.66-.08,2.53,0,9.23,3.29,15.36,5.46,15.36,2,0,4.94-5.16,5.4-13.15,.05-.71,.07-1.45,.07-2.21,0-1.86-.14-3.68-.4-5.42-.21-1.36,.73-2.64,2.09-2.85,1.37-.21,2.64,.73,2.85,2.09,.3,1.99,.46,4.07,.46,6.18Z"/><path class="cls-1" d="M593.64,468.63c0,11.61-4.5,20.36-10.46,20.36-5.43,0-9.64-7.24-10.36-17.28-.07-1-.11-2.03-.11-3.08,0-2.11,.16-4.19,.46-6.18,.21-1.36,1.49-2.3,2.85-2.09,1.36,.21,2.3,1.49,2.09,2.85-.26,1.74-.4,3.56-.4,5.42,0,.74,.02,1.47,.06,2.17,.46,8.01,3.41,13.19,5.41,13.19,2.17,0,5.46-6.13,5.46-15.36,0-.91-.03-1.8-.09-2.65,1.55-1.04,3.1-2.26,4.61-3.7,.31,1.98,.48,4.11,.48,6.35Z"/></svg>