<?xml version="1.0" encoding="UTF-8"?><svg id="Layer_1" xmlns="http://www.w3.org/2000/svg" xmlns:xlink="http://www.w3.org/1999/xlink" viewBox="0 0 1073.29 721.04"><defs><style>.cls-1{fill:#cd9a50;}.cls-2{fill:url(#linear-gradient-2);}.cls-3{fill:#835a44;}.cls-4{fill:#f0c2a8;}.cls-5{fill:#7a5238;}.cls-6{fill:#e6ba9d;}.cls-7{fill:#e1b986;}.cls-8{fill:#f5d3b7;}.cls-9{font-family:MyriadPro-Regular, 'Myriad Pro';font-size:12px;}.cls-10{fill:#794e45;}.cls-11{letter-spacing:.02em;}.cls-12{fill:#1e1617;}.cls-13{fill:#edbda6;}.cls-14{fill:#f2b062;}.cls-15{fill:#d6a384;}.cls-16{fill:#d5a577;}.cls-17{fill:#998880;}.cls-18{fill:#fde1cc;}.cls-19{fill:#3f271b;}.cls-20{fill:#674633;}.cls-21{fill:#ac422a;}.cls-22{fill:#53381a;}.cls-23{fill:#e4e1ce;}.cls-24{fill:#9e6731;}.cls-25{fill:#f7d9bd;}.cls-26{fill:#cd832c;}.cls-27{fill:#6e3e18;}.cls-28{fill:#281710;}.cls-29{fill:#d3bc9a;}.cls-30{fill:url(#linear-gradient);}.cls-31{fill:#864438;}.cls-32{fill:#d6a07a;}</style><linearGradient id="linear-gradient" x1="-3340.42" y1="-4777.55" x2="-3343.5" y2="-4004.38" gradientTransform="translate(3878.57 4620.41)" gradientUnits="userSpaceOnUse"><stop offset="0" stop-color="#f5c0b7"/><stop offset=".12" stop-color="#fde1cc"/><stop offset=".24" stop-color="#f5d3b7"/><stop offset=".41" stop-color="#d6a07a"/><stop offset=".57" stop-color="#7a5238"/><stop offset=".74" stop-color="#794e45"/><stop offset=".88" stop-color="#674633"/><stop offset="1" stop-color="#3f271b"/></linearGradient><linearGradient id="linear-gradient-2" x1="-3020" y1="-4777.55" x2="-3023.07" y2="-4004.38" gradientTransform="translate(3558.15 4940.83)" gradientUnits="userSpaceOnUse"><stop offset="0" stop-color="#e4e1ce"/><stop offset=".12" stop-color="#998880"/><stop offset=".24" stop-color="#d5a577"/><stop offset=".41" stop-color="#cd832c"/><stop offset=".57" stop-color="#ac422a"/><stop offset=".74" stop-color="#864438"/><stop offset=".88" stop-color="#53381a"/><stop offset="1" stop-color="#1e1617"/></linearGradient></defs><text class="cls-9" transform="translate(57.16 373.08)"><tspan x="0" y="0">hair</tspan></text><text class="cls-9" transform="translate(57.16 37.45)"><tspan x="0" y="0">s</tspan><tspan class="cls-11" x="4.75" y="0">k</tspan><tspan x="10.58" y="0">in</tspan></text><g><rect class="cls-30" x="472.64" y="-177.64" width="128.01" height="798.37" transform="translate(758.19 -315.1) rotate(90)"/><rect class="cls-19" x="137.46" y="69.68" width="49.97" height="49.97"/><rect class="cls-20" x="199.83" y="69.68" width="49.97" height="49.97"/><rect class="cls-10" x="262.19" y="69.68" width="49.97" height="49.97"/><rect class="cls-5" x="324.56" y="69.68" width="49.97" height="49.97"/><rect class="cls-3" x="386.93" y="69.68" width="49.97" height="49.97"/><rect class="cls-32" x="449.29" y="69.68" width="49.97" height="49.97"/><rect class="cls-15" x="511.66" y="69.68" width="49.97" height="49.97"/><rect class="cls-6" x="574.03" y="69.68" width="49.97" height="49.97"/><rect class="cls-13" x="636.4" y="69.68" width="49.97" height="49.97"/><rect class="cls-4" x="698.76" y="69.68" width="49.97" height="49.97"/><rect class="cls-8" x="761.13" y="69.68" width="49.97" height="49.97"/><rect class="cls-25" x="823.5" y="69.68" width="49.97" height="49.97"/><rect class="cls-18" x="885.86" y="69.68" width="49.97" height="49.97"/></g><rect class="cls-2" x="472.64" y="142.78" width="128.01" height="798.37" transform="translate(1078.61 5.32) rotate(90)"/><g><rect class="cls-19" x="207.73" y="386.94" width="49.97" height="49.97"/><rect class="cls-22" x="268.51" y="386.94" width="49.97" height="49.97"/><rect class="cls-27" x="329.3" y="386.94" width="49.97" height="49.97"/><rect class="cls-24" x="450.87" y="386.94" width="49.97" height="49.97"/><rect class="cls-14" x="694.02" y="386.94" width="49.97" height="49.97"/><rect class="cls-26" x="572.45" y="386.94" width="49.97" height="49.97"/><rect class="cls-21" x="511.66" y="386.94" width="49.97" height="49.97"/><rect class="cls-23" x="997.96" y="386.94" width="49.97" height="49.97"/><rect class="cls-17" x="876.38" y="386.94" width="49.97" height="49.97"/><rect class="cls-29" x="937.17" y="386.94" width="49.97" height="49.97"/><rect class="cls-16" x="754.81" y="386.94" width="49.97" height="49.97"/><rect class="cls-7" x="815.6" y="386.94" width="49.97" height="49.97"/><rect class="cls-1" x="633.24" y="386.94" width="49.97" height="49.97"/><rect class="cls-28" x="146.94" y="386.94" width="49.97" height="49.97"/><rect x="25.36" y="386.94" width="49.97" height="49.97"/><rect class="cls-12" x="86.15" y="386.94" width="49.97" height="49.97"/><rect class="cls-31" x="390.09" y="386.94" width="49.97" height="49.97"/></g></svg>