<?xml version="1.0" encoding="UTF-8"?><svg id="Eyebrow_5" xmlns="http://www.w3.org/2000/svg" viewBox="0 0 800 800"><path d="M435.8,327.91c-1.47,.12-2.66,1.2-2.94,2.65-.84,4.28-1.86,12.75,3.04,13.36,6.58,.82,45.41-12.66,58.37-8.71,12.96,3.94,47.88,15.63,47.88,15.63,0,0-29.79-25-51.03-25.48-17.98-.41-46.88,1.85-55.31,2.55Z"/><path d="M364.2,327.91c1.47,.12,2.66,1.2,2.94,2.65,.84,4.28,1.86,12.75-3.04,13.36-6.58,.82-45.41-12.66-58.37-8.71s-47.88,15.63-47.88,15.63c0,0,29.79-25,51.03-25.48,17.98-.41,46.88,1.85,55.31,2.55Z"/></svg>