<svg width="33" height="58" viewBox="0 0 33 58" fill="none" xmlns="http://www.w3.org/2000/svg">
<g clip-path="url(#clip0_1108_18232)">
<path d="M29.5772 26.6088C29.7249 28.0029 28.9319 29.3077 28.0938 28.7147C27.7628 28.481 27.4666 27.9613 27.2289 27.4187C27.4465 28.3998 27.4223 29.4406 26.3438 29.4561C24.2971 29.4856 22.0636 23.082 22.0636 23.082H28.5149C28.5149 23.082 29.4288 25.2148 29.5772 26.6088Z" fill="black"/>
<path d="M3.07194 26.6088C2.9242 28.0029 3.71726 29.3077 4.55532 28.7147C4.88637 28.481 5.18251 27.9613 5.42023 27.4187C5.20266 28.3998 5.22683 29.4406 6.30529 29.4561C8.35207 29.4856 10.5855 23.082 10.5855 23.082H4.13427C4.13427 23.082 3.22034 25.2148 3.07194 26.6088Z" fill="black"/>
<mask id="path-3-inside-1_1108_18232" fill="white">
<path fill-rule="evenodd" clip-rule="evenodd" d="M30.6031 23.7698C31.2218 23.192 31.7632 22.1573 31.8963 20.3245C32.2525 15.4178 28.393 16.0921 28.393 16.0921C28.393 16.0921 29.0236 4.99493 20.9461 1.87315C19.6239 1.3617 18.0689 1.06396 16.2388 1.06396C3.23085 1.06396 4.08456 16.0921 4.08456 16.0921C4.08456 16.0921 1.07352 15.5858 0.619151 18.8734C0.60874 18.9508 0.599815 19.0311 0.591635 19.1129C0.573044 19.3016 0.562633 19.5028 0.56189 19.7165C0.56189 19.7821 0.562633 19.8492 0.564121 19.917C0.566351 20.0481 0.571557 20.1845 0.581224 20.3245C0.703926 22.1684 1.24828 23.2046 1.8722 23.7816C1.98523 23.8855 2.1005 23.9747 2.21651 24.0513C2.48943 24.2304 2.76532 24.338 3.01816 24.4006C3.1483 24.4331 3.27249 24.4537 3.38701 24.4662C3.79751 24.5097 4.08456 24.4478 4.08456 24.4478L4.68361 24.5824C6.08488 28.5609 9.52747 35.6691 16.2384 35.6691C22.9492 35.6691 26.3918 28.5611 27.7931 24.5826L28.393 24.4478C28.393 24.4478 28.4941 24.4692 28.6614 24.478C28.7767 24.4839 28.9232 24.4832 29.0905 24.4648C29.205 24.4522 29.3285 24.4309 29.4586 24.3977C29.7115 24.3343 29.9874 24.2245 30.2603 24.0425C30.3755 23.9658 30.4908 23.8759 30.6031 23.7698Z"/>
</mask>
<path fill-rule="evenodd" clip-rule="evenodd" d="M30.6031 23.7698C31.2218 23.192 31.7632 22.1573 31.8963 20.3245C32.2525 15.4178 28.393 16.0921 28.393 16.0921C28.393 16.0921 29.0236 4.99493 20.9461 1.87315C19.6239 1.3617 18.0689 1.06396 16.2388 1.06396C3.23085 1.06396 4.08456 16.0921 4.08456 16.0921C4.08456 16.0921 1.07352 15.5858 0.619151 18.8734C0.60874 18.9508 0.599815 19.0311 0.591635 19.1129C0.573044 19.3016 0.562633 19.5028 0.56189 19.7165C0.56189 19.7821 0.562633 19.8492 0.564121 19.917C0.566351 20.0481 0.571557 20.1845 0.581224 20.3245C0.703926 22.1684 1.24828 23.2046 1.8722 23.7816C1.98523 23.8855 2.1005 23.9747 2.21651 24.0513C2.48943 24.2304 2.76532 24.338 3.01816 24.4006C3.1483 24.4331 3.27249 24.4537 3.38701 24.4662C3.79751 24.5097 4.08456 24.4478 4.08456 24.4478L4.68361 24.5824C6.08488 28.5609 9.52747 35.6691 16.2384 35.6691C22.9492 35.6691 26.3918 28.5611 27.7931 24.5826L28.393 24.4478C28.393 24.4478 28.4941 24.4692 28.6614 24.478C28.7767 24.4839 28.9232 24.4832 29.0905 24.4648C29.205 24.4522 29.3285 24.4309 29.4586 24.3977C29.7115 24.3343 29.9874 24.2245 30.2603 24.0425C30.3755 23.9658 30.4908 23.8759 30.6031 23.7698Z" fill="white"/>
<path d="M31.8963 20.3245L32.8076 20.3907L32.8077 20.3907L31.8963 20.3245ZM30.6031 23.7698L29.9794 23.102L29.9755 23.1057L30.6031 23.7698ZM28.393 16.0921L27.4807 16.0403L27.4153 17.1905L28.5502 16.9922L28.393 16.0921ZM20.9461 1.87315L20.6164 2.72537L20.6167 2.72546L20.9461 1.87315ZM4.08456 16.0921L3.93304 16.9932L5.06175 17.183L4.99683 16.0403L4.08456 16.0921ZM0.619151 18.8734L-0.286 18.7483L-0.286439 18.7516L0.619151 18.8734ZM0.591635 19.1129L-0.317581 19.022L-0.31771 19.0233L0.591635 19.1129ZM0.56189 19.7165L-0.35186 19.7133V19.7165H0.56189ZM0.564121 19.917L1.47775 19.9014L1.47765 19.8969L0.564121 19.917ZM0.581224 20.3245L1.49296 20.2638L1.4928 20.2616L0.581224 20.3245ZM1.8722 23.7816L1.25177 24.4524L1.2538 24.4543L1.8722 23.7816ZM2.21651 24.0513L1.71281 24.8137L1.71522 24.8153L2.21651 24.0513ZM3.01816 24.4006L3.23909 23.514L3.2379 23.5137L3.01816 24.4006ZM3.38701 24.4662L3.28764 25.3746L3.29077 25.3749L3.38701 24.4662ZM4.08456 24.4478L4.28489 23.5563L4.0886 23.5122L3.89193 23.5546L4.08456 24.4478ZM4.68361 24.5824L5.54547 24.2789L5.37744 23.8018L4.88395 23.6909L4.68361 24.5824ZM27.7931 24.5826L27.5928 23.6911L27.0993 23.802L26.9313 24.279L27.7931 24.5826ZM28.393 24.4478L28.5819 23.5538L28.387 23.5126L28.1926 23.5563L28.393 24.4478ZM28.6614 24.478L28.6132 25.3905L28.6147 25.3906L28.6614 24.478ZM29.0905 24.4648L28.9911 23.5564L28.9905 23.5565L29.0905 24.4648ZM29.4586 24.3977L29.2364 23.5114L29.233 23.5122L29.4586 24.3977ZM30.2603 24.0425L29.7543 23.2816L29.7533 23.2823L30.2603 24.0425ZM30.985 20.2583C30.8627 21.9418 30.3791 22.7288 29.9794 23.102L31.2267 24.4376C32.0646 23.6553 32.6637 22.3728 32.8076 20.3907L30.985 20.2583ZM28.393 16.0921C28.5502 16.9922 28.5497 16.9923 28.5492 16.9924C28.5491 16.9924 28.5486 16.9925 28.5483 16.9926C28.5477 16.9927 28.5471 16.9928 28.5466 16.9929C28.5456 16.993 28.5449 16.9932 28.5443 16.9932C28.5432 16.9934 28.5429 16.9935 28.5435 16.9934C28.5446 16.9932 28.549 16.9925 28.5565 16.9915C28.5714 16.9896 28.5982 16.9863 28.635 16.9832C28.7092 16.977 28.8209 16.9714 28.956 16.9765C29.2327 16.987 29.5694 17.0406 29.8806 17.191C30.1768 17.3341 30.4682 17.5722 30.681 18.0001C30.9003 18.4409 31.0658 19.1444 30.9849 20.2583L32.8077 20.3907C32.9049 19.0512 32.7216 17.999 32.3173 17.1863C31.9067 16.3606 31.3 15.8472 30.6758 15.5456C30.0666 15.2512 29.4607 15.1668 29.0249 15.1503C28.8037 15.142 28.6167 15.1508 28.4812 15.1622C28.4132 15.168 28.3574 15.1744 28.316 15.1799C28.2952 15.1827 28.278 15.1852 28.2646 15.1873C28.2578 15.1883 28.252 15.1893 28.2472 15.1901C28.2448 15.1905 28.2427 15.1908 28.2407 15.1911C28.2398 15.1913 28.2389 15.1915 28.238 15.1916C28.2376 15.1917 28.237 15.1918 28.2368 15.1918C28.2363 15.1919 28.2357 15.192 28.393 16.0921ZM20.6167 2.72546C24.2656 4.1357 25.9996 7.35778 26.8163 10.3909C27.2221 11.898 27.3888 13.3189 27.4533 14.3656C27.4854 14.8875 27.4919 15.3129 27.4905 15.6049C27.4899 15.7508 27.4872 15.8631 27.4848 15.9373C27.4836 15.9743 27.4825 16.0019 27.4817 16.0192C27.4813 16.0279 27.481 16.034 27.4808 16.0376C27.4807 16.0393 27.4807 16.0405 27.4807 16.0409C27.4806 16.0411 27.4806 16.0412 27.4806 16.0411C27.4806 16.041 27.4807 16.0408 27.4807 16.0408C27.4807 16.0406 27.4807 16.0403 28.393 16.0921C29.3052 16.144 29.3053 16.1436 29.3053 16.1432C29.3053 16.143 29.3053 16.1425 29.3053 16.1421C29.3054 16.1413 29.3054 16.1404 29.3055 16.1393C29.3056 16.137 29.3058 16.1341 29.306 16.1305C29.3063 16.1234 29.3068 16.1136 29.3074 16.1012C29.3085 16.0763 29.3099 16.0412 29.3114 15.9962C29.3143 15.9063 29.3173 15.7772 29.318 15.6135C29.3196 15.2864 29.3122 14.8204 29.2773 14.2532C29.2076 13.1216 29.0272 11.5731 28.5809 9.91574C27.6935 6.61979 25.704 2.73238 21.2755 1.02084L20.6167 2.72546ZM16.2388 1.97771C17.9683 1.97771 19.4102 2.25876 20.6164 2.72537L21.2757 1.02094C19.8376 0.464634 18.1694 0.150216 16.2388 0.150216V1.97771ZM4.08456 16.0921C4.99683 16.0403 4.99685 16.0406 4.99687 16.0409C4.99687 16.0409 4.99688 16.0411 4.99688 16.0412C4.99689 16.0412 4.99688 16.041 4.99686 16.0407C4.99681 16.0399 4.99673 16.0382 4.9966 16.0357C4.99634 16.0305 4.99593 16.0219 4.99542 16.0099C4.99439 15.9858 4.99294 15.9482 4.99154 15.8978C4.98872 15.7971 4.98604 15.6457 4.98702 15.451C4.98897 15.0612 5.00558 14.4995 5.06469 13.8236C5.18337 12.4665 5.47117 10.6758 6.13899 8.89961C6.8067 7.12368 7.83932 5.40102 9.42513 4.12374C10.9976 2.85718 13.1762 1.97771 16.2388 1.97771V0.150216C12.7974 0.150216 10.2047 1.14927 8.27878 2.70049C6.36618 4.24099 5.17325 6.27536 4.4284 8.25647C3.68365 10.2373 3.37188 12.2036 3.24414 13.6644C3.18003 14.3974 3.16171 15.0097 3.15954 15.4418C3.15846 15.658 3.16141 15.8295 3.16475 15.9489C3.16642 16.0086 3.16819 16.0553 3.16959 16.0881C3.1703 16.1045 3.17091 16.1175 3.17138 16.1268C3.17161 16.1315 3.1718 16.1352 3.17196 16.1381C3.17203 16.1395 3.1721 16.1407 3.17215 16.1417C3.17218 16.1422 3.17221 16.1428 3.17222 16.143C3.17225 16.1435 3.17228 16.1439 4.08456 16.0921ZM1.5243 18.9985C1.61809 18.3199 1.83314 17.9019 2.05388 17.6373C2.27592 17.3712 2.54585 17.2101 2.82508 17.112C3.11024 17.0119 3.39668 16.981 3.61931 16.978C3.72846 16.9766 3.81634 16.9819 3.87311 16.9869C3.90132 16.9894 3.92133 16.9919 3.93186 16.9932C3.93711 16.9939 3.93995 16.9943 3.94021 16.9944C3.94034 16.9944 3.93982 16.9943 3.93863 16.9941C3.93804 16.994 3.93728 16.9939 3.93635 16.9938C3.93588 16.9937 3.93537 16.9936 3.93482 16.9935C3.93455 16.9935 3.9341 16.9934 3.93396 16.9934C3.93351 16.9933 3.93304 16.9932 4.08456 16.0921C4.23607 15.191 4.23558 15.1909 4.23508 15.1909C4.2349 15.1908 4.23438 15.1907 4.23402 15.1907C4.23328 15.1906 4.2325 15.1904 4.23167 15.1903C4.23001 15.19 4.22815 15.1897 4.22611 15.1894C4.22203 15.1887 4.21718 15.188 4.2116 15.1872C4.20044 15.1855 4.18632 15.1835 4.1694 15.1812C4.1356 15.1768 4.09047 15.1716 4.03547 15.1667C3.9258 15.1569 3.77489 15.1483 3.59466 15.1507C3.23852 15.1555 2.7438 15.2036 2.21941 15.3878C1.68908 15.5741 1.12105 15.9028 0.650737 16.4665C0.17912 17.0316 -0.152606 17.7832 -0.285995 18.7483L1.5243 18.9985ZM1.50085 19.2038C1.50843 19.128 1.51619 19.0588 1.52474 18.9953L-0.286439 18.7516C-0.298713 18.8428 -0.3088 18.9342 -0.31758 19.022L1.50085 19.2038ZM1.47563 19.7197C1.47628 19.5336 1.48534 19.3613 1.50098 19.2025L-0.31771 19.0233C-0.339249 19.2419 -0.351014 19.472 -0.351854 19.7133L1.47563 19.7197ZM1.47765 19.8969C1.47631 19.8356 1.47564 19.7752 1.47564 19.7165H-0.35186C-0.35186 19.789 -0.351039 19.8627 -0.349409 19.937L1.47765 19.8969ZM1.4928 20.2616C1.48438 20.1396 1.47974 20.0193 1.47774 19.9014L-0.349497 19.9325C-0.347039 20.077 -0.341271 20.2293 -0.330355 20.3874L1.4928 20.2616ZM2.49262 23.1108C2.09171 22.74 1.60552 21.9554 1.49296 20.2638L-0.330509 20.3852C-0.197672 22.3814 0.40485 23.6691 1.25178 24.4524L2.49262 23.1108ZM2.7202 23.2889C2.64414 23.2387 2.56731 23.1794 2.4906 23.1089L1.2538 24.4543C1.40316 24.5916 1.55686 24.7107 1.71282 24.8137L2.7202 23.2889ZM3.2379 23.5137C3.0719 23.4726 2.89374 23.4028 2.7178 23.2874L1.71522 24.8153C2.08511 25.058 2.45874 25.2034 2.79843 25.2876L3.2379 23.5137ZM3.48639 23.5579C3.40854 23.5494 3.32527 23.5355 3.23909 23.514L2.79724 25.2873C2.97134 25.3307 3.13645 25.358 3.28764 25.3746L3.48639 23.5579ZM4.08456 24.4478C3.89193 23.5546 3.89212 23.5546 3.89231 23.5545C3.89237 23.5545 3.89256 23.5545 3.89268 23.5544C3.89293 23.5544 3.89317 23.5543 3.89341 23.5543C3.89389 23.5542 3.89435 23.5541 3.8948 23.554C3.89569 23.5538 3.89652 23.5536 3.89729 23.5535C3.89883 23.5531 3.90011 23.5529 3.90115 23.5527C3.90322 23.5522 3.90431 23.552 3.90445 23.552C3.90474 23.552 3.90129 23.5526 3.89442 23.5537C3.88059 23.5558 3.85348 23.5595 3.81542 23.5626C3.73844 23.5689 3.62209 23.5723 3.48326 23.5576L3.29077 25.3749C3.56243 25.4037 3.79485 25.3979 3.96402 25.3841C4.04903 25.3771 4.11934 25.3681 4.17216 25.3599C4.19861 25.3559 4.2208 25.352 4.23839 25.3487C4.24718 25.3471 4.25484 25.3456 4.26132 25.3443C4.26456 25.3437 4.2675 25.3431 4.27015 25.3425C4.27147 25.3422 4.27272 25.342 4.27389 25.3417C4.27448 25.3416 4.27505 25.3415 4.2756 25.3414C4.27587 25.3413 4.27614 25.3412 4.27641 25.3412C4.27654 25.3412 4.27673 25.3411 4.2768 25.3411C4.27699 25.3411 4.27719 25.341 4.08456 24.4478ZM4.88395 23.6909L4.28489 23.5563L3.88422 25.3393L4.48328 25.4739L4.88395 23.6909ZM16.2384 34.7553C13.2475 34.7553 10.9443 33.1831 9.17498 31.0365C7.39799 28.8807 6.2302 26.223 5.54547 24.2789L3.82176 24.886C4.53829 26.9204 5.79243 29.806 7.76479 32.1989C9.74478 34.601 12.5183 36.5828 16.2384 36.5828V34.7553ZM26.9313 24.279C26.2465 26.2232 25.0787 28.8808 23.3018 31.0366C21.5324 33.1831 19.2292 34.7553 16.2384 34.7553V36.5828C19.9584 36.5828 22.7319 34.6011 24.7119 32.199C26.6843 29.8062 27.9384 26.9206 28.655 24.8862L26.9313 24.279ZM28.1926 23.5563L27.5928 23.6911L27.9935 25.4741L28.5933 25.3393L28.1926 23.5563ZM28.7097 23.5655C28.6549 23.5627 28.6139 23.5579 28.5908 23.5546C28.5793 23.553 28.5724 23.5518 28.5707 23.5515C28.5699 23.5514 28.5703 23.5515 28.5722 23.5518C28.5731 23.552 28.5743 23.5522 28.576 23.5526C28.5768 23.5527 28.5777 23.5529 28.5787 23.5531C28.5791 23.5532 28.5797 23.5533 28.5802 23.5534C28.5805 23.5535 28.5807 23.5536 28.581 23.5536C28.5812 23.5537 28.5813 23.5537 28.5815 23.5537C28.5815 23.5537 28.5816 23.5537 28.5817 23.5538C28.5818 23.5538 28.5819 23.5538 28.393 24.4478C28.204 25.3418 28.2042 25.3418 28.2043 25.3419C28.2043 25.3419 28.2044 25.3419 28.2045 25.3419C28.2046 25.3419 28.2048 25.342 28.2049 25.342C28.2052 25.3421 28.2056 25.3421 28.2059 25.3422C28.2065 25.3423 28.2072 25.3425 28.2079 25.3426C28.2093 25.3429 28.2107 25.3432 28.2123 25.3435C28.2155 25.3442 28.2191 25.3449 28.2231 25.3457C28.2311 25.3472 28.2408 25.349 28.2521 25.351C28.2746 25.355 28.3034 25.3597 28.3381 25.3646C28.4074 25.3742 28.5007 25.3846 28.6132 25.3905L28.7097 23.5655ZM28.9905 23.5565C28.8777 23.5689 28.7807 23.5692 28.7081 23.5655L28.6147 25.3906C28.7727 25.3987 28.9687 25.3974 29.1905 25.373L28.9905 23.5565ZM29.233 23.5122C29.1458 23.5345 29.0646 23.5484 28.9911 23.5564L29.1899 25.3731C29.3455 25.3561 29.5112 25.3273 29.6843 25.2831L29.233 23.5122ZM29.7533 23.2823C29.5769 23.4 29.3995 23.4705 29.2365 23.5114L29.6808 25.284C30.0234 25.1981 30.3978 25.0491 30.7673 24.8027L29.7533 23.2823ZM29.9755 23.1057C29.903 23.1742 29.8289 23.232 29.7543 23.2816L30.7662 24.8034C30.9222 24.6996 31.0786 24.5777 31.2307 24.4339L29.9755 23.1057Z" fill="black" mask="url(#path-3-inside-1_1108_18232)"/>
<path d="M3.03009 11.149C2.85415 15.1875 3.29869 17.5398 3.29869 17.5398C4.11794 16.9308 5.55029 16.8932 5.55029 16.8932C5.55029 16.8932 10.6666 14.1742 13.4252 5.86888C13.4252 5.86888 14.0779 8.86518 12.3574 11.9199C12.3574 11.9199 15.061 11.149 16.5276 6.13614C16.5276 6.13614 16.6766 10.9106 20.3156 12.8983C20.3021 12.8627 19.7763 11.472 20.0107 8.92428C20.0107 8.92428 21.9695 14.1836 27.5008 16.8932C27.5008 16.8932 28.7196 16.824 29.6302 17.4122C29.6302 17.4122 30.1627 15.1727 30.072 12.3725C29.9975 10.088 29.3844 7.84717 28.222 5.87895C23.9632 -1.33044 16.5833 1.49127 16.5833 1.49127C16.5833 1.49127 3.61162 -1.70918 3.03009 11.149Z" fill="black"/>
</g>
<path d="M7.66142 54.8071H8.62514V51.2896H12.8655V54.8071H13.8292V47.0813H12.8655V50.4222H8.62514V47.0813H7.66142V54.8071ZM16.6508 54.9142C17.395 54.9142 18.0642 54.5127 18.3908 53.9023H18.4122V54.8071H19.3438V50.9576C19.3438 49.844 18.5193 49.1319 17.2022 49.1319C15.8905 49.1319 15.0928 49.8707 15.0125 50.7863L15.0071 50.8452H15.9066L15.9173 50.797C16.0244 50.2991 16.4741 49.9564 17.1915 49.9564C17.9679 49.9564 18.4122 50.3687 18.4122 51.0486V51.5144L16.8168 51.6054C15.5372 51.6804 14.7983 52.2747 14.7983 53.2223V53.2331C14.7983 54.245 15.5425 54.9142 16.6508 54.9142ZM15.7513 53.2331V53.2223C15.7513 52.703 16.1796 52.3711 16.9238 52.3282L18.4122 52.2372V52.6923C18.4122 53.5008 17.7376 54.1058 16.8596 54.1058C16.1903 54.1058 15.7513 53.7685 15.7513 53.2331ZM21.0518 48.2967C21.3784 48.2967 21.6354 48.0343 21.6354 47.7131C21.6354 47.3865 21.3784 47.1295 21.0518 47.1295C20.7305 47.1295 20.4682 47.3865 20.4682 47.7131C20.4682 48.0343 20.7305 48.2967 21.0518 48.2967ZM20.586 54.8071H21.5176V49.239H20.586V54.8071ZM22.7865 54.8071H23.7181V51.3699C23.7181 50.5239 24.1892 50.0207 24.912 50.0207C25.1369 50.0207 25.335 50.0474 25.4099 50.0742V49.1694C25.335 49.1587 25.1958 49.1319 25.0351 49.1319C24.4087 49.1319 23.9269 49.5388 23.7395 50.1813H23.7181V49.239H22.7865V54.8071Z" fill="#333333"/>
<defs>
<clipPath id="clip0_1108_18232">
<rect width="31.9812" height="34.7225" fill="white" transform="translate(0.247925 0.947266)"/>
</clipPath>
</defs>
</svg>
