<svg width="122" height="101" viewBox="0 0 122 101" fill="none" xmlns="http://www.w3.org/2000/svg">
<ellipse cx="56.5" cy="97" rx="54.5" ry="4" fill="black" fill-opacity="0.14"/>
<g filter="url(#filter0_i_1146_17483)">
<path d="M94.2276 0H19.4265C14.8344 0 11.1118 3.72262 11.1118 8.3147V76.4656C11.1118 81.0576 14.8344 84.7803 19.4265 84.7803H94.2276C98.8197 84.7803 102.542 81.0576 102.542 76.4656V8.3147C102.542 3.72262 98.8197 0 94.2276 0Z" fill="#F7F7F7"/>
</g>
<path d="M11.1587 8.3147C11.1587 6.10951 12.0347 3.99463 13.594 2.43532C15.1533 0.876011 17.2682 0 19.4734 0L94.2823 0C95.3738 -4.82992e-07 96.4546 0.215122 97.463 0.633071C98.4713 1.05102 99.3874 1.6636 100.159 2.43579C100.93 3.20799 101.542 4.12465 101.959 5.13339C102.376 6.14213 102.59 7.22317 102.589 8.3147V27.7027H11.1587V8.3147Z" fill="#A1E0CA"/>
<path d="M11.3775 46.8093C11.3775 46.8093 2 53.061 2 53.8424C2 54.6239 9.81457 59.3126 9.81457 60.0941C9.81457 60.8756 5.12583 65.5643 5.12583 65.5643" stroke="#333333" stroke-width="3" stroke-linecap="round" stroke-linejoin="round"/>
<path d="M120 32.743L102.808 47.4422" stroke="#333333" stroke-width="3" stroke-linecap="round" stroke-linejoin="round"/>
<path d="M26.2251 96.8226H37.947L41.8542 85.1007" stroke="#333333" stroke-width="3" stroke-linecap="round" stroke-linejoin="round"/>
<path d="M87.1789 96.8226H75.4571L71.5498 85.1007" stroke="#333333" stroke-width="3" stroke-linecap="round" stroke-linejoin="round"/>
<defs>
<filter id="filter0_i_1146_17483" x="11.1118" y="0" width="91.4307" height="84.7803" filterUnits="userSpaceOnUse" color-interpolation-filters="sRGB">
<feFlood flood-opacity="0" result="BackgroundImageFix"/>
<feBlend mode="normal" in="SourceGraphic" in2="BackgroundImageFix" result="shape"/>
<feColorMatrix in="SourceAlpha" type="matrix" values="0 0 0 0 0 0 0 0 0 0 0 0 0 0 0 0 0 0 127 0" result="hardAlpha"/>
<feOffset/>
<feGaussianBlur stdDeviation="2.5"/>
<feComposite in2="hardAlpha" operator="arithmetic" k2="-1" k3="1"/>
<feColorMatrix type="matrix" values="0 0 0 0 0 0 0 0 0 0 0 0 0 0 0 0 0 0 0.1 0"/>
<feBlend mode="normal" in2="shape" result="effect1_innerShadow_1146_17483"/>
</filter>
</defs>
</svg>
