<?xml version="1.0" encoding="UTF-8"?><svg id="Female_hair_8_" xmlns="http://www.w3.org/2000/svg" viewBox="0 0 800 800"><path d="M199.03,272.56c-2.62,60.14,4,95.17,4,95.17,12.2-9.07,33.53-9.63,33.53-9.63,0,0,76.19-40.49,117.27-164.17,0,0,9.72,44.62-15.9,90.11,0,0,40.26-11.48,62.1-86.13,0,0,2.22,71.1,56.41,100.7-.2-.53-8.03-21.24-4.54-59.18,0,0,29.17,78.32,111.54,118.67,0,0,18.15-1.03,31.71,7.73,0,0,7.93-33.35,6.58-75.05-1.11-34.02-10.24-67.39-27.55-96.7-63.42-107.36-173.32-65.34-173.32-65.34,0,0-193.17-47.66-201.83,143.82Z"/></svg>