<?xml version="1.0" encoding="UTF-8"?><svg id="Male_hair_16" xmlns="http://www.w3.org/2000/svg" viewBox="0 0 800 800"><path d="M580.85,359s-5.93-.83-10.08-.68c-5.94,19.23-9.34,39.31-9.34,39.31,0,0-6.53-148.77-51.15-183.66-44.61-34.9-107.87,4.51-107.87,4.51,0,0-52.65-36.81-107.34-3.86-55.21,33.26-54.21,185.76-54.21,185.76-.79-12.06-3.35-28.69-6.74-42.25-4.44-.34-12.12,.38-12.12,.38h0c-.13-26.76-2.64-53.47-7.79-79.72-2.25-11.47-4.18-23.59-5.54-36.45-7.07-66.87,51.13-86.18,51.13-86.18,9.47-60.96,85.06-45.06,85.06-45.06,18.55-43.73,92.76-29.6,132.52-12.37,39.75,17.23,99.51,0,99.51,0,4.55,42.85-20.89,61.4-20.89,61.4,50.8,6.56,46.44,74.77,35.5,121.96-5.79,24.97-9.23,50.42-10.62,76.02l-.05,.88Z"/></svg>