<?xml version="1.0" encoding="UTF-8"?><svg id="Male_hair_5" xmlns="http://www.w3.org/2000/svg" viewBox="0 0 800 800"><path d="M592.93,327.28c.37-.29,.45-.81,.19-1.2l-3.9-5.72c-.26-.38-.18-.91,.18-1.19l2.72-2.13c.46-.36,.44-1.06-.03-1.41-1.98-1.47-2.36-4.81-1-6.86,.4-.6,.02-1.39-.69-1.41-.33,0-.65-.15-.8-.44-1.59-3.19,3.6-7.35,2.14-10.9-.61-1.49-2.35-2.71-1.92-4.26,.25-.92,1.19-1.45,1.74-2.23,.65-.93,.69-2.13,.71-3.26,.06-3.33-.37-7.42-2.97-9.13-.47-.31-.5-.99-.08-1.37l2.25-2.03c.45-.41,.35-1.12-.17-1.43-1.81-1.07-2.77-3.51-2.44-5.67,.36-2.36,1.86-4.38,3.58-6.07,.3-.3,.35-.75,.13-1.11-1.91-3.17-2.14-7.3-.64-10.67,.23-.51-.08-1.14-.63-1.24-1.86-.32-3.37-3.01-2.97-5.18,.5-2.71,2.44-5.03,2.73-7.77,.3-2.89-1.28-5.61-2-8.43-.58-2.29-.21-5.22,1.47-6.62,.43-.36,.43-1.06-.03-1.38-2.66-1.89-3.39-6.29-1.34-8.85,.31-.39,.29-.95-.11-1.26-3.16-2.46-4.66-6.84-3.92-10.77,.15-.83-.84-1.37-1.46-.8l-.1,.09c-.62,.56-1.6,.04-1.47-.79l1.01-6.55c.17-1.08-.36-2.6-1.09-2.94-.4-.19-.56-.66-.42-1.07l.17-.48c.18-.49-.11-1.02-.61-1.15-3.75-.96-6.46-5.14-5.77-8.96,.08-.46-.21-.9-.66-1l-3.49-.83c-.34-.08-.62-.35-.67-.7-.26-1.84,.33-3.82-.41-5.53-1.31-3.03-6.25-4.19-6.98-6.91-.12-.46-.63-.67-1.09-.55-1.55,.4-3.65-1.07-4.39-2.79-1.22-2.84-1.3-6.63-5.59-6.88-.72-.04-1.45,.09-2.14,.3-.36-1.49-1.03-2.9-2-4.08-2.3-2.82-5.88-4.2-8.89-6.24-2.34-1.59-4.5-4.06-4.87-6.72-.13-.92-1.12-1.47-1.99-1.15-2.42,.87-5.26,.61-7.41-.82-1.14-.75-2.08-1.78-3.24-2.51-1.39-.86-3.06-1.22-4.69-1.06-.82-.39-1.65-.77-2.49-1.15,0,0,0-.01-.01-.02l-.55-3.79c-.15-1.05-.62-1.55-1.24-1.69-2-.44-3.99-.95-5.96-1.52-.1-.79-.25-1.57-.46-2.33-.06-.23-.14-.47-.32-.62-.18-.15-.43-.17-.67-.19-1.32-.1-2.64-.19-3.96-.29-.54-.04-1.12-.07-1.58,.21-.26,.16-.51,.41-.76,.61-.43-.17-.86-.33-1.29-.51-.02-.26,0-.55,0-.81,.02-1.46-1.38-2.77-2.83-2.65-.9,.07-1.68,.6-2.39,1.19-1.63-.77-3.24-1.57-4.82-2.43-.91-.5-1.95-1.02-2.94-.71-.34,.11-.62,.37-.79,.69-.38,.7-1.19,1.05-1.93,.76l-7.14-2.8c-.79-.31-1.7-.59-2.58-.71-.52-.07-.94,.11-1.25,.41-.81-.18-1.62-.21-2.36,.14-.73,.35-1.24,1.01-1.71,1.71-.69-.49-1.31-1.09-1.82-1.72-1.61-1.98-2.8-4.42-4.95-5.8-1.23-.79-2.96-.96-4.3-.48-1.33,.47-1.32,2.38,0,2.86,1.34,.49,1.34,2.38,0,2.87-.11,.04-.23,.08-.34,.12-.19-.03-.37-.06-.56-.1-.69-1.47-1.62-2.81-3.11-3.31-.63-.21-1.36-.23-1.92,.12-.27,.17-.48,.41-.7,.64-.51,.53-1.09,.97-1.71,1.37-.26-.11-.37-.15-.63-.25-.19-.81-.31-1.63-.35-2.45-.04-.76-.62-1.38-1.37-1.44-3.29-.29-6.93-.11-9.13,1.86-.64,.58-1.63,.45-2.17-.22-1.49-1.88-4.13-2.88-6.47-2.35-.63,.14-1.29-.08-1.65-.62l-1.84-2.72c-.8-1.18-2.05-1.18-2.7-.34-1.81,2.36-5.19,3.51-8.11,2.9-1.89-.39-3.84-.07-5.47,.96-.63,.4-1.24,.72-1.62,.92-.11-.13-.23-.25-.35-.38,.16-.17,.1-.38-.62-.62-.92-.89-1.89-1.75-2.51-2.86-.18-.33-.33-.67-.58-.95-.61-.69-1.71-.77-2.56-.43-.86,.34-1.53,1.03-2.13,1.72-.81,.93-1.54,1.92-2.23,2.94-.61-.32-1.23-.6-1.89-.8-3.25-.94-6.68,.58-10.06,.45-2.81-.11-5.83-.75-5.51-3.14,.12-.91-.5-1.76-1.42-1.76-2.09,0-4.2,1.08-5.27,2.88-2.43,3.36-7.36,2.51-11.11,.86-.71-.31-1.56-.02-1.94,.66-1.57,2.83-6.31,3.69-8.65,1.4-.44-.43-1.26-.47-1.79-.15-1.2,.72-3.09,1.87-4.46,2.7-.68,.41-1.61,.28-2.06-.38-.93-1.39-3.34-1.89-5.06-1.16-2.2,.95-3.74,3-5.8,4.22-1.51,.89-3.69,1.07-5.06,.22-.93-.58-2.12-.12-2.34,.95-.02,.11-.04,.21-.05,.32-.03,.23-.1,.44-.2,.62-.62,.22-1.19,.41-1.81,.63-4.61-1.42-9.73-2.17-13.21,.91-.72,.64-1.36,1.44-2.27,1.75-1.84,.63-3.87-.92-5.7-1.5-.83-.26-1.74,.2-1.94,1.06-.14,.61-.68,1.38-1.35,1.58-2.17,.66-4.53,.67-6.71,.07-.96-.27-1.91,.49-1.9,1.49,.02,1.94,.16,3.88-1.75,5.44-1.04,.43-2.08,.85-3.1,1.29-.23,.03-.47,.05-.7,.05-2.23,0-4.23-.91-6.13-2.03-.89-.52-2.07-.05-2.25,.97-.32,1.72-.34,3.49-.06,5.22,0,0,0,.01-.01,.02-1.03,.51-2.05,1.03-3.05,1.55-2.96-.07-5.97,1.05-8.06,3.16-.54,.54-.98,1.16-1.39,1.8l-5.07-.06c-.46,0-.92,.25-1.07,.69-.52,1.53-2.85,2.27-4.15,1.32-.38-.28-.85-.37-1.27-.15-2.42,1.24-4.7,3.6-4.43,5.91,.08,.64-.46,1.16-1.1,1.23-1.66,.16-3.12,1.19-4.52,2.5-1.02-.54-2.03-1.22-3.31-.3-.59,.42-.98,1.06-1.2,1.75-.36,1.12-.71,2.24-1.07,3.36-.07,.22-.14,.46-.17,.69-.65,.46-1.33,.84-2.05,1.07-.72,.23-1.1,1.06-.7,1.7,.11,.18,.22,.37,.31,.56,.3,.63-.1,1.35-.78,1.53-3.12,.83-5.45,4.2-5.11,7.41,.06,.61-.31,1.16-.91,1.29-.99,.21-1.96,.57-2.84,1.08-.49,.28-.71,.86-.52,1.39,.3,.84,.71,2,.71,2,.21,.6,.14,1-.1,1.31-.84,1.08-1.71,2.16-2.61,3.21-1.04,0-2.08,.13-3.09,.41-.17,.05-.34,.1-.47,.22-.14,.14-.2,.34-.24,.54-.17,.85-.11,1.74,.12,2.58-1.14,.98-2.34,1.86-3.65,2.56-.6,.32-.76,1.08-.42,1.68,.72,1.27,.19,3.59-.67,5.12l-4.9,8.68c-.29,.51-.15,1.15,.32,1.49l1.29,.95c.64,.47,.65,1.25,.07,1.8-2.58,2.43-3.51,6.54-2.2,9.83,.21,.53-.01,1.11-.49,1.41-2.77,1.77-3.57,6.28-1.23,8.72,1.09,1.13,2.67,1.85,2.41,4.05-.13,1.06-.65,2.05-1.44,2.77-.63,.57-1.35,.97-2.13,1.28-.82,.33-.97,1.42-.27,1.96,2.46,1.92,3.46,5.98,1.67,8.57-.29,.42-.33,.98,0,1.38,1.34,1.62,.59,4.49-.41,6.58-1.13,2.37-2.13,5.65-.05,7.26,.5,.35,1.12,.53,1.73,.53,.86,0,1.46,.85,1.09,1.63-.86,1.82-2.09,3.47-3.59,4.8-.65,.58-.43,1.66,.41,1.94,.4,.13,.66,.53,.75,.95,.35,1.61,.87,3.18,1.56,4.67,.23,.51,.09,1.11-.37,1.43l-2.18,1.53c-.74,.52-.87,1.19-.57,1.71,1.91,3.24,3.27,6.8,4,10.49,.09,.47-.13,.95-.54,1.2l-3.11,1.91c-.69,.42-.72,1.37-.1,1.89,1.64,1.36,2.38,3.84,1.53,5.82-.07,.16-.18,.3-.32,.42-.41,.35-1.38,1.18-2.13,1.82-.51,.44-.51,1.2-.04,1.68,2.32,2.38,2.8,6.44,1.12,9.3-.33,.57-.09,1.29,.5,1.58,2.95,1.43,4.61,5.36,3.25,8.42-.88,1.97-2.68,3.35-4.01,5.05s-2.14,4.23-.84,5.96c.33,.43,.76,.77,1.22,1.07-.22,.21-.45,.42-.64,.66-.21,.25-.4,.54-.42,.86-.01,.27,.1,.52,.22,.76,.82,1.73,1.77,3.39,2.86,4.96,.15,.22,.32,.45,.49,.67-.41,.46-.88,.85-1.42,1.15-.47,.26-.66,.9-.47,1.4,.86,2.28,1.42,4.68,1.64,7.11,.04,.41-.16,.81-.5,1.05l-1.85,1.28c-.62,.43-.66,1.32-.1,1.81,2.99,2.57,3.46,7.26,3.29,11.58-.04,.9,.93,1.51,1.7,1.07,.46-.27,.89-.59,1.3-.93,.01,.48,.02,.73,.02,.73,13.06-7.88,27.88-5.37,27.88-5.37l4.86,.92c2.43-.38,3.48-4.02,2.98-6.42-.16-.75-.5-1.46-.52-2.22,0-.35,.09-.73,.28-1.04,.36-.59,.38-1.32-.03-1.87-.65-.9-1.21-1.86-1.46-2.93-.28-1.2-.04-2.59,.73-3.5,.46-.55,.59-1.3,.23-1.92l-.43-.76c-.35-.61-.27-1.38,.21-1.9,.82-.87,1.07-2.32,.4-3.34-.42-.63-1.15-1.24-.96-1.97,.13-.52,.67-.8,1.06-1.16,.74-.7,.88-1.87,.5-2.79-.31-.75-.14-1.61,.53-2.06,1.89-1.27,3.63-2.8,4.15-4.96,.18-.73,.2-1.48,.31-2.22,.33-2.25-.86-.65,.85-2.15-.62-.05,.14-2.13,.23-2.85,.04-.3,.14-.58,.33-.81,1.38-1.72,3-3.23,4.82-4.48,.9-.62,.86-1.88,.02-2.57-.2-.17-.35-.37-.42-.64-.23-.91,.72-1.64,1.46-2.22,2.2-1.72,3.46-4.33,4.64-6.85,.41-.88,.83-1.76,1.24-2.63,.25-.52,.5-1.06,.52-1.64,.02-.48-.13-.94-.35-1.38-.38-.76-.06-1.71,.69-2.11,.61-.32,1.29-.55,1.94-.77,1.2-.42,2.48-1,2.99-2.17,.2-.46,.16-1.01-.03-1.49-.38-.94,.25-2.02,1.26-2.16,.02,0,.03,0,.05,0,1.27-.17,1.84-1.77,.94-2.69-.42-.43-.96-.75-1.54-.84-.26-.04-.53-.05-.79-.04,.08-.15,.16-.31,.24-.46,1.32-.75,2.21-2.33,2-3.83,.17-.32,.34-.65,.5-.97l3.49-1.77c-1.11-1.51-.56-3.95,1.1-4.83l-.31-1.61s.04-.08,.06-.12c1.37-.06,2.12-1.61,2.73-2.86,.44-.91,1.3-1.87,2.2-2.06,.56-.12,.97-.59,.9-1.15l-.09-.74c-.05-.43,.15-.84,.52-1.07l.82-.49c.44-.27,.6-.79,.47-1.29-.18-.72,.08-1.57,.63-2.07,.33-.3,.59-.68,.74-1.1,.4-1.1,2-3.19,2.51-3.76,2.14-2.38-.53-4.06-1.33-7.16,2.06-.62,2.28-3.41,2.08-5.55-.33-3.7-.67-7.39-1-11.09,1.53-1.29,1.97-3.53,1.61-5.5-.36-1.97-1.4-3.74-2.42-5.46,.44-3.32,.77-6.66,.98-10,1.87,1,4.24-2.01,6.03-.87,.38,.24,.7,.67,1.15,.69,.6,.03,.95-.63,1.28-1.14,2.29-3.5,8.41-1.77,11.18-4.9,.31,.83,1.43,1.08,2.28,.81s1.54-.87,2.32-1.3c1.29-.72,2.82-.93,4.18-1.39,1.45-.39,2.9-.78,4.35-1.18,2.54-.59,5.04-1.33,7.58-1.94,.89-.21,1.79-.41,2.67-.68,1.9-.57,3.72-1.44,5.35-2.57,.55-.38,1.31-.04,1.39,.63,.07,.6,.7,.95,1.25,.71l5.3-2.32c2.97-1.3,6.11-2.63,9.33-2.24,2.78,.33,5.61,1.92,8.22,.89,1.08-.43,1.91-1.23,2.61-2.17,.62-.81,1.64-1.27,2.63-1.01,1.08,.28,2.37,.11,3.52,0,1.64-.17,3.75,.23,4.23,1.74,.04,.13,.16,.22,.29,.19,1.34-.29,2.46-1.45,2.68-2.81,1.17-1.28,2.74,1.33,4.42,1.76,1.72,.44,3.16-1.64,4.93-1.7,1.51-.05,2.86,1.37,4.33,1.06,.7-.15,1.26-.66,1.89-.99,1.93-1.02,4.26-.28,6.41,.13,2.17,.41,4.93,.15,5.8-1.9,.48,.49,1.13,.8,1.82,.81,.48,0,.94-.12,1.41-.2,1.01-.17,2.05-.14,3.07-.11l9.16,.29c.23,0,.44,.13,.6,.31,1.52,1.75,4.54,.74,6.71-.59,.25-.16,.57-.16,.83-.01l3.02,1.81c.26,.16,.59,.15,.84-.02l1.04-.69c.39-.26,.91-.13,1.13,.28,.8,1.49,2.97,2.19,4.45,1.37,.3-.17,.68-.11,.93,.13l2.57,2.59c.29,.29,.75,.31,1.07,.05l2.15-1.8c.34-.29,.86-.25,1.12,.11,1.01,1.4,3.35,1.6,5.23,1.48,1.85-.12,4.14,.02,5.22,1.33,.26,.31,.71,.37,1.04,.14,.97-.69,2.51-.59,3.66-.05,1.43,.67,2.63,1.83,4.14,2.3,1.23,.38,2.55,.28,3.83,.3,2.96,.05,5.91,.83,8.51,2.25,1.19,.65,2.8,1.35,3.91,.93,.41-.15,.87,.04,1.01,.46,.53,1.57,1.91,2.86,3.55,3.19,1.61,.32,3.35-.3,4.46-1.51,.34-.37,.93-.32,1.22,.1,1.07,1.54,3.12,2.4,4.95,2.02,.38-.08,.74,.15,.89,.51,.49,1.21,1.7,2.1,2.98,2.45,1.32,.37,2.71,.28,4.08,.13,.37-.04,.73,.18,.84,.54l.52,1.61c.1,.29,.35,.51,.66,.54l3.21,.37c.53,.06,.82,.61,.63,1.11-.69,1.79-.24,4.02,1.11,5.39,.28,.28,.32,.71,.07,1.01-.3,.38-.4,.95-.21,1.38,.13,.3,.04,.65-.21,.87l-.74,.66c-.23,.2-.33,.52-.24,.81,.24,.78,.61,1.51,1.08,2.17,.22,.31,.22,.76-.07,1.02-.86,.79-1.02,2.32-.33,3.26,.22,.29,.24,.69,.02,.98l-1.2,1.57c-.22,.29-.23,.69,0,.97,.56,.67,1.24,1.25,1.99,1.7,.41,.24,.5,.79,.2,1.16l-.59,.73c-.29,.37-.19,.89,.19,1.16,.24,.16,.46,.35,.66,.55,.24,.23,.31,.58,.18,.89l-.29,.67c-.06,.13-.08,.28-.06,.42,.04,.3,.11,.59,.19,.88l-.61,.42c-.52,.37-.65,1.06-.35,1.62,1.03,1.86,1.04,4.26,.06,6.14-.25,.49-.11,1.07,.29,1.44,.6,.54,.88,1.65,.64,2.5-.19,.67-.54,1.3-.82,1.94-.32,.73,.12,1.52,.9,1.7,1.17,.27,2.25,1.35,2.87,2.48,.85,1.55,1.38,3.4,2.83,4.41,.5,.35,1.11,.6,1.48,1.1,.38,.52,.42,1.21,.5,1.85,.34,2.91,1.74,5.69,3.89,7.69,.51,.48,1.08,.93,1.38,1.56,.36,.74,.3,1.61,.48,2.42,.29,1.27,1.25,2.35,2.44,2.85,.53,.23,.83,.84,.65,1.39-.45,1.42,.16,3.21,1.43,4,.39,.25,.6,.73,.5,1.18-.29,1.37,.37,2.95,1.64,3.59,.46,.23,1,.37,1.31,.78,.64,.82-.07,2.04,.24,3.03,.58,1.87,4.03,1.43,4.56,3.32,.19,.66-.09,1.35-.11,2.03-.07,2.47,2.85,3.58,4.7,5.33,.28,.5,.57,.99,.85,1.48-.02,.26-.11,.51-.3,.7-.8,.78-.46,2.71,.57,3.6,1.26,1.09,3.11,1.72,3.67,3.29,.22,.61,.2,1.28,.3,1.92,.26,1.59,1.37,2.98,2.82,3.67,.57,.27,.82,.91,.63,1.51-.43,1.35-.06,2.96,1.03,3.89,.58,.49,1.35,.85,1.61,1.57,.19,.54,.04,1.12-.03,1.69-.29,2.34,1.21,4.73,3.34,5.66,.54,.24,.78,.82,.64,1.4-.25,1.02,.23,2.38,.68,3.45,.45,1.08,.5,2.63-.11,3.43-.36,.48-.33,1.13,.08,1.57,.71,.77,1.29,1.65,1.5,2.67,.24,1.13-.1,2.43-.91,3.2-.44,.42-.46,1.13-.08,1.6,.47,.58,.88,1.21,1.13,1.87v2.44c-.24,.64-.59,1.25-.71,1.93-.13,.69,.17,1.53,.71,1.86v1.87c-.04,.21-.05,.43-.04,.64,.05,.83-.8,3.91,.04,3.91l2.57-.27s12.66-2.23,24.9,3.53c.72-1.51,2.2-4.33,3.07-6.09,.16-.32,.11-.7-.13-.97l-2.56-2.95c-.32-.37-.5-.83-.5-1.32,0-.58,.23-1.15,.67-1.53,.62-.54,1.16-1.18,1.59-1.88,.23-.38,.16-.88-.19-1.17l-1.14-.92c-.63-.51-1-1.28-1.01-2.09,0-.82,.36-1.59,.98-2.12,1.19-1.01,2.16-2.23,2.69-3.69,.78-2.16,.26-4.88-1.45-6.3-.43-.36-.4-1.02,.04-1.36l2.53-1.97Z"/></svg>