<?xml version="1.0" encoding="UTF-8"?><svg id="Eyes_5" xmlns="http://www.w3.org/2000/svg" viewBox="0 0 800 800"><defs><style>.cls-1{fill:#09090b;opacity:.05;}</style></defs><path class="cls-1" d="M536.3,409c-8.38,12.34-23.26,22.4-49.62,22.4-56.79,0-59.91-52.12-59.06-63.18,.8-10.49,10.36-39.78,60.8-39.78,4.89,0,9.38,.39,13.52,1.08,36.71,6.17,55.29,48.67,34.36,79.46Z"/><path class="cls-1" d="M313.33,431.41c-26.37,0-41.25-10.07-49.62-22.4-20.92-30.79-2.35-73.29,34.36-79.46,4.13-.69,8.63-1.08,13.52-1.08,50.45,0,60,29.29,60.8,39.78,.84,11.05-2.27,63.18-59.06,63.18Z"/></svg>