<?xml version="1.0" encoding="UTF-8"?><svg id="Male_hair_7" xmlns="http://www.w3.org/2000/svg" viewBox="0 0 800 800"><path d="M240.4,148.92s-16.01,24.05,16.84,24.79c0,0,7.16,25.17,25.12,17.23,0,0,9.91,18.14,25.37,10.37,6.55-3.29,9.69-5.74,11.13-7.46,2.26-2.71,5.68-4.22,9.19-3.83,4.64,.51,10,2.55,12.75,8.73,5.45,12.25,27.49,2.36,24.86-11.76-2.63-14.12,25.14-7.58,25.14-7.58,0,0,4.92,15.91,20.74,13.59,15.82-2.32,15.7-15.62,15.7-15.62,0,0,18.96,22.65,43.48,12.17,0,0,9.85,2.31,18.26,9.29,11.27,9.36,30.03-7.45,30.03-7.45,0,0,20.56,18.38,31.4-1.69,0,0,18.47-.4,18.02-19.71-.46-19.31-15.19-19.58-15.19-19.58,0,0,13.43-16.39-2.65-27-9.33-6.15,17.85-24.63-17.3-25.9,0,0,9.05-23.48-15.08-22.95,0,0-6.21-37.42-45.66-17.53,0,0-4.42,.14-18.41-14.05-13.99-14.2-38.88,6.13-38.88,6.13,0,0-11.87-24.72-33.26-11.51,0,0-32.58-17.29-41.1,12.3,0,0-23.64-24.77-40.2-2.21,0,0-38.57,3.72-19.83,39.88,0,0-26.06-4.98-28.34,17.46,0,0-35.83,7.17-12.11,43.88Z"/></svg>